<?xml version="1.0" encoding="UTF-8"?>
<svg width="142px" height="532px" viewBox="0 0 142 532" version="1.1" xmlns="http://www.w3.org/2000/svg" xmlns:xlink="http://www.w3.org/1999/xlink">
    <title>55/lingual 25</title>
    <g id="55/lingual-25" stroke="none" stroke-width="1" fill="none" fill-rule="evenodd" fill-opacity="0.7">
        <g id="Group-31" transform="translate(64.875960, 388.148263) scale(-1, -1) translate(-64.875960, -388.148263) translate(57.394535, 365.378435)" fill="#4A90E2">
            <path d="M14.9628491,8.5487932 C14.9628491,3.82649552 11.1349473,0 6.41405589,0 C6.28327159,0 6.15670614,0.0126565453 6.02732812,0.0182816765 C6.51108941,4.99089769 6.56593444,10.6357169 5.9963899,17.0778984 C6.1356119,17.0835236 6.27342761,17.0975864 6.41405589,17.0975864 C11.1349473,17.0975864 14.9628491,13.2710909 14.9628491,8.5487932" id="Fill-15"></path>
            <path d="M2.83647243,36.4466316 C2.83506614,36.4522567 2.83365986,36.4578818 2.83225358,36.463507 C2.83365986,36.4578818 2.83506614,36.4522567 2.83647243,36.4466316" id="Fill-23"></path>
            <path d="M0.520324639,45.5002803 C0.645483809,45.0544886 0.765017848,44.6143221 0.88595817,44.1727493 C0.765017848,44.6143221 0.645483809,45.0544886 0.520324639,45.5002803" id="Fill-25"></path>
            <path d="M1.6116001,41.4431544 C1.73535299,40.9650182 1.86051216,40.4854758 1.97863991,40.0129648 C1.86051216,40.4854758 1.73535299,40.9664245 1.6116001,41.4431544" id="Fill-27"></path>
        </g>
    </g>
</svg>