<?xml version="1.0" encoding="UTF-8"?>
<svg width="180px" height="260px" viewBox="0 0 180 260" version="1.1" xmlns="http://www.w3.org/2000/svg" xmlns:xlink="http://www.w3.org/1999/xlink">
    <title>53/incisal  12</title>
    <g id="53/incisal--12" stroke="none" stroke-width="1" fill="none" fill-rule="evenodd" fill-opacity="0.7">
        <g id="Group-30" transform="translate(27.799224, 57.000000)" fill="#4A90E2">
            <path d="M108.624519,41.9371453 C65.6023767,31.931271 33.084844,34.0425832 10.0100304,39.6969932 C5.93494846,38.2735199 2.30665014,37.2989083 0,36.7378312 C4.42835265,32.357274 10.3882379,27.3636882 19.1098691,20.0592961 C22.2228077,17.4534048 26.2064548,14.1970798 31.8733332,10.6996995 C35.7738578,8.2933023 38.6727559,6.50408989 42.9348635,4.95593282 C45.1334543,4.15795655 45.9293525,4.06444371 59.3162356,1.76402776 C67.3126227,0.392506061 68.6010219,0.155606858 71.2297718,0.0620940143 C74.2346512,-0.041809145 77.9149011,-0.145712304 82.5032646,0.914099921 C88.1140352,2.20873329 92.0415747,4.54032018 94.8428038,6.23186361 C97.5338957,7.85898709 98.1614707,8.56552857 104.840366,13.677564 C112.248661,19.3465204 112.123977,18.972469 114.20204,20.6972615 C118.036067,23.8808543 121.288236,28.2053037 126.753542,35.9834943 C121.660209,37.2178638 114.991704,39.1546187 108.624519,41.9371453 M32.9227551,30.2958353 L98.0243186,32.5027384 C98.0243186,32.5027384 95.9504115,3.93768186 74.0497036,3.19165717 C52.8763178,2.47056925 32.9227551,30.2958353 32.9227551,30.2958353" id="Fill-16"></path>
        </g>
    </g>
</svg>