<?xml version="1.0" encoding="UTF-8"?>
<svg width="177px" height="260px" viewBox="0 0 177 260" version="1.1" xmlns="http://www.w3.org/2000/svg" xmlns:xlink="http://www.w3.org/1999/xlink">
    <title>41/incisal  22</title>
    <g id="41/incisal--22" stroke="none" stroke-width="1" fill="none" fill-rule="evenodd" fill-opacity="0.7">
        <g id="Group-29" transform="translate(87.293577, 160.535474) scale(-1, 1) translate(-87.293577, -160.535474) translate(58.311028, 145.703319)" fill="#4A90E2">
            <path d="M9.70058238,1.53729865 C18.8875633,1.5793684 30.4777784,1.13938897 45.0689688,0 C47.3109357,8.64007418 52.7291685,16.9225555 57.965099,23.3627325 C57.1272099,23.8780869 56.2630272,24.3496187 55.351516,24.8456911 C52.2541309,26.5302339 49.5704317,27.4557683 48.0348859,27.9255471 C47.1882323,28.1849772 43.3370976,29.3331307 38.5358878,29.6048312 C30.1815373,30.0763629 23.4153197,27.6433292 18.6386506,25.8728941 C11.6252733,23.2733343 6.96955467,20.2162661 1.30942086,16.5018581 C0.848406554,16.1986053 0.424203277,15.9163874 0,15.6324166 C3.71616094,11.8058226 7.39726376,7.02915347 9.70058238,1.53729865 L9.70058238,1.53729865 Z M11.4307007,4.5084745 C11.4307007,4.5084745 25.8711412,27.9728756 36.1519355,27.6976693 C46.7868168,27.4136985 43.0426094,3.67233829 43.0426094,3.67233829 L11.4307007,4.5084745 Z" id="Fill-9"></path>
        </g>
    </g>
</svg>