<?xml version="1.0" encoding="UTF-8"?>
<svg width="142px" height="260px" viewBox="0 0 142 260" version="1.1" xmlns="http://www.w3.org/2000/svg" xmlns:xlink="http://www.w3.org/1999/xlink">
    <title>55/occlusal  16</title>
    <g id="55/occlusal--16" stroke="none" stroke-width="1" fill="none" fill-rule="evenodd" fill-opacity="0.7">
        <g id="Group-15" transform="translate(51.475805, 139.302973)" fill="#4A90E2">
            <path d="M68.8034451,3.00303915 C72.7668307,5.12561792 77.1404887,8.06719317 80.8871266,10.770346 C80.7152767,11.0799855 80.5542641,11.3710466 80.419571,11.6156618 C79.3791822,13.4998182 77.0119883,18.8658707 76.0644914,20.7980212 C74.3583778,24.276821 72.0113103,30.5083159 70.2928111,33.9824711 C69.0155482,36.5633164 66.2814314,41.1877823 64.5010043,43.451247 C63.1370423,45.1852282 59.7619717,48.091195 58.0016712,49.4195484 C55.6731821,51.1783008 48.052954,55.522543 48.052954,55.522543 C48.052954,55.522543 40.6757929,58.838782 38.1042369,59.6345555 C36.2587855,60.2042922 32.4564124,60.955168 30.5443885,61.2261026 C28.0347603,61.5790916 22.3931286,61.8159658 19.8618257,61.9320806 C17.1416427,62.0559364 11.5356196,61.9800747 7.88187348,61.802032 C32.8542992,27.8578018 0.90414734,9.38161285 0,8.86915948 C7.81839738,12.7365568 15.5082944,16.3794656 21.1607634,16.249417 C31.8634528,16.0048018 50.1182495,-0.810171294 60.7899749,0.0304999489 C62.1291657,0.135777379 63.7764478,0.655971739 65.5893871,1.44090787 C66.6158421,1.88524055 67.6902911,2.40698311 68.8034451,3.00303915" id="Fill-13"></path>
        </g>
    </g>
</svg>