<?xml version="1.0" encoding="UTF-8"?>
<svg width="146px" height="532px" viewBox="0 0 146 532" version="1.1" xmlns="http://www.w3.org/2000/svg" xmlns:xlink="http://www.w3.org/1999/xlink">
    <title>44/lingual 21</title>
    <g id="44/lingual-21" stroke="none" stroke-width="1" fill="none" fill-rule="evenodd" opacity="0.7">
        <g id="Group-23" transform="translate(124.736669, 105.552767) rotate(-1.000000) translate(-124.736669, -105.552767) translate(108.706430, 91.050194)" fill="#4A90E2">
            <path d="M31.786132,20.964882 C31.4421634,18.7394056 31.0672377,16.4416958 29.6552469,13.8120564 C28.9776289,12.5496919 27.8339335,11.1445804 25.5465428,8.33435751 C23.7888636,6.17251529 23.118125,5.54305288 22.199729,4.98582386 C20.7017461,4.07946678 19.3379108,3.84384834 17.9379589,3.61682911 C15.5473776,3.22814467 13.6091149,3.37261145 10.329375,3.61682911 C8.36531468,3.76301573 6.93440559,3.95391827 5.00302229,3.46376311 C3.83180944,3.16795017 3.10431599,2.78098558 2.72079108,2.5522465 C1.40339161,1.76627841 0.93903409,0.954512674 0.134147727,0.116949301 C0.0894318181,0.0722333916 0.0429960664,0.0429960664 -1.54118918e-12,-6.46637027e-13 L-1.54118918e-12,29.0051464 L31.91684,29.0051464 C32.0578671,25.052948 32.2023339,23.6633151 31.786132,20.964882" id="Fill-3"></path>
        </g>
    </g>
</svg>