<?xml version="1.0" encoding="UTF-8"?>
<svg width="142px" height="532px" viewBox="0 0 142 532" version="1.1" xmlns="http://www.w3.org/2000/svg" xmlns:xlink="http://www.w3.org/1999/xlink">
    <title>55/lingual  18</title>
    <g id="55/lingual--18" stroke="none" stroke-width="1" fill="none" fill-rule="evenodd" fill-opacity="0.7">
        <g id="Group-31" transform="translate(101.003014, 407.673797) scale(-1, -1) translate(-101.003014, -407.673797) translate(68.819880, 365.378435)" fill="#4A90E2">
            <path d="M15.3678585,3.42289236 C13.8518857,4.77292385 12.6959212,5.98232707 10.447275,8.34347591 C8.74989164,10.1266425 7.46595543,11.4752677 6.44780668,12.6495139 C6.44780668,12.6509201 2.48912057,17.2255581 0,22.4695867 L19.706241,22.4428673 L19.706241,0 C18.1972995,0.915490109 16.9625832,2.00254672 15.3678585,3.42289236" id="Fill-7"></path>
            <path d="M63.6652353,75.4976989 C63.663829,75.503324 63.6624228,75.5089491 63.6610165,75.5145743 C63.6624228,75.5089491 63.663829,75.503324 63.6652353,75.4976989" id="Fill-23"></path>
            <path d="M61.3490875,84.5513476 C61.4742467,84.105556 61.5937807,83.6653894 61.7147211,83.2238166 C61.5937807,83.6653894 61.4742467,84.105556 61.3490875,84.5513476" id="Fill-25"></path>
            <path d="M62.440363,80.4942217 C62.5641159,80.0160855 62.6892751,79.5365431 62.8074028,79.0640321 C62.6892751,79.5365431 62.5641159,80.0174918 62.440363,80.4942217" id="Fill-27"></path>
        </g>
    </g>
</svg>