<?xml version="1.0" encoding="UTF-8"?>
<svg width="146px" height="532px" viewBox="0 0 146 532" version="1.1" xmlns="http://www.w3.org/2000/svg" xmlns:xlink="http://www.w3.org/1999/xlink">
    <title>44/buccal  11</title>
    <g id="44/buccal--11" stroke="none" stroke-width="1" fill="none" fill-rule="evenodd" opacity="0.7">
        <g id="Group-27" transform="translate(44.195616, 140.408081) scale(1, -1) rotate(-3.000000) translate(-44.195616, -140.408081) translate(10.876851, 120.321621)" fill="#4A90E2">
            <path d="M42.7479808,2.92380057 C23.6912139,1.55032501 14.2355536,0.613188249 13.0852058,0.416505226 C11.8621349,0.208252613 8.22432541,0.266100561 6.60954126,1.90105439e-12 C5.8971851,2.1139293 5.37490077,4.84765804 4.10389871,9.60771776 C2.79488229,14.5066126 2.46266979,14.0091202 -2.59006902e-13,22.4251702 L17.2353829,22.4251702 C22.4003783,22.4251702 26.5869169,26.6117089 26.5869169,31.7767042 L26.5869169,40.1729207 L49.7327073,40.1729207 C49.1228246,38.9432386 48.7707785,37.5631518 48.7707785,36.0971195 C48.7707785,31.0180697 52.8878996,26.9009486 57.9669495,26.9009486 C58.2611476,26.9009486 58.5503874,26.9174766 58.8363215,26.9455742 C60.6378719,15.7809202 63.8674402,7.49378846 66.6375305,2.02137258 C58.094215,3.10230281 51.0880021,3.52541923 42.7479808,2.92380057" id="Fill-5"></path>
        </g>
    </g>
</svg>