<?xml version="1.0" encoding="UTF-8" standalone="no"?><!DOCTYPE svg PUBLIC "-//W3C//DTD SVG 1.1//EN" "http://www.w3.org/Graphics/SVG/1.1/DTD/svg11.dtd"><svg width="145px" height="532px" version="1.1" xmlns="http://www.w3.org/2000/svg" xmlns:xlink="http://www.w3.org/1999/xlink" xml:space="preserve" xmlns:serif="http://www.serif.com/" style="fill-rule:evenodd;clip-rule:evenodd;stroke-linejoin:round;stroke-miterlimit:2;"><g transform="matrix(1.99745,0,0,-1.99745,117.039,92.5904)"><g id="surfaces"><path id="lingual-25" serif:id="lingual 25" d="M0,-11.89L-13.071,-11.89C-13.273,-8.337 -13.394,-4.392 -13.414,0C-12.912,-0.014 -12.161,-0.025 -9.715,-0.113C-7.817,-0.18 -6.797,-0.225 -5.446,-0.519C-4.439,-0.738 -3.882,-0.957 -3.057,-1.282C-1.898,-1.737 -1.582,-1.995 -1.38,-2.196C-0.93,-2.646 -0.75,-3.112 -0.465,-3.873C-0.31,-4.288 -0.049,-5.077 0.094,-6.262C0.139,-6.639 0.194,-7.236 0.145,-9.006C0.109,-10.29 0.043,-11.277 0,-11.89" style="fill:rgb(74,144,226);fill-opacity:0.7;fill-rule:nonzero;"/></g></g></svg>