<?xml version="1.0" encoding="UTF-8"?>
<svg width="146px" height="260px" viewBox="0 0 146 260" version="1.1" xmlns="http://www.w3.org/2000/svg" xmlns:xlink="http://www.w3.org/1999/xlink">
    <title>54/occlusal  19</title>
    <g id="54/occlusal--19" stroke="none" stroke-width="1" fill="none" fill-rule="evenodd" fill-opacity="0.7">
        <g id="Group-24" transform="translate(16.525760, 133.167861)" fill="#4A90E2">
            <path d="M109.429094,5.11252304 C108.168913,7.50393536 108.100043,7.77795136 106.184862,11.3943764 C104.744446,14.1154871 104.619893,14.2708117 101.785952,19.5064221 C98.2383977,26.0622914 97.831037,26.9356258 97.5247839,27.6184678 C96.195733,30.5667041 96.3290777,30.8246015 94.4988853,35.0418103 C93.1244093,38.2098455 92.4371714,39.7953284 91.3367114,41.6416394 C89.7541591,44.2997411 88.2184973,46.1343294 86.8000616,47.8282465 C85.1383817,49.8137635 84.1023961,51.0504988 82.4011524,52.502637 C80.5138122,54.1115651 78.9444479,55.0171367 76.6263019,56.3520489 C74.1528313,57.7763459 72.4120238,58.7800944 69.8901974,59.6519634 C67.4768052,60.4842687 65.6319596,60.755354 62.740871,61.16418 C59.2914932,61.6506683 56.7960427,62.0023466 53.805312,61.8997738 C47.3637381,61.6785095 42.4929939,59.4819856 37.9944425,57.4510435 C37.0200006,57.0114457 34.0981402,55.6604149 30.5711001,53.463891 C27.5891613,51.608788 25.1508585,49.7580811 23.6957896,48.6532251 C19.6353708,45.5687135 18.9745087,44.6177168 16.4101879,43.2901313 C15.8973237,43.0263726 15.1280275,42.6512491 14.209268,41.9156554 C12.3453731,40.4210227 11.4368708,38.6875418 11.0485594,37.9285028 C6.52802813,29.0984473 4.86195226,24.3185533 4.86048694,24.3185533 C1.77011402,15.4547952 0.674050042,12.5241429 0,10.6324068 L0.00146532618,10.6324068 C0.99349115,9.88509041 2.03387274,9.10993286 3.08597693,8.33037933 L3.10795683,8.34796324 L3.1064915,8.34796324 C6.49872161,11.1540629 10.5972389,14.0129143 15.4665178,16.5464632 C19.8302592,18.8177188 29.501412,23.7177695 42.9223344,24.2775241 C57.3220948,24.8768425 68.144994,20.1511656 74.3770262,17.3465313 C82.1623042,13.8429364 83.7477871,11.6405512 99.1674145,1.88587479 C100.118411,1.28362573 101.045963,0.703356566 101.961792,0.133344682 C102.032127,0.0893848969 102.106859,0.0424944592 102.175729,0 C104.275542,1.30560563 106.867704,3.17096585 109.429094,5.11252304" id="Fill-8"></path>
        </g>
    </g>
</svg>