<?xml version="1.0" encoding="UTF-8"?>
<svg width="142px" height="260px" viewBox="0 0 142 260" version="1.1" xmlns="http://www.w3.org/2000/svg" xmlns:xlink="http://www.w3.org/1999/xlink">
    <title>55/occlusal  14</title>
    <g id="55/occlusal--14" stroke="none" stroke-width="1" fill="none" fill-rule="evenodd" fill-opacity="0.7">
        <g id="Group-15" transform="translate(21.066110, 98.194118)" fill="#4A90E2">
            <path d="M94.2697458,39.1793366 L94.3223845,15.9254102 C94.3254809,14.5242915 95.0933869,13.2625105 96.2870471,12.5983338 C94.3456075,13.2501249 92.5976925,13.6789756 91.1996702,13.7501927 C81.1147116,14.2580015 63.3212778,0.0888979555 53.2239337,0.000650698019 C47.5993322,-0.0473434245 39.5750245,2.56756215 31.4005417,5.21188348 C22.0370432,8.2386096 12.4753755,11.3024925 6.08906077,10.4416946 C4.48512816,10.224947 2.36100119,9.47252301 0,8.41665231 L2.31919986,9.44155906 C3.27598591,9.86266878 3.89216852,10.8101656 3.89216852,11.855199 L3.89216852,40.0107187 C3.89216852,40.7275341 3.47570339,41.3514577 2.85642439,41.6719346 C4.06401844,41.3700361 5.16633506,41.1703186 6.08906077,41.1378065 C12.5016948,40.9133178 21.5385236,45.5888743 30.4096953,49.976466 C30.3973097,49.9702732 30.3880205,49.9640804 30.3880205,49.9640804 C30.3880205,49.9640804 30.3973097,49.9702732 30.4096953,49.976466 C38.2280927,53.8438634 45.9179897,57.4883203 51.5704587,57.3582717 C62.2731481,57.1121083 80.5279448,40.2971352 91.1996702,41.1378065 C92.538861,41.2430839 94.1861431,41.7632783 95.9990824,42.5497626 C94.9277297,41.7772121 94.2666494,40.5324613 94.2697458,39.1793366" id="Fill-7"></path>
        </g>
    </g>
</svg>