<?xml version="1.0" encoding="UTF-8"?>
<svg width="146px" height="260px" viewBox="0 0 146 260" version="1.1" xmlns="http://www.w3.org/2000/svg" xmlns:xlink="http://www.w3.org/1999/xlink">
    <title>54/occlusal 10</title>
    <g id="54/occlusal-10" stroke="none" stroke-width="1" fill="none" fill-rule="evenodd" fill-opacity="0.7">
        <g id="Group-24" transform="translate(14.251574, 64.000000)" fill="#4A90E2">
            <path d="M0,30.2150956 L0,30.2136303 C0.13041403,29.9498716 0.250570777,29.6890435 0.398568721,29.4194235 C2.11739633,26.2953481 4.164457,24.3743055 4.66120258,23.9200544 C5.36309382,23.2767762 6.32141714,22.5748849 8.23513313,21.1696371 C10.4199345,19.5680356 10.8111766,19.4039191 12.084545,18.4206852 C13.8766389,17.0374173 14.1433283,16.5611863 16.2094382,14.709014 C18.98037,12.2252861 21.3424758,10.535765 22.2583047,9.89688282 C24.3639784,8.42862599 25.8923136,7.36186853 28.1708958,6.32295227 C31.1293894,4.97045621 33.6028599,4.46345335 36.0074602,3.98575702 C38.3138836,3.5256446 40.1118388,3.35859741 43.7062839,3.02303772 C47.322709,2.68454737 47.5483692,2.79884281 50.5801291,2.47207507 C52.9920559,2.21417767 54.76217,1.93576569 57.4539742,1.5108211 C64.1549108,0.451390273 63.3724266,0.312184286 65.5660199,0.126087861 C71.0214293,-0.335489886 74.9851366,0.602318869 75.8775202,0.823583122 C77.1757992,1.14595488 76.7449933,1.13862825 80.8259267,2.47207507 C86.3311572,4.27296095 86.4542446,4.06928061 89.2119884,5.08475165 C91.1037245,5.78078159 93.2225862,6.78599535 97.4617748,8.79642286 C100.380705,10.1811561 101.872407,10.8933046 103.510641,11.8208561 C106.278642,13.3916858 108.28907,14.8086562 109.697248,15.8080086 C112.10771,17.5180443 113.312208,18.3723294 114.64712,19.6574205 C115.356338,20.3417278 117.599753,22.5294598 119.18377,25.432271 C119.547171,26.0975291 119.831444,26.7466686 120.076154,27.4060653 C118.941991,28.2779344 117.552862,29.3388306 116.046507,30.477389 C116.023062,30.4495478 115.999616,30.4202413 115.976171,30.3924001 C113.143696,27.00017 110.645314,24.9443174 109.97273,24.4050773 C105.959201,21.191617 102.354499,19.5460557 100.109619,18.540842 C97.1291458,17.2059298 93.8175086,16.2988929 87.314391,14.5419668 C84.6753386,13.828353 81.253802,12.9901864 74.5191628,11.3431598 C68.2915266,9.82068586 65.1571939,9.0557856 64.1226736,8.94442081 C62.121038,8.72755253 55.6999787,8.09746228 48.6620171,10.5430917 C44.4272244,12.0157445 43.082055,13.5191691 35.0681861,19.0742207 C28.1606385,23.8614413 27.3591051,23.9918553 21.2062005,28.1372631 C18.1128969,30.2209569 13.8487977,33.1999651 8.48716923,37.238404 C8.40804162,37.2984824 8.32598335,37.3600261 8.24685574,37.4201044 C5.4011923,35.0711866 2.52036103,32.521519 0,30.2150956" id="Fill-4"></path>
        </g>
    </g>
</svg>