<?xml version="1.0" encoding="UTF-8"?>
<svg width="142px" height="532px" viewBox="0 0 142 532" version="1.1" xmlns="http://www.w3.org/2000/svg" xmlns:xlink="http://www.w3.org/1999/xlink">
    <title>55/lingual  26</title>
    <g id="55/lingual--26" stroke="none" stroke-width="1" fill="none" fill-rule="evenodd" fill-opacity="0.7">
        <g id="Group-31" transform="translate(43.719841, 393.886783) scale(-1, -1) translate(-43.719841, -393.886783) translate(14.405876, 360.141803)" fill="#4A90E2">
            <path d="M43.3725744,30.3278951 C39.7781155,30.3278951 36.8628913,27.4140771 36.8628913,23.8182119 L36.8628913,0 L2.74647033,0.0464073327 C4.59010709,4.47057305 6.0456098,9.97335768 6.70375015,16.7333591 C6.83312817,16.7263277 6.95969362,16.7136712 7.09047792,16.7136712 C11.8113693,16.7136712 15.6392711,20.541573 15.6392711,25.2624644 C15.6392711,29.9847621 11.8113693,33.8126639 7.09047792,33.8126639 C6.94984964,33.8126639 6.81203393,33.7971947 6.67421821,33.7915696 C5.86279303,42.9731901 3.80680756,53.7368787 0,66.3399852 C3.43695519,66.8490596 6.77125173,67.1823486 10.5794656,67.3609465 C26.4803053,68.1020576 33.5117193,65.4526208 35.9544326,64.4386909 C39.914525,62.7947463 45.5340311,60.3801587 49.1805224,54.7494023 C49.9905413,53.4992169 50.8329047,52.4473174 53.1631153,46.5156165 C55.4244181,40.7568884 56.8799208,35.9628703 57.6393135,33.3739036 C58.163857,31.5837056 58.2791722,31.5021412 58.6279303,30.3278951 L43.3725744,30.3278951 Z" id="Fill-13"></path>
            <path d="M3.51289446,53.1603027 C3.51148817,53.1659279 3.51008189,53.171553 3.50867561,53.1771781 C3.51008189,53.171553 3.51148817,53.1659279 3.51289446,53.1603027" id="Fill-23"></path>
            <path d="M1.19674667,62.2139515 C1.32190584,61.7681598 1.44143988,61.3279933 1.5623802,60.8864205 C1.44143988,61.3279933 1.32190584,61.7681598 1.19674667,62.2139515" id="Fill-25"></path>
            <path d="M2.28802213,58.1568256 C2.41177502,57.6786894 2.53693419,57.199147 2.65506194,56.7266359 C2.53693419,57.199147 2.41177502,57.6800957 2.28802213,58.1568256" id="Fill-27"></path>
        </g>
    </g>
</svg>