<?xml version="1.0" encoding="UTF-8"?>
<svg width="142px" height="532px" viewBox="0 0 142 532" version="1.1" xmlns="http://www.w3.org/2000/svg" xmlns:xlink="http://www.w3.org/1999/xlink">
    <title>45/buccal/6</title>
    <g id="45/buccal/6" stroke="none" stroke-width="1" fill="none" fill-rule="evenodd">
        <g id="Group-18" transform="translate(70.708028, 179.031356) scale(1, -1) translate(-70.708028, -179.031356) translate(12.030868, 165.691997)"></g>
        <g id="Group-24" transform="translate(4.611336, 137.382161)" fill="#4A90E2" fill-opacity="0.7">
            <path d="M67.9837252,11.6765081 C63.8088456,11.6765081 60.4249776,15.0603761 60.4249776,19.2352557 C60.4249776,23.1660814 63.4384375,26.3578218 67.2740649,26.7213063 C66.8673084,32.3414697 66.5886369,38.1087577 66.458821,44.0145161 C63.1839984,44.3537683 59.9680256,44.5839752 56.4353021,44.857454 C49.4512063,45.3974882 44.7968733,46.1521513 36.7984825,45.3351766 C9.13730899,42.5103824 9.77600325,40.431597 7.82011025,40.545835 C7.57778723,40.2879341 5.68939849,37.1256186 1.54221298,29.3141627 C0.953714198,28.2081312 0.4482976,27.2423009 0,26.3716688 L20.2633977,26.3716688 C24.5023198,26.3716688 27.9363832,22.9358745 27.9363832,18.6986833 L27.9363832,0 L70.2321367,0 C69.6592158,3.82524207 69.1416831,7.74568247 68.6795384,11.7474742 C68.4476007,11.7249727 68.2225864,11.6765081 67.9837252,11.6765081" id="Fill-11"></path>
        </g>
    </g>
</svg>