<?xml version="1.0" encoding="UTF-8"?>
<svg width="146px" height="260px" viewBox="0 0 146 260" version="1.1" xmlns="http://www.w3.org/2000/svg" xmlns:xlink="http://www.w3.org/1999/xlink">
    <title>54/occlusal  13</title>
    <g id="54/occlusal--13" stroke="none" stroke-width="1" fill="none" fill-rule="evenodd" fill-opacity="0.7">
        <g id="Group-24" transform="translate(112.308861, 94.478854)" fill="#4A90E2">
            <path d="M21.126483,28.3628535 C21.3389553,27.7166447 22.2459922,24.919337 22.9141809,20.8017704 C23.2570673,18.6829088 23.8431977,14.2752076 23.5911616,8.43881347 C22.5786212,6.48553367 21.3741231,4.47364083 19.9117276,2.457352 C19.2640534,1.56350303 18.6207752,0.759038961 17.9892196,0 C13.210791,3.61202903 7.21467625,8.02412616 4.14774856,9.80742812 C-1.52452908,13.782858 -1.30033418,33.4929605 4.33824096,37.5182115 C4.94049002,37.817138 5.63505463,38.2186374 6.39262826,38.6890071 C11.8231271,35.3084996 16.6015558,32.4789548 20.4509676,30.2575203 C20.6795585,29.6625978 20.9037534,29.0369036 21.126483,28.3628535" id="Fill-20"></path>
        </g>
    </g>
</svg>