<?xml version="1.0" encoding="UTF-8"?>
<svg width="142px" height="260px" viewBox="0 0 142 260" version="1.1" xmlns="http://www.w3.org/2000/svg" xmlns:xlink="http://www.w3.org/1999/xlink">
    <title>55/occlusal 11</title>
    <g id="55/occlusal-11" stroke="none" stroke-width="1" fill="none" fill-rule="evenodd" fill-opacity="0.7">
        <g id="Group-15" transform="translate(49.713172, 59.000000)" fill="#4A90E2">
            <path d="M67.6399846,51.7924519 C65.7000931,52.444243 63.9506299,52.8730937 62.5526076,52.9443108 C52.4676491,53.4521196 34.6742152,39.2830161 24.5768711,39.1947688 C18.9522696,39.1467747 10.927962,41.7616803 2.75347915,44.4044534 C2.75193095,44.401357 -8.93541198,13.3677381 15.858971,5.03379095 C17.0603722,4.99508602 19.4322108,4.50275921 20.6057445,4.23801744 C23.5720909,3.57229251 29.3205483,1.49461147 32.3070212,0.921778393 C34.5008171,0.502216871 38.9611741,-0.050489637 41.1936749,0.00369727554 C44.1337019,0.0764625581 49.9951777,0.816500963 52.867084,1.45281014 C56.5425049,2.26871022 63.8360633,4.39128899 67.1925555,6.09585444 C70.2208298,7.63321456 75.7076418,11.7498717 78.2017879,14.0551378 C80.3444933,16.0337342 84.2831077,20.4275187 85.7631845,22.9417914 C86.7695129,24.6510015 87.9956853,28.4657601 88.5483918,30.3700431 C89.1351587,32.3873444 89.9711853,36.5148389 90.2730839,38.5940682 C90.3458491,39.094136 90.4201626,39.666969 90.4960243,40.2846998 C85.1717731,43.4770831 77.0205132,48.10929 70.3431374,50.7985091 L70.3261073,50.8047019 C69.3940924,51.1809139 68.5038788,51.5013907 67.6399846,51.7924519" id="Fill-3"></path>
        </g>
    </g>
</svg>