<?xml version="1.0" encoding="UTF-8" standalone="no"?><!DOCTYPE svg PUBLIC "-//W3C//DTD SVG 1.1//EN" "http://www.w3.org/Graphics/SVG/1.1/DTD/svg11.dtd"><svg width="145px" height="532px" version="1.1" xmlns="http://www.w3.org/2000/svg" xmlns:xlink="http://www.w3.org/1999/xlink" xml:space="preserve" xmlns:serif="http://www.serif.com/" style="fill-rule:evenodd;clip-rule:evenodd;stroke-linejoin:round;stroke-miterlimit:2;"><g transform="matrix(1.97612,0,0,1.97612,117.311,100.7)"><g id="surfaces"><path id="Buccal-8" serif:id="Buccal 8" d="M0,0.411C-0.007,0.017 -0.457,-0.978 -1.049,-1.793C-1.613,-2.57 -2.435,-2.902 -2.8,-3.044C-3.402,-3.279 -3.72,-3.257 -5.302,-3.419C-6.633,-3.556 -6.566,-3.588 -7.426,-3.67C-9.367,-3.855 -11.78,-3.972 -12.215,-3.962C-12.611,-3.954 -13.057,-3.971 -13.531,-4.003C-13.525,-1.89 -13.483,1.063 -13.349,4.414L0.051,4.414C0.04,3.193 0.024,1.871 0,0.411" style="fill:rgb(74,144,226);fill-opacity:0.7;fill-rule:nonzero;"/></g></g></svg>