<?xml version="1.0" encoding="UTF-8"?>
<svg width="146px" height="532px" viewBox="0 0 146 532" version="1.1" xmlns="http://www.w3.org/2000/svg" xmlns:xlink="http://www.w3.org/1999/xlink">
    <title>44/buccal 2</title>
    <g id="44/buccal-2" stroke="none" stroke-width="1" fill="none" fill-rule="evenodd" opacity="0.7">
        <g id="Group-27" transform="translate(91.502687, 106.279595) scale(1, -1) rotate(-3.000000) translate(-91.502687, -106.279595) translate(70.172496, 89.808481)" fill="#4A90E2">
            <path d="M8.75817933,5.72247507e-12 C7.25413268,3.03123247 4.13695468,5.1203698 0.523937129,5.1203698 C0.347087688,5.1203698 0.173543844,5.10384181 9.19632764e-13,5.09392502 C0.0198335822,10.6010497 0.406588434,16.5610411 1.26604366,22.9722465 C5.61290375,23.8796329 5.13359218,23.6779915 7.23595189,24.1639143 C13.0538027,25.5059867 14.0768849,26.9340046 16.4205532,28.4711072 C18.2700348,29.6842613 18.8501671,30.080933 22.3755863,32.0989999 C23.6135324,32.8063977 27.1967995,32.8460649 28.3983841,32.9204408 C30.4445486,33.0460535 31.7238147,32.6278955 33.5567682,31.6824947 C35.2062611,30.8329563 37.1499522,30.942041 40.924944,29.9768066 C41.539785,29.8197908 42.1133061,29.6693861 42.6603824,29.5272455 L42.6603824,5.72247507e-12 L8.75817933,5.72247507e-12 Z" id="Fill-17"></path>
        </g>
    </g>
</svg>