<?xml version="1.0" encoding="UTF-8"?>
<svg width="180px" height="532px" viewBox="0 0 180 532" version="1.1" xmlns="http://www.w3.org/2000/svg" xmlns:xlink="http://www.w3.org/1999/xlink">
    <title>53/lingual  27</title>
    <g id="53/lingual--27" stroke="none" stroke-width="1" fill="none" fill-rule="evenodd" fill-opacity="0.7">
        <g id="Group-21" transform="translate(42.404835, 462.917662) scale(1, -1) translate(-42.404835, -462.917662) translate(22.162925, 449.940002)" fill="#4A90E2">
            <path d="M40.483819,0 C39.4229264,0.624286882 38.3363511,1.24857376 36.8349016,2.07041979 C34.2132919,3.50469914 30.3490351,5.61858194 25.1058155,7.93397506 C19.6887439,10.3264162 18.2880496,10.5101462 14.1847462,12.7880031 C11.39126,14.3388424 8.84077151,16.0319242 6.29620979,18.4520237 C5.44670549,19.2600406 4.58929882,20.156959 3.46518731,21.4845565 C2.1830285,22.9998351 1.02533194,24.5210405 0,25.9553198 L39.8002643,25.9553198 C40.0728959,21.0914138 40.2724307,15.8047312 40.3830638,10.2513438 C40.4443071,7.06273925 40.4759166,3.77140398 40.4759166,0.371411183 L40.483819,0 Z" id="Fill-3"></path>
        </g>
    </g>
</svg>