<?xml version="1.0" encoding="UTF-8"?>
<svg width="146px" height="532px" viewBox="0 0 146 532" version="1.1" xmlns="http://www.w3.org/2000/svg" xmlns:xlink="http://www.w3.org/1999/xlink">
    <title>44/buccal   13</title>
    <g id="44/buccal---13" stroke="none" stroke-width="1" fill="none" fill-rule="evenodd" opacity="0.7">
        <g id="Group-27" transform="translate(75.964414, 165.392273) scale(1, -1) rotate(-3.000000) translate(-75.964414, -165.392273) translate(16.222359, 158.992624)" fill="#4A90E2">
            <path d="M58.2776756,0.529932059 C17.8634463,2.65873654 -2.77944908e-12,9.5988375 -2.77944908e-12,9.5988375 C1.61313135,9.86493807 5.25094088,9.80874292 6.47566458,10.0169955 C7.62435954,10.2136786 17.0816726,11.1491625 36.1367867,12.5242909 C44.4784608,13.1259095 51.4846737,12.7027931 60.0263364,11.6218629 C64.5731851,11.046689 69.5481087,10.2880545 75.4089322,9.39058489 C94.1781121,6.51802107 103.557744,5.06355838 103.817233,5.00405764 C110.102826,3.54133095 116.195041,3.77437554 119.48411,3.54133095 C119.48411,3.54133095 99.3893858,-1.63688679 58.2776756,0.529932059" id="Fill-25"></path>
        </g>
    </g>
</svg>