<?xml version="1.0" encoding="UTF-8"?>
<svg width="146px" height="532px" viewBox="0 0 146 532" version="1.1" xmlns="http://www.w3.org/2000/svg" xmlns:xlink="http://www.w3.org/1999/xlink">
    <title>54/lingual  21</title>
    <g id="54/lingual--21" stroke="none" stroke-width="1" fill="none" fill-rule="evenodd" fill-opacity="0.7">
        <g id="Group-17" transform="translate(73.675099, 416.654610) scale(1, -1) translate(-73.675099, -416.654610) translate(30.437465, 365.969837)" fill="#4A90E2">
            <path d="M86.4752692,18.348968 C84.484968,17.310902 83.2606655,16.6582646 81.7221902,15.5878096 C80.0833091,14.446099 79.8646836,14.0687677 78.0816717,12.727865 C76.3342876,11.411254 75.3221328,10.854164 72.8816251,9.34645814 C66.9398714,5.67678962 67.8597177,5.84521218 65.6022076,4.66625424 C64.2969327,3.9860862 62.988419,3.00793978 57.7932307,1.20873336 C53.7316558,-0.196947257 51.9113966,-0.0592942011 50.1850653,0.089694989 C47.995572,0.279170372 45.8044592,0.726137942 44.2821784,1.54719793 C44.2805589,1.54719793 41.7671761,2.19011868 32.7306578,6.35533821 C28.7387192,8.19503082 25.6536713,9.99423723 21.2568707,12.2711807 C19.250375,13.3092467 18.1961146,14.3780822 17.3653379,15.1570366 C15.6827317,16.7376175 14.8746273,17.7578696 13.3410103,18.4477543 C12.2268303,18.9481637 11.1952421,19.0323749 9.70049183,18.706866 C7.18063118,18.1594926 6.40977407,17.4291217 4.23971412,17.4080689 C2.52633844,17.390255 1.14494954,17.9910701 0,18.5951241 L0,42.5370391 L86.4752692,42.5370391 L86.4752692,18.348968 Z" id="Fill-1"></path>
        </g>
    </g>
</svg>