<?xml version="1.0" encoding="UTF-8"?>
<svg width="142px" height="532px" viewBox="0 0 142 532" version="1.1" xmlns="http://www.w3.org/2000/svg" xmlns:xlink="http://www.w3.org/1999/xlink">
    <title>55/buccal   1</title>
    <g id="55/buccal---1" stroke="none" stroke-width="1" fill="none" fill-rule="evenodd" fill-opacity="0.7">
        <g id="Group-35" transform="translate(28.753844, 342.000000)" fill="#4A90E2">
            <path d="M51.4153686,12.7074789 C56.4126177,13.4617608 66.1388352,16.5277266 70.6968268,18.665763 C74.7877598,20.5853832 83.0057673,24.6945915 86.2821278,27.7605573 C88.0502783,29.4169929 91.9049019,35.6018329 91.9049019,35.6018329 C91.9049019,35.6018329 73.3282017,0 43.444791,0 C9.13405394,0 0,27.4471776 0,27.4471776 C0,27.4471776 2.81625221,22.4914372 4.17711643,21.1755138 C6.48877854,18.9398007 12.4813073,16.0122103 15.585301,15.0598616 C20.9801059,13.4047826 34.1550509,12.4863495 34.1550509,12.4863495 C34.1550509,12.4863495 37.2131727,12.4266581 40.8036858,12.4130919 C44.8876685,12.3968124 49.6625088,12.4429376 51.4153686,12.7074789" id="Fill-29"></path>
        </g>
    </g>
</svg>