<?xml version="1.0" encoding="UTF-8" standalone="no"?><!DOCTYPE svg PUBLIC "-//W3C//DTD SVG 1.1//EN" "http://www.w3.org/Graphics/SVG/1.1/DTD/svg11.dtd"><svg width="177px" height="532px" version="1.1" xmlns="http://www.w3.org/2000/svg" xmlns:xlink="http://www.w3.org/1999/xlink" xml:space="preserve" xmlns:serif="http://www.serif.com/" style="fill-rule:evenodd;clip-rule:evenodd;stroke-linejoin:round;stroke-miterlimit:2;"><g id="surfaces"><path id="buccal-4" serif:id="buccal 4" d="M107.713,111.567C108.831,139.413 113.015,180.41 127.99,180.412C127.549,181.5 127.113,182.529 126.686,183.484C122.892,191.977 120.83,196.468 116.047,201.039C113.79,203.196 109.101,207.568 101.683,209.284C96.157,210.564 91.62,209.791 88.65,209.284C86.368,208.896 81.076,207.787 75.35,204.497C68.971,200.829 64.802,195.047 56.467,183.484C54.999,181.448 53.816,179.71 52.809,178.124C66.178,172.406 69.862,136.84 70.771,111.567L107.713,111.567ZM72.144,158.26C72.144,158.26 78.65,200.322 90.372,200.322C102.496,200.322 108.184,158.274 108.184,158.274L72.144,158.26Z" style="fill:rgb(74,144,226);fill-opacity:0.7;"/></g></svg>