<?xml version="1.0" encoding="UTF-8"?>
<svg width="142px" height="532px" viewBox="0 0 142 532" version="1.1" xmlns="http://www.w3.org/2000/svg" xmlns:xlink="http://www.w3.org/1999/xlink">
    <title>55/lingual  22</title>
    <g id="55/lingual--22" stroke="none" stroke-width="1" fill="none" fill-rule="evenodd" fill-opacity="0.7">
        <g id="Group-31" transform="translate(102.444723, 396.451660) scale(-1, -1) translate(-102.444723, -396.451660) translate(68.819880, 365.378435)" fill="#4A90E2">
            <path d="M22.5896607,25.2568392 L22.5896607,0 L2.88341969,0.0267193734 C2.88060713,0.0337507874 2.87638828,0.0421884843 2.87216943,0.0492198983 C-1.85715966,10.0408593 0.527895988,21.0351783 1.18041121,24.0404046 C1.66839135,26.2862383 2.29981233,28.298629 3.04514222,30.2224238 L17.6240761,30.2224238 C20.3663276,30.2224238 22.5896607,27.9990907 22.5896607,25.2568392" id="Fill-21"></path>
            <path d="M66.548655,53.0534253 C66.5472487,53.0590504 66.5458425,53.0646755 66.5444362,53.0703006 C66.5458425,53.0646755 66.5472487,53.0590504 66.548655,53.0534253" id="Fill-23"></path>
            <path d="M64.2325072,62.107074 C64.3576664,61.6612823 64.4772004,61.2211158 64.5981408,60.779543 C64.4772004,61.2211158 64.3576664,61.6612823 64.2325072,62.107074" id="Fill-25"></path>
            <path d="M65.3237827,58.0499481 C65.4475356,57.5718119 65.5726948,57.0922695 65.6908225,56.6197585 C65.5726948,57.0922695 65.4475356,57.5732182 65.3237827,58.0499481" id="Fill-27"></path>
        </g>
    </g>
</svg>