<?xml version="1.0" encoding="UTF-8"?>
<svg width="142px" height="260px" viewBox="0 0 142 260" version="1.1" xmlns="http://www.w3.org/2000/svg" xmlns:xlink="http://www.w3.org/1999/xlink">
    <title>45/occlusal/14</title>
    <g id="45/occlusal/14" stroke="none" stroke-width="1" fill="none" fill-rule="evenodd" fill-opacity="0.7">
        <g id="Group-16" transform="translate(114.406674, 107.470192)" fill="#4A90E2">
            <path d="M26.5415901,9.35721912 C26.023398,5.80865352 25.5909877,2.89032157 24.8277047,0 C19.3971914,4.18230056 11.0115825,10.1642683 4.0124876,13.0861016 C3.58532924,13.2646678 3.17567736,13.4064704 2.76077354,13.5605275 C1.07664916,14.4025897 0,16.1199764 0,18.012428 L0,31.0425088 C0,32.5830799 0.69325702,34.0133602 1.83818149,34.9832198 C8.56767641,38.0188452 16.8710048,44.1478675 22.8074557,48.9026303 C23.8893568,46.1173477 24.601871,43.7767299 25.0430345,42.1591302 C27.1473147,34.4562744 27.3766497,28.3360054 27.4921925,24.6753982 C27.5377094,23.2206089 27.6865146,17.2053788 26.5415901,9.35721912" id="Fill-14"></path>
        </g>
    </g>
</svg>