<?xml version="1.0" encoding="UTF-8"?>
<svg width="142px" height="532px" viewBox="0 0 142 532" version="1.1" xmlns="http://www.w3.org/2000/svg" xmlns:xlink="http://www.w3.org/1999/xlink">
    <title>55/lingual  20</title>
    <g id="55/lingual--20" stroke="none" stroke-width="1" fill="none" fill-rule="evenodd" fill-opacity="0.7">
        <g id="Group-31" transform="translate(58.748083, 411.344918) scale(-1, -1) translate(-58.748083, -411.344918) translate(36.170915, 365.378435)" fill="#4A90E2">
            <path d="M45.1543347,2.07149387 C44.9012038,1.99555459 44.6677609,1.92524045 44.4005671,1.84508233 C41.3404957,0.930998507 38.2002662,-0.00699212621 33.9420419,0 C30.5866511,0.00566441907 28.0272164,0.596303199 25.9459178,1.07584564 C22.1137972,1.96039752 19.2801373,3.16276933 18.1016723,3.69012538 C16.4900722,4.41295474 17.2733717,4.18654321 12.5665432,6.61238106 C9.79335348,8.04116439 8.33081936,8.73305553 5.95279513,10.1491823 C4.47338562,11.0323279 3.71539918,11.4865573 2.87725463,12.1489165 C1.18549641,13.4862914 0.540012599,14.3159983 0,14.8306978 C3.19929339,17.2312225 7.7218989,21.7707035 11.0379138,29.7260453 L45.1543347,29.679638 L45.1543347,2.07149387 Z" id="Fill-3"></path>
            <path d="M11.8043379,82.8399407 C11.8029316,82.8455658 11.8015253,82.851191 11.8001191,82.8568161 C11.8015253,82.851191 11.8029316,82.8455658 11.8043379,82.8399407" id="Fill-23"></path>
            <path d="M9.48819011,91.8935894 C9.61334928,91.4477978 9.73288332,91.0076313 9.85382364,90.5660585 C9.73288332,91.0076313 9.61334928,91.4477978 9.48819011,91.8935894" id="Fill-25"></path>
            <path d="M10.5794656,87.8364635 C10.7032185,87.3583274 10.8283776,86.8787849 10.9465054,86.4062739 C10.8283776,86.8787849 10.7032185,87.3597337 10.5794656,87.8364635" id="Fill-27"></path>
        </g>
    </g>
</svg>