<?xml version="1.0" encoding="UTF-8"?>
<svg width="142px" height="532px" viewBox="0 0 142 532" version="1.1" xmlns="http://www.w3.org/2000/svg" xmlns:xlink="http://www.w3.org/1999/xlink">
    <title>45/buccal/8</title>
    <g id="45/buccal/8" stroke="none" stroke-width="1" fill="none" fill-rule="evenodd">
        <g id="Group-18" transform="translate(70.708028, 179.031356) scale(1, -1) translate(-70.708028, -179.031356) translate(12.030868, 165.691997)"></g>
        <g id="Group-24" transform="translate(114.593103, 111.361860)" fill="#4A90E2" fill-opacity="0.7">
            <path d="M0,26.0203004 L0,0 C1.98012531,0.183473149 3.54310883,0.863708503 5.84517758,1.90569752 C7.39431408,2.60670342 9.1771192,3.41156204 11.1139725,5.01954841 C13.0889052,6.65695972 12.8846615,6.79543002 14.7142004,7.98627461 C16.0088977,8.82921257 17.5338019,9.88158686 19.017165,10.5272046 C20.829395,11.3147545 21.258653,11.3736044 21.8904237,11.963834 C22.8926025,12.8985085 23.5693761,14.548036 24.0367134,16.1577533 C25.1548611,20.0124203 25.026776,18.6813745 26.2020427,22.7402852 C26.6018757,24.1232573 26.897856,25.1462067 27.1038306,26.0203004 L0,26.0203004 Z" id="Fill-17"></path>
        </g>
    </g>
</svg>