<?xml version="1.0" encoding="UTF-8"?>
<svg width="146px" height="260px" viewBox="0 0 146 260" version="1.1" xmlns="http://www.w3.org/2000/svg" xmlns:xlink="http://www.w3.org/1999/xlink">
    <title>44/occlusal  14</title>
    <g id="44/occlusal--14" stroke="none" stroke-width="1" fill="none" fill-rule="evenodd" opacity="0.7">
        <g id="Group-15" transform="translate(106.769229, 165.497306) scale(1, -1) translate(-106.769229, -165.497306) translate(71.308393, 140.532821)" fill="#4A90E2">
            <path d="M0.0103911026,34.4113504 C1.5511565,34.0643776 2.99057835,33.8651259 4.30117367,33.8616905 C13.5852729,33.8359252 28.5806819,47.9931029 38.584492,49.7502969 C38.6154104,49.7537322 38.6463287,49.7571676 38.6789648,49.760603 C39.3162267,49.8688173 39.9380295,49.930654 40.5323493,49.9289712 C47.9716524,49.9048887 62.6063472,39.0594119 70.9216708,32.3758911 C70.6966538,31.2748536 70.4458714,30.2133229 70.1332524,29.1071324 C68.8741877,24.6480165 67.4210243,21.4565537 66.3423168,19.1136284 C65.4697317,17.2173017 65.0196976,16.4529309 64.6194765,15.8397166 C62.9224016,13.2425736 60.861177,11.4905327 58.4169081,9.81063464 C52.1885744,5.52500514 45.9568054,3.41053222 44.4624175,2.91927369 C42.3290501,2.21673964 37.5813627,0.785906218 31.1950018,0.129749716 C27.196226,-0.280777519 27.8833009,0.404579665 16.6753921,0.511076269 C14.880409,0.528253141 11.2595244,0.62616131 5.94156492,0.663950428 C-0.51693886,22.487166 0.0103911026,34.4113504 0.0103911026,34.4113504" id="Fill-5"></path>
        </g>
    </g>
</svg>