<?xml version="1.0" encoding="UTF-8"?>
<svg width="142px" height="260px" viewBox="0 0 142 260" version="1.1" xmlns="http://www.w3.org/2000/svg" xmlns:xlink="http://www.w3.org/1999/xlink">
    <title>45/occlusal/16</title>
    <g id="45/occlusal/16" stroke="none" stroke-width="1" fill="none" fill-rule="evenodd" fill-opacity="0.7">
        <g id="Group-16" transform="translate(2.000000, 104.355787)" fill="#4A90E2">
            <path d="M29.6482422,28.8121819 L29.9493538,17.7900956 C29.9931201,16.2005062 29.2018267,14.7474675 27.9291048,13.8949014 C27.6892659,13.8248755 27.4581803,13.7706054 27.2095881,13.6883249 C26.3692766,13.408221 25.4676923,13.0353328 24.5433496,12.6221796 L24.4540665,12.5941692 L24.5433496,12.6221796 C24.2264821,12.480377 23.9201185,12.3525796 23.5962485,12.1985225 C17.5915223,9.32920874 10.3018197,4.20330835 4.75576349,0 C3.7491403,2.48417099 2.81604436,5.25019647 2.07902111,8.30858035 C1.44878746,10.9222994 1.1039096,14.8805168 0.414153873,22.7952012 C-0.515440767,33.4584045 0.466673345,29.3373766 0.0815305555,47.4390877 C0.0692760122,47.9345214 0.060522767,48.5507499 0.0867825026,49.2492588 C7.15065138,43.5929118 17.3026652,36.0668715 24.7481755,33.0329968 L24.6939054,33.0487526 L24.7481755,33.0329968 C25.6707676,32.6583579 26.5583466,32.3379891 27.3864036,32.113906 C27.5282062,32.0753917 27.6612555,32.0508826 27.8013075,32.0176203 C28.8954631,31.3366178 29.6114786,30.1479271 29.6482422,28.8121819" id="Fill-12"></path>
        </g>
    </g>
</svg>