<?xml version="1.0" encoding="UTF-8" standalone="no"?><!DOCTYPE svg PUBLIC "-//W3C//DTD SVG 1.1//EN" "http://www.w3.org/Graphics/SVG/1.1/DTD/svg11.dtd"><svg width="145px" height="532px" version="1.1" xmlns="http://www.w3.org/2000/svg" xmlns:xlink="http://www.w3.org/1999/xlink" xml:space="preserve" xmlns:serif="http://www.serif.com/" style="fill-rule:evenodd;clip-rule:evenodd;stroke-linejoin:round;stroke-miterlimit:2;"><g id="surfaces"><path id="Buccal-4" serif:id="Buccal 4" d="M90.932,109.422C91.971,135.299 95.86,173.399 109.776,173.401C109.367,174.413 108.962,175.369 108.565,176.257C105.04,184.149 103.123,188.325 98.676,192.571C96.58,194.577 92.222,198.638 85.33,200.235C80.192,201.424 75.977,200.705 73.216,200.235C71.096,199.873 66.177,198.844 60.857,195.785C54.927,192.378 51.054,187.005 43.308,176.257C41.944,174.365 40.843,172.751 39.907,171.277C52.333,165.961 55.757,132.908 56.601,109.422L90.932,109.422ZM57.017,153.749C57.017,153.749 63.453,195.354 75.047,195.354C87.04,195.354 92.666,153.762 92.666,153.762L57.017,153.749Z" style="fill:rgb(74,144,226);fill-opacity:0.7;"/></g></svg>