<?xml version="1.0" encoding="UTF-8" standalone="no"?><!DOCTYPE svg PUBLIC "-//W3C//DTD SVG 1.1//EN" "http://www.w3.org/Graphics/SVG/1.1/DTD/svg11.dtd"><svg width="145px" height="532px" version="1.1" xmlns="http://www.w3.org/2000/svg" xmlns:xlink="http://www.w3.org/1999/xlink" xml:space="preserve" xmlns:serif="http://www.serif.com/" style="fill-rule:evenodd;clip-rule:evenodd;stroke-linejoin:round;stroke-miterlimit:2;"><g transform="matrix(1.99745,0,0,-1.99745,27.1236,91.7175)"><g id="surfaces"><path id="lingual-27" serif:id="lingual 27" d="M0,-12.327C0.102,-10.644 0.3,-9.358 0.335,-9.139C0.735,-6.599 0.964,-7.13 1.3,-4.869C1.386,-4.292 1.472,-3.583 1.961,-2.837C2.396,-2.173 2.954,-1.779 3.333,-1.515C3.675,-1.278 4.274,-0.912 5.264,-0.6C6.546,-0.198 7.604,-0.164 8.466,-0.143C11.837,-0.06 11.901,-0.169 13.294,-0.092C13.741,-0.068 14.101,-0.036 14.411,0C14.314,-4.63 14.102,-8.708 13.806,-12.327L0,-12.327Z" style="fill:rgb(74,144,226);fill-opacity:0.7;fill-rule:nonzero;"/></g></g></svg>