<?xml version="1.0" encoding="UTF-8" standalone="no"?><!DOCTYPE svg PUBLIC "-//W3C//DTD SVG 1.1//EN" "http://www.w3.org/Graphics/SVG/1.1/DTD/svg11.dtd"><svg width="180px" height="532px" version="1.1" xmlns="http://www.w3.org/2000/svg" xmlns:xlink="http://www.w3.org/1999/xlink" xml:space="preserve" xmlns:serif="http://www.serif.com/" style="fill-rule:evenodd;clip-rule:evenodd;stroke-linejoin:round;stroke-miterlimit:2;"><g transform="matrix(2.59139,0,0,2.59139,106.837,95.3571)"><g id="surfaces"><path id="buccal-9" serif:id="buccal 9" d="M0,-8.507C-0.436,-8.848 -0.927,-9.212 -1.512,-9.605C-1.839,-9.825 -2.302,-10.126 -2.962,-10.396C-3.512,-10.621 -4.463,-10.86 -5.783,-10.781C-6.754,-10.723 -7.512,-10.503 -8.238,-10.132C-9.686,-9.395 -10.61,-8.522 -11.008,-8.154C-12.783,-6.513 -12.483,-7.156 -15.888,-4.329C-16.709,-3.648 -17.443,-3.036 -18.143,-2.449C-18.166,-1.145 -18.221,0.573 -18.337,2.529L0.221,2.529C-0.034,-2.015 -0.039,-6.022 0,-8.507" style="fill:rgb(74,144,226);fill-opacity:0.7;fill-rule:nonzero;"/></g></g></svg>