<?xml version="1.0" encoding="UTF-8"?>
<svg width="177px" height="532px" viewBox="0 0 177 532" version="1.1" xmlns="http://www.w3.org/2000/svg" xmlns:xlink="http://www.w3.org/1999/xlink">
    <title>51/buccal 5</title>
    <g id="51/buccal-5" stroke="none" stroke-width="1" fill="none" fill-rule="evenodd" fill-opacity="0.7">
        <g id="Group-21" transform="translate(119.155077, 367.592362)" fill="#4A90E2">
            <path d="M16.5617831,50.5418817 C16.5617831,41.4674856 23.918266,34.1110027 32.9926621,34.1110027 C34.2806931,34.1110027 35.5267054,34.2742287 36.7290831,34.5538138 C36.5092937,32.3753123 36.1796095,29.7523835 35.6737705,26.8207799 C35.0919748,23.4592938 33.4257767,13.9566314 30.3083216,7.3273931 C29.0041297,4.55416713 27.3637891,2.13809904 25.5327489,0 C19.0020926,3.67985754 3.83985135,18.6546313 0,78.7153365 L34.6798695,78.7153365 C34.9432937,76.6661229 35.20995,74.3146988 35.4943835,71.528544 C35.6446807,70.0546617 35.8062906,68.4563397 35.9711327,66.6899434 C35.0030893,66.8677143 34.0108045,66.9727608 32.9926621,66.9727608 C23.918266,66.9727608 16.5617831,59.6162779 16.5617831,50.5418817" id="Fill-13"></path>
        </g>
    </g>
</svg>