<?xml version="1.0" encoding="UTF-8" standalone="no"?><!DOCTYPE svg PUBLIC "-//W3C//DTD SVG 1.1//EN" "http://www.w3.org/Graphics/SVG/1.1/DTD/svg11.dtd"><svg width="145px" height="532px" version="1.1" xmlns="http://www.w3.org/2000/svg" xmlns:xlink="http://www.w3.org/1999/xlink" xml:space="preserve" xmlns:serif="http://www.serif.com/" style="fill-rule:evenodd;clip-rule:evenodd;stroke-linejoin:round;stroke-miterlimit:2;"><g transform="matrix(1.99745,0,0,-1.99745,74.9186,168.432)"><g id="surfaces"><path id="lingual-30" serif:id="lingual 30" d="M0,10.51C-2.577,10.51 -4.666,8.421 -4.666,5.844C-4.666,3.268 -2.577,1.179 0,1.179C2.577,1.179 4.666,3.268 4.666,5.844C4.666,8.421 2.577,10.51 0,10.51M12.999,-11.848C8.808,-15.267 4.001,-15.39 1.411,-15.456C-0.483,-15.504 -6.024,-15.569 -11.498,-11.949C-16.51,-8.635 -18.743,-4.036 -19.846,-1.327C-17.508,-0.857 -12.023,2.802 -10.122,26.079L8.016,26.079C9.402,1.723 14.645,-3.957 17.93,-5.059C17.365,-6.448 15.921,-9.463 12.999,-11.848" style="fill:rgb(74,144,226);fill-opacity:0.7;fill-rule:nonzero;"/></g></g></svg>