<?xml version="1.0" encoding="UTF-8"?>
<svg width="142px" height="260px" viewBox="0 0 142 260" version="1.1" xmlns="http://www.w3.org/2000/svg" xmlns:xlink="http://www.w3.org/1999/xlink">
    <title>45/occlusal/17</title>
    <g id="45/occlusal/17" stroke="none" stroke-width="1" fill="none" fill-rule="evenodd" fill-opacity="0.7">
        <g id="Group-16" transform="translate(73.658000, 70.270650)" fill="#4A90E2">
            <path d="M63.4596694,31.2385815 C62.8101786,29.799548 60.9439867,25.8850967 57.465447,21.5820014 C54.5856294,18.0176799 51.8721234,15.7610933 49.6400458,13.9211612 C47.8123682,12.4173536 45.3719635,10.4286163 41.812894,8.42762448 C39.4792788,7.1146377 36.7500169,5.84541715 32.9878722,4.59720438 C30.7347868,3.84967724 24.9506424,2.06051392 13.0077147,0.76678428 C10.5463021,0.500685626 7.33035981,0.206576587 3.53670334,0 C0.935238868,7.68885059 -1.32309839,19.4269524 0.91248043,34.6663523 C14.462504,34.6663523 27.212481,51.3657935 37.2629571,52.0100324 C39.0171075,52.1220739 41.1353928,51.6493987 43.4409976,50.7985832 C43.5092729,50.7635702 43.5705456,50.719804 43.6388209,50.6882923 C43.5705456,50.719804 43.5092729,50.7635702 43.4409976,50.7985832 C50.6799314,48.1270928 59.7973116,41.6496913 65.5762041,37.1995415 C65.0632639,35.2598223 64.4067705,33.3323577 63.4596694,31.2385815" id="Fill-8"></path>
        </g>
    </g>
</svg>