<?xml version="1.0" encoding="UTF-8"?>
<svg width="146px" height="532px" viewBox="0 0 146 532" version="1.1" xmlns="http://www.w3.org/2000/svg" xmlns:xlink="http://www.w3.org/1999/xlink">
    <title>54/buccal  3</title>
    <g id="54/buccal--3" stroke="none" stroke-width="1" fill="none" fill-rule="evenodd" fill-opacity="0.7">
        <g id="Group-17" transform="translate(18.872020, 346.879236)" fill="#4A90E2">
            <path d="M58.5363435,46.5632672 C53.3389264,46.5632672 49.1248896,42.3492305 49.1248896,37.1518134 C49.1248896,31.9543962 53.3389264,27.7403595 58.5363435,27.7403595 C63.7337606,27.7403595 67.9477974,31.9543962 67.9477974,37.1518134 C67.9477974,42.3492305 63.7337606,46.5632672 58.5363435,46.5632672 M116.109794,37.610409 C114.321113,34.1733057 112.199912,30.3784663 107.959084,22.7919393 C104.591322,16.7640071 104.287167,16.3101392 103.883729,15.75226 C99.2221281,9.29252299 93.6512156,5.93579211 92.0295836,5.00914528 C85.3476405,1.18751506 79.2156969,0.55083934 75.3578202,0.193103232 C66.7280276,-0.609045133 60.2257405,1.12920565 47.5741745,4.63880173 C37.2943832,7.48965908 30.8551333,9.27676369 22.7532772,13.9005423 C18.1231949,16.5418009 11.8557213,20.1948067 6.08151383,27.2360619 C3.21804904,30.7283227 1.51446872,34.70597 0,37.8467985 L7.70472172,37.8467985 C11.8021397,37.8467985 15.1242001,41.1688589 15.1242001,45.2662769 L15.1242001,74.3043629 L99.2757097,74.3043629 L99.2757097,46.4245854 C99.2757097,41.6873399 103.116251,37.8467985 107.853497,37.8467985 L116.232716,37.8467985 C116.190166,37.7648501 116.15392,37.6939333 116.109794,37.610409" id="Fill-1"></path>
        </g>
    </g>
</svg>