<?xml version="1.0" encoding="UTF-8"?>
<svg width="142px" height="260px" viewBox="0 0 142 260" version="1.1" xmlns="http://www.w3.org/2000/svg" xmlns:xlink="http://www.w3.org/1999/xlink">
    <title>45/occlusal/12</title>
    <g id="45/occlusal/12" stroke="none" stroke-width="1" fill="none" fill-rule="evenodd" fill-opacity="0.7">
        <g id="Group-16" transform="translate(70.449773, 140.572805)" fill="#4A90E2">
            <path d="M5.11174947,48.0959903 L5.12575466,48.0959903 C8.75309948,48.2728058 10.920403,47.693341 16.0498047,47.688089 C22.5254555,47.6810864 25.7624056,47.6775851 29.2041816,47.1891541 C37.4497386,46.0179699 43.1726103,43.2747028 44.356049,42.6934873 C46.7579395,41.5135499 50.48157,39.6648645 54.3470031,36.0322677 C58.4452725,32.1825905 60.5215423,28.4151938 62.8394016,24.2101348 C64.5200247,21.1605041 65.7909959,18.3034449 66.7643567,15.8017674 C60.8279058,11.0470046 52.5245774,4.91798232 45.7950825,1.88235689 C43.1428492,0.686663593 40.7269536,-0.045107706 38.8082422,0.00215981806 C29.5683166,0.227993544 18.6145055,14.0196067 4.59705865,14.0196067 C3.48889781,14.0196067 2.38073697,13.9250716 1.27607742,13.7482561 C1.27607742,13.7482561 -3.38590097,30.9536349 5.11174947,48.0959903" id="Fill-1"></path>
        </g>
    </g>
</svg>