<?xml version="1.0" encoding="UTF-8"?>
<svg width="146px" height="532px" viewBox="0 0 146 532" version="1.1" xmlns="http://www.w3.org/2000/svg" xmlns:xlink="http://www.w3.org/1999/xlink">
    <title>44/lingual  29</title>
    <g id="44/lingual--29" stroke="none" stroke-width="1" fill="none" fill-rule="evenodd" opacity="0.7">
        <g id="Group-23" transform="translate(42.568431, 151.123184) rotate(-1.000000) translate(-42.568431, -151.123184) translate(11.920835, 121.496314)" fill="#4A90E2">
            <path d="M56.2233763,28.0953496 C54.5516892,26.3376704 53.5197836,23.9677273 53.5197836,21.3501267 C53.5197836,19.0506971 54.3177906,16.9404502 55.6455091,15.2687631 C55.5784353,9.72743006 55.7486997,4.59713942 56.0531119,2.69990698e-12 L22.0243051,2.69990698e-12 L22.0243051,15.7038833 C22.0243051,19.795389 18.7084484,23.1112456 14.6169427,23.1112456 L2.02526398e-12,23.1112456 C2.38886145,34.0442854 6.24474869,42.7862456 6.24474869,42.7862456 C6.24474869,42.7845258 12.4740188,43.4621438 15.9842176,44.0038942 C19.5649301,44.5576835 22.9461407,45.3780485 29.0705004,47.350708 C38.4763199,50.3827906 43.9454196,52.7768116 50.0714991,55.1123579 C54.3969034,56.761687 57.9672967,58.116923 61.2951923,59.253739 C58.5176464,48.2845826 56.9749475,37.764305 56.2233763,28.0953496" id="Fill-9"></path>
        </g>
    </g>
</svg>