<?xml version="1.0" encoding="UTF-8" standalone="no"?><!DOCTYPE svg PUBLIC "-//W3C//DTD SVG 1.1//EN" "http://www.w3.org/Graphics/SVG/1.1/DTD/svg11.dtd"><svg width="180px" height="532px" version="1.1" xmlns="http://www.w3.org/2000/svg" xmlns:xlink="http://www.w3.org/1999/xlink" xml:space="preserve" xmlns:serif="http://www.serif.com/" style="fill-rule:evenodd;clip-rule:evenodd;stroke-linejoin:round;stroke-miterlimit:2;"><g transform="matrix(2.60653,0,0,-2.60653,27.3791,99.3519)"><g id="surfaces"><path id="lingual-32" serif:id="lingual 32" d="M-0.169,-19.729C-0.341,-19.039 -0.415,-18.775 -0.543,-18.159C-0.695,-17.429 -0.673,-16.271 -0.676,-15.597C-0.13,-15.766 0.215,-15.824 0.817,-15.824C4.046,-15.824 6.664,-13.207 6.664,-9.978C6.664,-7.698 5.577,-5.914 3.673,-4.95C4.559,-3.946 4.797,-3.596 7.216,-1.319C7.783,-0.785 8.215,-0.363 8.576,0L13.694,0C11.399,-14.648 3.282,-18.719 -0.169,-19.729" style="fill:rgb(74,144,226);fill-opacity:0.7;fill-rule:nonzero;"/></g></g></svg>