<?xml version="1.0" encoding="UTF-8"?>
<svg width="145px" height="532px" viewBox="0 0 145 532" version="1.1" xmlns="http://www.w3.org/2000/svg" xmlns:xlink="http://www.w3.org/1999/xlink">
    <title>52/lingual  32</title>
    <g id="52/lingual--32" stroke="none" stroke-width="1" fill="none" fill-rule="evenodd" fill-opacity="0.7">
        <g id="Group-21" transform="translate(34.946068, 397.950856) scale(1, -1) rotate(3.000000) translate(-34.946068, -397.950856) translate(16.780237, 360.336499)" fill="#4A90E2">
            <path d="M36.3316616,-1.67271007e-12 L2.13043405,-1.67271007e-12 C1.28951813,2.72572748 0.81874167,5.11372402 0.407665123,7.26803804 C0.25415106,8.07313401 0.134751233,8.84582146 0.0119399827,9.62362605 C0.46054219,9.58439468 0.91255582,9.55539758 1.3713923,9.55539758 C9.95965128,9.55539758 16.9223669,16.5181132 16.9223669,25.1063722 C16.9223669,33.6963369 9.95965128,40.6590525 1.3713923,40.6590525 C0.907438685,40.6590525 0.45201363,40.6300554 -1.16365815e-12,40.5891183 C0.274619602,43.9732505 0.656699048,46.900252 1.41915223,50.4532497 C2.28394812,54.4872582 3.54446915,60.1689842 6.98659559,66.8161431 C8.25223375,69.2621339 9.80784293,72.2334839 12.2606565,75.2287138 C30.4844815,70.1934525 35.1444862,36.3862444 36.3316616,-1.67271007e-12" id="Fill-3"></path>
        </g>
    </g>
</svg>