<?xml version="1.0" encoding="UTF-8"?>
<svg width="146px" height="532px" viewBox="0 0 146 532" version="1.1" xmlns="http://www.w3.org/2000/svg" xmlns:xlink="http://www.w3.org/1999/xlink">
    <title>54/buccal   7</title>
    <g id="54/buccal---7" stroke="none" stroke-width="1" fill="none" fill-rule="evenodd" fill-opacity="0.7">
        <g id="Group-17" transform="translate(33.996220, 421.183599)" fill="#4A90E2">
            <path d="M0,0 L0,26.4866553 C1.83595844,27.5314969 3.65142979,28.655135 5.11231689,29.8575696 C6.6315134,31.108858 11.1008508,30.7511219 11.0992749,30.7511219 L13.1558636,30.2153057 C13.1558636,30.2153057 16.1044286,28.6062812 18.3721918,29.9899477 C19.763738,30.837798 19.7385231,31.6289149 21.3365161,33.3246156 C23.2355118,35.3386541 25.2889485,36.1077079 27.6339324,37.028051 C32.7352177,39.032634 37.7340677,41.2909417 42.8227456,43.3270432 C51.7015352,46.8791894 52.6108468,47.6608507 55.419154,47.4796187 C57.8413584,47.3220257 60.2446516,46.1148634 65.0512381,43.6973868 C70.9436403,40.7330624 74.1081078,39.1413732 77.6460706,35.9170204 C81.5102509,32.3963928 81.9672706,31.5422387 84.1515096,30.2941022 L84.1515096,0 L0,0 Z" id="Fill-5"></path>
        </g>
    </g>
</svg>