<?xml version="1.0" encoding="UTF-8"?>
<svg width="177px" height="532px" viewBox="0 0 177 532" version="1.1" xmlns="http://www.w3.org/2000/svg" xmlns:xlink="http://www.w3.org/1999/xlink">
    <title>51/lingual  31</title>
    <g id="51/lingual--31" stroke="none" stroke-width="1" fill="none" fill-rule="evenodd" fill-opacity="0.7">
        <g id="Group-21" transform="translate(90.003585, 397.123143) scale(1, -1) translate(-90.003585, -397.123143) translate(32.805557, 348.053429)" fill="#4A90E2">
            <path d="M61.5543562,51.7780761 C55.5088391,51.7780761 50.606151,46.8770045 50.606151,40.8298709 C50.606151,34.7843538 55.5088391,29.8832821 61.5543562,29.8832821 C67.5998733,29.8832821 72.5025614,34.7843538 72.5025614,40.8298709 C72.5025614,46.8770045 67.5998733,51.7780761 61.5543562,51.7780761 M88.8998143,0 L32.1172139,0 C29.385416,29.5616089 21.6878886,71.2966909 0,71.7848583 C6.00833881,80.5039812 14.3977062,84.6663359 22.5543049,88.7106898 C27.8190775,91.3196376 41.0206118,97.200277 59.4141785,97.9244459 C71.2724442,98.3932159 87.3641883,99.0268637 102.075485,88.7106898 C104.559967,86.9681584 109.855452,83.156573 114.396055,76.7958485 C93.3854587,74.5829306 89.5932707,34.5321878 88.8998143,0" id="Fill-9"></path>
        </g>
    </g>
</svg>