<?xml version="1.0" encoding="UTF-8"?>
<svg width="142px" height="532px" viewBox="0 0 142 532" version="1.1" xmlns="http://www.w3.org/2000/svg" xmlns:xlink="http://www.w3.org/1999/xlink">
    <title>55/lingual  23</title>
    <g id="55/lingual--23" stroke="none" stroke-width="1" fill="none" fill-rule="evenodd" fill-opacity="0.7">
        <g id="Group-31" transform="translate(99.676537, 394.438566) scale(-1, -1) translate(-99.676537, -394.438566) translate(66.330056, 361.291777)" fill="#4A90E2">
            <path d="M58.5294905,25.216057 C58.5294905,20.6245437 62.152075,16.8894565 66.6929622,16.6855455 C66.0348219,9.92695035 64.5793192,4.42416572 62.7356824,0 L19.5431122,0.059063878 L19.5431122,25.3159031 C19.5431122,28.0581546 17.3211854,30.2814877 14.5789339,30.2814877 L0,30.2814877 C1.3415938,33.7451623 3.06288396,36.9078923 5.0555867,40.5543836 C7.53626957,45.0952708 9.35318696,48.4183171 11.9759044,51.3194785 C14.7870637,54.4301761 19.1507593,57.7490036 41.8101942,62.7005253 C49.4280282,64.3641579 54.8267479,65.5299663 59.9878058,66.2935779 C63.7960196,53.6904714 65.8520051,42.9267827 66.662024,33.7451623 C62.1351996,33.5257822 58.5294905,29.7977264 58.5294905,25.216057" id="Fill-1"></path>
            <path d="M58.5294905,25.216057 C58.5294905,20.6245437 62.152075,16.8894565 66.6929622,16.6855455 C66.0348219,9.92695035 64.5793192,4.42416572 62.7356824,0 L19.5431122,0.059063878 L19.5431122,25.3159031 C19.5431122,28.0581546 17.3211854,30.2814877 14.5789339,30.2814877 L0,30.2814877 C1.3415938,33.7451623 3.06288396,36.9078923 5.0555867,40.5543836 C7.53626957,45.0952708 9.35318696,48.4183171 11.9759044,51.3194785 C14.7870637,54.4301761 19.1507593,57.7490036 41.8101942,62.7005253 C49.4280282,64.3641579 54.8267479,65.5299663 59.9878058,66.2935779 C63.7960196,53.6904714 65.8520051,42.9267827 66.662024,33.7451623 C62.1351996,33.5257822 58.5294905,29.7977264 58.5294905,25.216057" id="Fill-17"></path>
            <path d="M63.5021065,53.1138954 C63.5007002,53.1195205 63.499294,53.1251457 63.4978877,53.1307708 C63.499294,53.1251457 63.5007002,53.1195205 63.5021065,53.1138954" id="Fill-23"></path>
            <path d="M61.1859587,62.1675441 C61.3111179,61.7217525 61.4306519,61.281586 61.5515923,60.8400132 C61.4306519,61.281586 61.3111179,61.7217525 61.1859587,62.1675441" id="Fill-25"></path>
            <path d="M62.2772342,58.1104182 C62.4009871,57.6322821 62.5261463,57.1527396 62.644274,56.6802286 C62.5261463,57.1527396 62.4009871,57.6336884 62.2772342,58.1104182" id="Fill-27"></path>
        </g>
    </g>
</svg>