<?xml version="1.0" encoding="UTF-8"?>
<svg width="180px" height="532px" viewBox="0 0 180 532" version="1.1" xmlns="http://www.w3.org/2000/svg" xmlns:xlink="http://www.w3.org/1999/xlink">
    <title>53/lingual   29</title>
    <g id="53/lingual---29" stroke="none" stroke-width="1" fill="none" fill-rule="evenodd" fill-opacity="0.7">
        <g id="Group-21" transform="translate(138.585051, 414.910791) scale(1, -1) translate(-138.585051, -414.910791) translate(113.243616, 379.879604)" fill="#4A90E2">
            <path d="M50.6600903,52.9853613 C48.2597467,53.9415476 45.6480149,54.4828596 42.905894,54.4828596 C31.3111481,54.4828596 21.9112842,45.0829957 21.9112842,33.4882498 C21.9112842,23.8374858 28.4287602,15.7296587 37.29719,13.2739986 C36.2283951,12.1400092 35.058845,10.9566299 33.7312476,9.68632463 C28.6895383,4.86390603 24.262238,1.51132742 22.2016961,0 L0,0 C4.70783431,58.8252095 33.6166633,68.507583 44.5752687,70.0623734 C47.9693348,65.2794666 49.9508529,61.8241573 50.5217989,57.0116166 C50.6897241,55.5951176 50.7075045,54.2951784 50.6600903,52.9853613" id="Fill-15"></path>
        </g>
    </g>
</svg>