<?xml version="1.0" encoding="UTF-8"?>
<svg width="146px" height="260px" viewBox="0 0 146 260" version="1.1" xmlns="http://www.w3.org/2000/svg" xmlns:xlink="http://www.w3.org/1999/xlink">
    <title>54/occlusal 14</title>
    <g id="54/occlusal-14" stroke="none" stroke-width="1" fill="none" fill-rule="evenodd" fill-opacity="0.7">
        <g id="Group-24" transform="translate(26.535403, 104.284817)" fill="#4A90E2">
            <path d="M27.098277,22.5630925 C32.5361025,23.4115164 41.8130825,29.5028773 47.2977984,29.0383689 C53.0741142,28.5504153 62.5049535,22.1147027 68.2842,22.5630925 C73.6941842,22.9821758 85.005037,25.1655118 90.1116987,27.7107834 C84.4731236,23.6855324 84.2489287,3.97689525 89.9212063,0 C84.9786611,2.87496996 73.6047993,7.47169819 67.9046805,7.02330838 C62.3979847,6.58957183 52.8206128,0.783949506 47.2977984,0.896779622 C41.716371,1.01107506 32.4174111,6.30969453 26.9077846,7.21233545 C22.1381479,7.99481963 11.397307,6.53095878 6.93245815,4.67878649 C5.17553207,3.94905405 2.90281116,2.48958918 0.423479266,0.649139497 C6.13678604,5.99904538 6.73610445,27.4294407 0.350212957,31.954368 C0.244709472,32.030565 0.120156747,32.1199498 0,32.2049388 C2.72404137,30.2985494 5.20337326,28.6573841 6.93245815,27.7107834 C11.4969492,25.2138676 21.9579128,21.7600938 27.098277,22.5630925" id="Fill-10"></path>
        </g>
    </g>
</svg>