<?xml version="1.0" encoding="UTF-8"?>
<svg width="145px" height="532px" viewBox="0 0 145 532" version="1.1" xmlns="http://www.w3.org/2000/svg" xmlns:xlink="http://www.w3.org/1999/xlink">
    <title>52/lingual  34</title>
    <g id="52/lingual--34" stroke="none" stroke-width="1" fill="none" fill-rule="evenodd" fill-opacity="0.7">
        <g id="Group-21" transform="translate(63.851078, 348.812084) scale(1, -1) rotate(3.000000) translate(-63.851078, -348.812084) translate(21.954531, 332.462837)" fill="#4A90E2">
            <path d="M62.5382179,23.4637717 C44.6111868,25.3963432 31.0831864,20.7585128 22.5580387,17.7274629 C13.8503799,14.6333016 9.64068317,11.81376 6.36401077,8.45009632 C5.70219459,7.77122302 5.1120183,7.08723258 4.55254483,6.40494786 C2.75984171,4.21481389 1.45326646,2.04173704 0.382079446,0.073345608 L6.9701364e-13,-3.67420271e-13 C6.9701364e-13,-3.67420271e-13 14.6691216,32.6984955 45.7778936,32.6984955 C76.88496,32.6984955 83.7930928,16.3782448 83.7930928,16.3782448 C79.0239226,21.68642 72.2368953,22.4181704 62.5382179,23.4637717" id="Fill-19"></path>
        </g>
    </g>
</svg>