<?xml version="1.0" encoding="UTF-8"?>
<svg width="146px" height="532px" viewBox="0 0 146 532" version="1.1" xmlns="http://www.w3.org/2000/svg" xmlns:xlink="http://www.w3.org/1999/xlink">
    <title>44/lingual  24</title>
    <g id="44/lingual--24" stroke="none" stroke-width="1" fill="none" fill-rule="evenodd" opacity="0.7">
        <g id="Group-23" transform="translate(21.467128, 108.457930) rotate(-1.000000) translate(-21.467128, -108.457930) translate(9.736941, 95.057776)" fill="#4A90E2">
            <path d="M23.4603737,-3.18233679e-12 C22.1223361,0.682777535 20.5813571,1.58569493 18.9406272,2.78098558 C16.581003,4.50082823 16.5655245,4.96518575 14.6805769,5.97645323 C12.7732714,6.99975961 11.9460271,6.97740166 9.65863636,8.26040428 C7.86140078,9.26651223 6.96192307,9.77042613 6.15875655,10.6939816 C4.79492133,12.2624781 5.01506119,13.3029829 3.2659812,16.6291586 C2.49205201,18.1030638 2.26159309,18.2578496 1.7456403,19.215802 C0.546909965,21.4412784 0.19434222,23.5859222 2.1462262e-12,26.8003081 L23.4603737,26.8003081 L23.4603737,-3.18233679e-12 Z" id="Fill-5"></path>
        </g>
    </g>
</svg>