<?xml version="1.0" encoding="UTF-8"?>
<svg width="142px" height="532px" viewBox="0 0 142 532" version="1.1" xmlns="http://www.w3.org/2000/svg" xmlns:xlink="http://www.w3.org/1999/xlink">
    <title>55/lingual  27</title>
    <g id="55/lingual--27" stroke="none" stroke-width="1" fill="none" fill-rule="evenodd" fill-opacity="0.7">
        <g id="Group-31" transform="translate(40.178821, 396.524084) scale(-1, -1) translate(-40.178821, -396.524084) translate(8.000258, 365.378435)" fill="#4A90E2">
            <path d="M36.1864692,0.0379696358 L36.1864692,23.8561816 C36.1864692,27.4520467 39.1002872,30.3658647 42.6961524,30.3658647 L57.9515083,30.3658647 C58.2651093,29.3111526 58.7671523,27.3761074 59.9301482,22.4892747 C61.1817399,17.2339958 61.3125242,14.9839433 61.5754991,13.1121809 C61.8005043,11.5202688 61.9622268,9.76522783 62.6527117,7.26766956 C63.1041285,5.63356893 63.4978877,4.70682856 63.7285181,4.03743794 C64.1883725,2.70850069 64.3500951,1.34018752 64.3571265,0 L36.1864692,0.0379696358 Z" id="Fill-11"></path>
            <path d="M2.83647243,53.1982724 C2.83506614,53.2038975 2.83365986,53.2095226 2.83225358,53.2151478 C2.83365986,53.2095226 2.83506614,53.2038975 2.83647243,53.1982724" id="Fill-23"></path>
            <path d="M0.520324639,62.2519211 C0.645483809,61.8061295 0.765017848,61.3659629 0.88595817,60.9243901 C0.765017848,61.3659629 0.645483809,61.8061295 0.520324639,62.2519211" id="Fill-25"></path>
            <path d="M1.6116001,58.1947952 C1.73535299,57.716659 1.86051216,57.2371166 1.97863991,56.7646056 C1.86051216,57.2371166 1.73535299,57.7180653 1.6116001,58.1947952" id="Fill-27"></path>
        </g>
    </g>
</svg>