<?xml version="1.0" encoding="UTF-8" standalone="no"?><!DOCTYPE svg PUBLIC "-//W3C//DTD SVG 1.1//EN" "http://www.w3.org/Graphics/SVG/1.1/DTD/svg11.dtd"><svg width="177px" height="532px" version="1.1" xmlns="http://www.w3.org/2000/svg" xmlns:xlink="http://www.w3.org/1999/xlink" xml:space="preserve" xmlns:serif="http://www.serif.com/" style="fill-rule:evenodd;clip-rule:evenodd;stroke-linejoin:round;stroke-miterlimit:2;"><g transform="matrix(1.9978,0,0,-1.9978,40.2948,92.8285)"><g id="surfaces"><path id="lingual-27" serif:id="lingual 27" d="M0,-13.115C0.109,-11.325 0.319,-9.956 0.356,-9.723C0.782,-7.021 1.026,-7.586 1.383,-5.181C1.475,-4.566 1.566,-3.812 2.086,-3.018C2.549,-2.312 3.143,-1.892 3.546,-1.612C3.91,-1.359 4.547,-0.97 5.601,-0.638C6.965,-0.21 8.09,-0.174 9.008,-0.152C12.594,-0.064 12.663,-0.179 14.144,-0.098C14.62,-0.072 15.003,-0.038 15.332,0C15.229,-4.926 15.004,-9.264 14.689,-13.115L0,-13.115Z" style="fill:rgb(74,144,226);fill-opacity:0.7;fill-rule:nonzero;"/></g></g></svg>