<?xml version="1.0" encoding="UTF-8"?>
<svg width="180px" height="532px" viewBox="0 0 180 532" version="1.1" xmlns="http://www.w3.org/2000/svg" xmlns:xlink="http://www.w3.org/1999/xlink">
    <title>53/lingual   26</title>
    <g id="53/lingual---26" stroke="none" stroke-width="1" fill="none" fill-rule="evenodd" fill-opacity="0.7">
        <g id="Group-21" transform="translate(87.603403, 467.942581) scale(1, -1) translate(-87.603403, -467.942581) translate(61.963190, 449.940002)" fill="#4A90E2">
            <path d="M0,36.0051583 L51.280426,36.0051583 C50.8517226,30.6434032 50.6047737,24.910237 50.6107005,18.7009532 C46.4007152,14.9078178 42.9454058,11.5117761 42.9454058,11.5117761 C38.5674953,7.20696248 37.4097987,5.71143979 34.2488525,3.62521527 C31.9472885,2.10598548 29.7701868,0.701339999 26.563802,0.187686235 C23.2606131,-0.34177226 20.6192474,0.351660321 18.2702693,0.995703117 C15.3404672,1.79976882 13.3510467,2.82707634 9.3722056,5.0417143 C4.69005398,7.64751936 2.73026731,8.84670334 0.683554624,10.0498385 C0.683554624,13.5407085 0.647993979,16.9683596 0.582799463,20.3011823 C0.474141936,25.8407406 0.276582796,31.0661798 0,36.0051583" id="Fill-1"></path>
        </g>
    </g>
</svg>