<?xml version="1.0" encoding="UTF-8"?>
<svg width="180px" height="532px" viewBox="0 0 180 532" version="1.1" xmlns="http://www.w3.org/2000/svg" xmlns:xlink="http://www.w3.org/1999/xlink">
    <title>53/lingual   32</title>
    <g id="53/lingual---32" stroke="none" stroke-width="1" fill="none" fill-rule="evenodd" fill-opacity="0.7">
        <g id="Group-21" transform="translate(36.810948, 408.505241) scale(1, -1) translate(-36.810948, -408.505241) translate(11.656730, 367.070481)" fill="#4A90E2">
            <path d="M50.308435,0 L10.5081707,0 C7.77197657,3.83264732 6.02357818,7.02717861 5.67982527,7.66331904 C4.78290678,9.32479141 3.98871904,10.9586055 3.27157936,12.5548833 C3.68645355,12.5311762 4.09737656,12.4916644 4.52015312,12.4916644 C16.114899,12.4916644 25.5147629,21.8915283 25.5147629,33.4862742 C25.5147629,45.0810201 16.114899,54.480884 4.52015312,54.480884 C2.96536269,54.480884 1.45798645,54.3011052 0,53.9810594 C0.742822366,55.4568262 1.60615581,57.0827379 2.64729248,59.0326466 C4.87575957,63.2090468 6.42857441,66.119093 9.1193299,69.7522055 C10.9467519,72.2197192 12.4679573,73.8989719 14.1748683,77.2357458 C15.6387815,80.0983777 15.563709,80.904419 16.6008945,82.8582789 C16.6008945,82.8582789 45.5255282,85.7228864 50.308435,0" id="Fill-7"></path>
        </g>
    </g>
</svg>