<?xml version="1.0" encoding="UTF-8"?>
<svg width="142px" height="532px" viewBox="0 0 142 532" version="1.1" xmlns="http://www.w3.org/2000/svg" xmlns:xlink="http://www.w3.org/1999/xlink">
    <title>55/buccal   10</title>
    <g id="55/buccal---10" stroke="none" stroke-width="1" fill="none" fill-rule="evenodd" fill-opacity="0.7">
        <g id="Group-35" transform="translate(12.972545, 355.237918)" fill="#4A90E2">
            <path d="M0,65.1354953 C0.0583823262,65.4420919 0.118154708,65.7473318 0.176537034,66.0064466 C0.624134868,68.0033943 2.24771956,71.8222854 3.29304121,73.5913206 C3.65306555,74.1990873 4.73452864,75.3861316 5.01670989,75.8351735 C5.68532653,76.896052 6.40815533,79.3393283 7.10596313,80.3825707 C8.36396325,82.2642055 11.7404078,85.3844362 13.3723328,86.9689708 C15.1418733,88.6864544 18.2166758,91.3956286 21.0190275,93.634055 L21.0190275,65.1354953 L0,65.1354953 Z" id="Fill-13"></path>
            <path d="M51.6975498,14.6298124 C51.7350813,14.4751574 51.7726128,14.3191459 51.8115344,14.1672042 C51.7726128,14.3205025 51.7350813,14.4751574 51.6975498,14.6298124" id="Fill-15"></path>
            <path d="M53.8771567,6.80210304 C53.9202484,6.66508421 53.9633401,6.52942201 54.0050418,6.39511642 C53.9633401,6.53077863 53.9202484,6.66508421 53.8771567,6.80210304" id="Fill-17"></path>
            <path d="M54.6333468,4.47413958 C54.6569778,4.40495185 54.6792186,4.34119061 54.7028496,4.27335951 C54.6792186,4.34119061 54.6569778,4.40495185 54.6333468,4.47413958" id="Fill-19"></path>
            <path d="M53.1710085,9.12870989 C53.1904693,9.06359203 53.20854,8.99576092 53.2280008,8.93199969 C53.20854,8.99576092 53.1904693,9.06359203 53.1710085,9.12870989" id="Fill-21"></path>
            <path d="M55.2769425,2.62777694 C55.3089137,2.53959651 55.340885,2.44734621 55.3728563,2.3605224 C55.340885,2.44734621 55.3089137,2.53959651 55.2769425,2.62777694" id="Fill-23"></path>
            <path d="M52.4467897,11.7103617 C52.4829311,11.5774127 52.5190726,11.4485336 52.553824,11.3169413 C52.5190726,11.4485336 52.4829311,11.5774127 52.4467897,11.7103617" id="Fill-25"></path>
            <path d="M55.9413889,0.824826216 C55.9789204,0.725792806 56.0164519,0.629472639 56.0539834,0.53179585 C56.0164519,0.629472639 55.9789204,0.724436184 55.9413889,0.824826216" id="Fill-27"></path>
        </g>
    </g>
</svg>