<?xml version="1.0" encoding="UTF-8"?>
<svg width="142px" height="532px" viewBox="0 0 142 532" version="1.1" xmlns="http://www.w3.org/2000/svg" xmlns:xlink="http://www.w3.org/1999/xlink">
    <title>45/lingual/21</title>
    <g id="45/lingual/21" stroke="none" stroke-width="1" fill="none" fill-rule="evenodd" fill-opacity="0.7">
        <g id="Group-26" transform="translate(29.552113, 116.322763)" fill="#4A90E2">
            <path d="M46.8584019,9.33938533 C43.8684978,7.76098585 41.5284185,7.4413999 38.2455606,6.13109751 C33.881437,4.38935409 34.2862458,3.46255484 29.6344948,1.74034168 C26.5256337,0.589832261 24.4678553,0.309306818 23.7239302,0.220532943 C21.9218206,0.00747564461 19.6154753,-0.265947889 16.9682384,0.557873667 C16.1195601,0.822419813 16.0432146,0.948478715 12.2401418,3.09148005 C8.71049257,5.08001483 8.99101801,4.85097824 6.16090689,6.46843823 C2.92953786,8.31493482 1.37599506,9.36424202 0.925023773,9.5080557 C0.688885266,9.58440123 0.379952183,9.68560345 0,9.8311926 L0,27.9517159 L45.7114435,27.9517159 C46.8193414,20.2656738 47.9805037,14.0799102 48.7315307,10.3709378 C48.2379479,10.0708821 47.6591423,9.76194898 46.8584019,9.33938533" id="Fill-13"></path>
        </g>
    </g>
</svg>