<?xml version="1.0" encoding="UTF-8"?>
<svg width="146px" height="260px" viewBox="0 0 146 260" version="1.1" xmlns="http://www.w3.org/2000/svg" xmlns:xlink="http://www.w3.org/1999/xlink">
    <title>54/occlusal  12</title>
    <g id="54/occlusal--12" stroke="none" stroke-width="1" fill="none" fill-rule="evenodd" fill-opacity="0.7">
        <g id="Group-24" transform="translate(22.498429, 72.709449)" fill="#4A90E2">
            <path d="M4.46045289,32.2245074 C3.02443323,31.1592153 1.5166126,29.9620438 0,28.7106552 C0.0805929399,28.6505769 0.16118588,28.5890332 0.240313493,28.5289548 C5.60194198,24.4905158 9.86604117,21.5115077 12.9608101,19.4278139 C19.1122494,15.2824061 19.9152481,15.1519921 26.8213304,10.3647715 C34.8351993,4.80971992 36.1803687,3.30629526 40.4166267,1.83364245 C47.4545883,-0.610521618 53.8741823,0.0181033131 55.8772832,0.234971588 C56.9118035,0.346336377 60.0461362,1.11123664 66.2723071,2.63371054 C73.0084116,4.28073717 76.4284829,5.12036907 79.0675353,5.83251759 C85.5706529,7.58944368 88.8837554,8.49648059 91.8627635,9.83139274 C94.1091085,10.8380718 97.7138109,12.4821678 101.725874,15.6956281 C102.398459,16.2348681 104.89684,18.2907208 107.72785,21.6829509 C107.751295,21.7107921 107.776206,21.7386333 107.799651,21.7679398 C103.021222,25.3799688 97.0251076,29.7920659 93.9596453,31.5753679 C89.0171001,34.4503379 77.6432383,39.0470661 71.9431194,38.597211 C66.4364236,38.1634744 56.8575864,32.3593174 51.334772,32.4721475 C45.7533446,32.586443 36.45585,37.8835971 30.9462236,38.7877034 C26.1751215,39.5687222 15.4342806,38.1063267 10.9694318,36.2526891 C9.21250569,35.524422 6.93978479,34.0634918 4.46045289,32.2245074" id="Fill-2"></path>
        </g>
    </g>
</svg>