<?xml version="1.0" encoding="UTF-8"?>
<svg width="146px" height="532px" viewBox="0 0 146 532" version="1.1" xmlns="http://www.w3.org/2000/svg" xmlns:xlink="http://www.w3.org/1999/xlink">
    <title>44/buccal 5</title>
    <g id="44/buccal-5" stroke="none" stroke-width="1" fill="none" fill-rule="evenodd" opacity="0.7">
        <g id="Group-27" transform="translate(55.308850, 106.627178) scale(1, -1) rotate(-3.000000) translate(-55.308850, -106.627178) translate(39.246954, 92.397410)" fill="#4A90E2">
            <path d="M23.1457904,3.64506061e-12 L-4.65133085e-12,3.64506061e-12 L-4.65133085e-12,28.4595376 C0.565257092,28.3504529 1.09580541,28.234757 1.53875542,28.1322835 C2.03790057,28.0165876 3.75846382,27.5984296 5.92528267,26.6695568 C7.96483604,25.7968792 7.95657205,25.5175563 10.3118099,24.3721669 C12.3811137,23.3656126 14.0454818,22.5573941 16.3693165,22.074777 C18.0419486,21.7276893 20.5475911,21.4483663 20.5475911,21.4483663 C20.5475911,21.4483663 23.3573486,21.5376174 24.9341184,21.6566189 C26.9571438,21.8086764 27.849655,22.074777 31.827941,22.9094402 C31.9337201,22.9325794 32.0229712,22.9507602 32.1237919,22.9722465 C31.2643367,16.5610411 30.8775818,10.6010497 30.8577483,5.09392502 C27.4678585,4.90385319 24.5754611,2.88413341 23.1457904,3.64506061e-12" id="Fill-13"></path>
        </g>
    </g>
</svg>