<?xml version="1.0" encoding="UTF-8"?>
<svg width="180px" height="532px" viewBox="0 0 180 532" version="1.1" xmlns="http://www.w3.org/2000/svg" xmlns:xlink="http://www.w3.org/1999/xlink">
    <title>53/lingual  30</title>
    <g id="53/lingual--30" stroke="none" stroke-width="1" fill="none" fill-rule="evenodd" fill-opacity="0.7">
        <g id="Group-21" transform="translate(93.038255, 396.211754) scale(1, -1) translate(-93.038255, -396.211754) translate(28.257625, 342.483507)" fill="#4A90E2">
            <path d="M0,82.8582789 C1.67925269,86.0251519 4.0894742,88.079767 8.09004678,90.7863272 C16.7056009,96.6103706 24.4716507,99.8859012 24.4716507,99.8859012 C30.7718116,102.545047 36.9909734,105.166657 45.7072826,106.561424 C56.3221352,108.258458 64.5978876,107.165955 70.3804436,106.357939 C76.5758982,105.49263 86.4538552,104.028716 97.8866027,98.3488911 C101.154231,96.7249549 115.51678,89.3066092 127.008795,73.5947308 C127.945226,72.3145476 128.778925,71.1647534 129.56126,70.0623734 C118.602654,68.507583 89.6938251,58.8252095 84.9879664,0 L33.7075405,0 C28.9246337,85.7228864 0,82.8582789 0,82.8582789 M56.4801825,74.7662565 C47.6196551,74.7662565 40.4344292,67.5830062 40.4344292,58.7205032 C40.4344292,49.8599757 47.6196551,42.6767254 56.4801825,42.6767254 C65.3407099,42.6767254 72.5259359,49.8599757 72.5259359,58.7205032 C72.5259359,67.5830062 65.3407099,74.7662565 56.4801825,74.7662565" id="Fill-5"></path>
        </g>
    </g>
</svg>