<?xml version="1.0" encoding="UTF-8"?>
<svg width="177px" height="260px" viewBox="0 0 177 260" version="1.1" xmlns="http://www.w3.org/2000/svg" xmlns:xlink="http://www.w3.org/1999/xlink">
    <title>51/incisal  12</title>
    <g id="51/incisal--12" stroke="none" stroke-width="1" fill="none" fill-rule="evenodd" fill-opacity="0.7">
        <g id="Group-30" transform="translate(30.388654, 76.302184)" fill="#4A90E2">
            <path d="M95.1926197,36.4547948 C68.0927186,34.4001973 42.5661435,35.2428221 19.1325398,37.8410485 C12.2940079,33.093889 4.56168611,28.7688414 0,26.4536218 C0.636365605,25.6125959 1.31430283,24.753982 2.0737844,23.8729834 C5.56100395,19.8341404 8.71884835,17.4885415 15.0329382,12.7957449 C19.0270118,9.82657174 21.0896038,8.31080643 24.2298602,6.73268369 C28.553309,4.56296478 32.224403,3.57483929 35.3086976,2.76259375 C40.1725774,1.48026908 43.9300125,1.02937687 47.0143071,0.671221356 C53.6737613,-0.101051475 58.7870708,-0.0322984076 63.3167788,0.044449203 C67.4307705,0.114801179 70.1441183,0.161169527 73.978301,0.671221356 C80.0605491,1.4834669 84.2225081,2.83294572 85.2649965,3.17990888 C87.1117359,3.79388976 89.4845162,4.59494295 92.372145,6.10591153 C96.1023987,8.05977779 98.4815746,10.0568146 103.241525,14.0492892 C105.745416,16.1502551 107.748849,17.9937966 109.302988,19.4839794 C110.50057,20.6335947 111.479102,21.5737529 112.324925,22.4147788 C106.353001,26.3145168 99.9557683,31.3798591 95.1926197,36.4547948 M30.0626786,32.6126176 L85.7142898,32.6030241 C85.7142898,32.6030241 76.9314851,1.8384246 58.2098648,1.8384246 C40.11022,1.8384246 30.0626786,32.6126176 30.0626786,32.6126176" id="Fill-10"></path>
        </g>
    </g>
</svg>