<?xml version="1.0" encoding="UTF-8" standalone="no"?><!DOCTYPE svg PUBLIC "-//W3C//DTD SVG 1.1//EN" "http://www.w3.org/Graphics/SVG/1.1/DTD/svg11.dtd"><svg width="180px" height="532px" version="1.1" xmlns="http://www.w3.org/2000/svg" xmlns:xlink="http://www.w3.org/1999/xlink" xml:space="preserve" xmlns:serif="http://www.serif.com/" style="fill-rule:evenodd;clip-rule:evenodd;stroke-linejoin:round;stroke-miterlimit:2;"><g transform="matrix(2.60653,0,0,-2.60653,86.503,171.758)"><g id="surfaces"><path id="lingual-30" serif:id="lingual 30" d="M0,18.011C-2.577,18.011 -4.666,15.922 -4.666,13.345C-4.666,10.769 -2.577,8.68 0,8.68C2.577,8.68 4.666,10.769 4.666,13.345C4.666,15.922 2.577,18.011 0,18.011M9.988,-6.646C8.18,-7.639 4.177,-9.767 -1.091,-9.284C-4.889,-8.936 -7.597,-7.392 -9.136,-6.514C-12.165,-4.788 -14.197,-2.688 -15.204,-1.634C-15.995,-0.806 -16.489,-0.191 -17.446,1.004C-20.103,4.322 -21.95,6.266 -22.852,8.05C-19.401,9.059 -11.284,13.131 -8.989,27.778L10.093,27.778C11.047,6.938 15.051,0.782 17.055,-0.944C15.003,-4.217 11.673,-5.722 9.988,-6.646" style="fill:rgb(74,144,226);fill-opacity:0.7;fill-rule:nonzero;"/></g></g></svg>