<?xml version="1.0" encoding="UTF-8"?>
<svg width="142px" height="260px" viewBox="0 0 142 260" version="1.1" xmlns="http://www.w3.org/2000/svg" xmlns:xlink="http://www.w3.org/1999/xlink">
    <title>55/occlusal 15</title>
    <g id="55/occlusal-15" stroke="none" stroke-width="1" fill="none" fill-rule="evenodd" fill-opacity="0.7">
        <g id="Group-15" transform="translate(0.000000, 97.659092)" fill="#4A90E2">
            <path d="M24.9582784,40.5472925 L24.9582784,12.3917728 C24.9582784,11.3451913 24.3420958,10.3992426 23.3853097,9.97658469 L21.0661099,8.95167795 C15.8734555,6.6262853 9.53513489,2.82546044 5.0654887,0 C4.91221715,0.62547179 4.78371676,1.1766301 4.68463212,1.62096278 C4.03438917,9.09720851 3.51264661,12.981636 2.86240366,20.4563336 C2.39175162,25.861091 1.02469323,31.3355174 0.554041187,36.7402749 C0.13138327,41.5954222 -0.0977499603,47.6705492 0.0400396172,52.9715775 C5.10419364,50.1755328 13.4876831,45.7786519 20.1635107,43.3773976 L20.0984864,43.3959759 L20.1635107,43.3773976 C21.5011534,42.8959081 22.7644825,42.4995696 23.9225343,42.2085085 C24.5418133,41.8880316 24.9582784,41.264108 24.9582784,40.5472925" id="Fill-5"></path>
        </g>
    </g>
</svg>