<?xml version="1.0" encoding="UTF-8" standalone="no"?><!DOCTYPE svg PUBLIC "-//W3C//DTD SVG 1.1//EN" "http://www.w3.org/Graphics/SVG/1.1/DTD/svg11.dtd"><svg width="180px" height="532px" version="1.1" xmlns="http://www.w3.org/2000/svg" xmlns:xlink="http://www.w3.org/1999/xlink" xml:space="preserve" xmlns:serif="http://www.serif.com/" style="fill-rule:evenodd;clip-rule:evenodd;stroke-linejoin:round;stroke-miterlimit:2;"><g transform="matrix(2.60653,0,0,-2.60653,63.0721,66.643)"><g id="surfaces"><path id="lingual-26" serif:id="lingual 26" d="M0,-12.549C0.261,-10.885 0.452,-9.09 0.552,-7.137C1.13,-6.645 1.931,-6.207 3.14,-5.157C4.488,-3.987 5.933,-3.008 7.32,-1.884C7.906,-1.408 8.713,-0.833 9.802,-0.564C10.946,-0.281 11.855,-0.423 12.235,-0.505C13.048,-0.68 13.609,-0.751 14.625,-1.338C16.899,-2.651 17.923,-3.316 17.923,-3.316C18.249,-3.529 18.554,-3.726 18.856,-3.923C18.882,-7.054 18.962,-9.914 19.083,-12.549L0,-12.549Z" style="fill:rgb(74,144,226);fill-opacity:0.7;fill-rule:nonzero;"/></g></g></svg>