<?xml version="1.0" encoding="UTF-8" standalone="no"?><!DOCTYPE svg PUBLIC "-//W3C//DTD SVG 1.1//EN" "http://www.w3.org/Graphics/SVG/1.1/DTD/svg11.dtd"><svg width="177px" height="532px" version="1.1" xmlns="http://www.w3.org/2000/svg" xmlns:xlink="http://www.w3.org/1999/xlink" xml:space="preserve" xmlns:serif="http://www.serif.com/" style="fill-rule:evenodd;clip-rule:evenodd;stroke-linejoin:round;stroke-miterlimit:2;"><g transform="matrix(1.9978,0,0,1.9978,118.963,163.55)"><g id="surfaces"><path id="buccal-3" serif:id="buccal 3" d="M0,-17.58C0,-21.228 2.957,-24.185 6.605,-24.185C7.318,-24.185 8.002,-24.069 8.645,-23.861C8.643,-24.536 8.638,-25.265 8.631,-26.02L-5.631,-26.02C-5.072,-12.082 -2.977,8.439 4.519,8.44C5.321,6.459 6.154,3.993 6.907,0.665C8.023,-4.26 7.642,-3.736 8.252,-11.19C7.725,-11.054 7.175,-10.975 6.605,-10.975C2.957,-10.975 0,-13.932 0,-17.58" style="fill:rgb(74,144,226);fill-opacity:0.7;fill-rule:nonzero;"/></g></g></svg>