<?xml version="1.0" encoding="UTF-8"?>
<svg width="146px" height="260px" viewBox="0 0 146 260" version="1.1" xmlns="http://www.w3.org/2000/svg" xmlns:xlink="http://www.w3.org/1999/xlink">
    <title>44/occlusal  16</title>
    <g id="44/occlusal--16" stroke="none" stroke-width="1" fill="none" fill-rule="evenodd" opacity="0.7">
        <g id="Group-15" transform="translate(125.634035, 135.297345) scale(1, -1) translate(-125.634035, -135.297345) translate(106.666188, 112.508789)" fill="#4A90E2">
            <path d="M37.0153217,9.82517065 C36.4570733,5.43476222 36.091206,2.59198995 35.563876,0 C27.2485524,6.6835208 12.6138576,17.5272799 5.17455448,17.5530453 C5.01309188,17.5530453 4.84819391,17.5496099 4.68329594,17.5410214 C4.51152723,17.5341507 4.33804082,17.5204092 4.16283673,17.5032323 C4.05634012,17.4929262 3.9395374,17.4585725 3.8313231,17.444831 C3.62691833,17.4242187 3.4173605,17.4001711 3.20780266,17.3709704 C-1.09156834,16.774933 -1.04690847,35.6042198 3.20780266,34.7385054 C3.38472444,34.702434 3.68188432,34.6783864 4.00480951,34.6594918 C4.07179931,34.6543388 4.13535373,34.6526211 4.20062585,34.6491857 C4.90831296,34.614832 5.67611913,34.6131143 5.67611913,34.6131143 C5.67611913,34.6131143 4.90831296,34.614832 4.20062585,34.6491857 C4.81212248,34.6062435 5.40300687,34.592502 5.96297289,34.6268558 C12.0435855,35.0030293 24.4263923,41.0613119 32.8980255,45.5771115 C33.2432806,44.3781659 33.6263249,43.0074515 34.086665,41.3550364 C36.0036039,34.4791347 36.656325,31.1365154 36.8435529,30.1557161 C37.3038931,27.7440833 37.5907469,26.2428247 37.7899986,24.2984028 C37.9600496,22.6425524 38.2125496,19.2449671 37.0153217,9.82517065" id="Fill-9"></path>
        </g>
    </g>
</svg>