<?xml version="1.0" encoding="UTF-8"?>
<svg width="145px" height="532px" viewBox="0 0 145 532" version="1.1" xmlns="http://www.w3.org/2000/svg" xmlns:xlink="http://www.w3.org/1999/xlink">
    <title>52/buccal  2</title>
    <g id="52/buccal--2" stroke="none" stroke-width="1" fill="none" fill-rule="evenodd" fill-opacity="0.7">
        <g id="Group-25" transform="translate(27.043465, 336.971110)" fill="#4A90E2">
            <path d="M83.448517,22.9804239 C83.908422,23.545689 84.7295616,24.587583 85.7630937,26.0609515 C69.9189466,45.9422287 68.2917189,62.9620603 68.3502523,96.8930187 L26.5323404,96.8930187 C23.0788716,52.8742521 12.1197523,36.8729012 0,31.9828562 C8.95393322,17.1020012 22.739378,7.05433012 31.2651815,2.97204566 C34.1165928,1.60738195 36.6636306,0.705968054 39.64716,0.26780397 C48.9991202,-1.10020451 56.4579439,3.0054933 64.251244,7.29849789 C75.5481844,13.5197589 81.8530646,21.0203922 83.448517,22.9804239 M21.031876,53.9629728 L70.459126,53.9479214 C70.459126,53.9479214 62.6591364,7.39884081 46.0306421,7.39884081 C29.9557064,7.39884081 21.031876,53.9629728 21.031876,53.9629728" id="Fill-11"></path>
        </g>
    </g>
</svg>