<?xml version="1.0" encoding="UTF-8"?>
<svg width="146px" height="532px" viewBox="0 0 146 532" version="1.1" xmlns="http://www.w3.org/2000/svg" xmlns:xlink="http://www.w3.org/1999/xlink">
    <title>44/lingual 22</title>
    <g id="44/lingual-22" stroke="none" stroke-width="1" fill="none" fill-rule="evenodd" opacity="0.7">
        <g id="Group-23" transform="translate(87.920259, 104.239306) rotate(-1.000000) translate(-87.920259, -104.239306) translate(67.162618, 87.780937)" fill="#4A90E2">
            <path d="M41.5152819,3.91159152 C40.0792133,2.48240227 38.4814794,1.87529781 36.4744231,1.13576547 C35.2103387,0.671407955 33.4045039,0.0230272733 30.9967242,0.000669318742 C28.0299956,-0.0285680064 25.8268772,0.907026399 24.6057889,1.44017762 C23.7682255,1.80650411 20.6140341,3.18237823 17.9087216,6.00635987 C17.193267,6.75277159 16.2697115,7.85175104 14.5619078,8.74434938 C13.782819,9.15195209 13.3511385,9.24998312 12.1266106,9.65758583 C8.48054414,10.8752344 8.57341564,11.2587593 6.19143356,11.9415369 C5.54305288,12.1272799 4.44751311,12.3130229 2.51097028,12.6191549 C1.71468313,16.7897733 0.603664772,23.8290893 -1.93916181e-12,32.9167379 L41.5152819,32.9167379 L41.5152819,3.91159152 Z" id="Fill-19"></path>
        </g>
    </g>
</svg>