<?xml version="1.0" encoding="UTF-8"?>
<svg width="145px" height="260px" viewBox="0 0 145 260" version="1.1" xmlns="http://www.w3.org/2000/svg" xmlns:xlink="http://www.w3.org/1999/xlink">
    <title>52/incisal  22</title>
    <g id="52/incisal--22" stroke="none" stroke-width="1" fill="none" fill-rule="evenodd" fill-opacity="0.7">
        <g id="Group-30" transform="translate(33.518728, 140.345826)" fill="#4A90E2">
            <path d="M39.0823517,22.2178361 C34.1000552,22.2178361 30.0622773,18.1785123 30.0622773,13.1977617 C30.0622773,8.21546519 34.1000552,4.17614137 39.0823517,4.17614137 C44.0646482,4.17614137 48.1024261,8.21546519 48.1024261,13.1977617 C48.1024261,18.1785123 44.0646482,22.2178361 39.0823517,22.2178361 M65.1269471,0.614487293 C47.402153,-0.739683267 31.1814776,0.306861789 17.7665322,2.17271095 C12.8259739,10.2111663 4.46288859,16.3528554 0,19.2497911 C0.575058731,19.5991547 1.03263234,19.9160553 1.72053862,20.6116909 C3.49363638,22.4033389 3.43953139,23.3107569 5.14924901,24.9617319 C6.39675545,26.1675002 7.39228723,26.6173446 9.50083591,27.7319073 C15.2761569,30.7818828 14.6006175,30.9874818 17.8067245,32.4776877 C19.691124,33.3526427 22.8384884,34.7887436 27.1684333,35.5106588 C32.3996127,36.382522 36.5363255,35.7425373 38.7716345,35.3777151 C42.0534885,34.8428486 44.3599068,34.0390031 46.9461253,33.1377686 C50.60826,31.859345 54.3337749,30.5608253 58.5493264,27.7319073 C60.1060042,26.6869081 63.5455356,24.3402975 66.855215,20.3473494 C69.0673361,17.6792005 69.6980457,16.1117017 72.7882134,12.9643373 C74.3711708,11.3520086 75.8289138,10.1075939 76.5848377,9.48461363 C72.9427991,7.61567275 68.5510199,4.73264982 65.1269471,0.614487293" id="Fill-18"></path>
        </g>
    </g>
</svg>