<?xml version="1.0" encoding="UTF-8"?>
<svg width="146px" height="260px" viewBox="0 0 146 260" version="1.1" xmlns="http://www.w3.org/2000/svg" xmlns:xlink="http://www.w3.org/1999/xlink">
    <title>54/occlusal 15</title>
    <g id="54/occlusal-15" stroke="none" stroke-width="1" fill="none" fill-rule="evenodd" fill-opacity="0.7">
        <g id="Group-24" transform="translate(10.000000, 101.420104)" fill="#4A90E2">
            <path d="M16.8870813,34.8190807 C23.2715075,30.2926881 22.672189,8.86375806 16.9603476,3.51385218 C15.5228626,2.44856005 14.0165073,1.25138856 12.4998947,0 C8.8614898,2.74455593 4.72926998,5.96973885 0.0988392523,9.74881507 C0.0563447931,10.3671827 0.0255729434,11.001669 0.0109196816,11.6596004 C-0.091653151,16.1420332 0.531110475,19.2060302 1.76491512,25.26955 C2.52395408,29.0061317 3.31376489,31.9470414 4.26183093,35.1605017 C5.80042342,36.72547 7.57493342,38.3900806 9.61320213,40.076671 C11.9196255,38.3666354 14.3081072,36.6287585 16.535403,35.0696514 C16.6555598,34.9831972 16.7815778,34.8938123 16.8870813,34.8190807" id="Fill-12"></path>
        </g>
    </g>
</svg>