<?xml version="1.0" encoding="UTF-8"?>
<svg width="142px" height="532px" viewBox="0 0 142 532" version="1.1" xmlns="http://www.w3.org/2000/svg" xmlns:xlink="http://www.w3.org/1999/xlink">
    <title>45/buccal/9</title>
    <g id="45/buccal/9" stroke="none" stroke-width="1" fill="none" fill-rule="evenodd">
        <g id="Group-18" transform="translate(70.708028, 179.031356) scale(1, -1) translate(-70.708028, -179.031356) translate(12.030868, 165.691997)"></g>
        <g id="Group-24" transform="translate(74.843473, 111.307597)" fill="#4A90E2" fill-opacity="0.7">
            <path d="M0,26.0745639 C0.827360049,20.547868 1.76376546,15.2150305 2.77632954,10.0708588 C3.15366111,10.2508702 3.4392561,10.4135728 3.68504089,10.5814681 C5.11301587,11.5472984 5.24975529,12.2309955 6.79889178,13.2158656 C7.24372762,13.4979988 7.91877034,14.323628 9.59253011,14.5071011 C9.91966619,14.5434496 11.7440124,13.723013 14.3437923,12.8939221 C16.1387136,12.3227321 18.2625018,11.9298226 20.6891939,11.0609215 C22.8372144,9.34215889 22.2937185,9.28330901 23.3512854,8.35555799 C26.7732327,5.35248334 29.8109249,2.87213407 32.422821,1.72109969 C35.6457172,0.300048228 38.532823,-0.0426657669 39.3688375,0.00406795971 C39.5021151,0.0127223535 39.6198149,0.0421472925 39.7496308,0.0542634438 L39.7496308,26.0745639 L0,26.0745639 Z" id="Fill-15"></path>
        </g>
    </g>
</svg>