<?xml version="1.0" encoding="UTF-8" standalone="no"?><!DOCTYPE svg PUBLIC "-//W3C//DTD SVG 1.1//EN" "http://www.w3.org/Graphics/SVG/1.1/DTD/svg11.dtd"><svg width="177px" height="532px" version="1.1" xmlns="http://www.w3.org/2000/svg" xmlns:xlink="http://www.w3.org/1999/xlink" xml:space="preserve" xmlns:serif="http://www.serif.com/" style="fill-rule:evenodd;clip-rule:evenodd;stroke-linejoin:round;stroke-miterlimit:2;"><g transform="matrix(1.9978,0,0,-1.9978,91.1554,174.462)"><g id="surfaces"><path id="lingual-30" serif:id="lingual 30" d="M0,11.182C-2.742,11.182 -4.964,8.96 -4.964,6.218C-4.964,3.477 -2.742,1.254 0,1.254C2.742,1.254 4.964,3.477 4.964,6.218C4.964,8.96 2.742,11.182 0,11.182M13.83,-12.605C9.372,-16.243 4.257,-16.374 1.501,-16.445C-0.514,-16.496 -6.409,-16.565 -12.233,-12.714C-17.566,-9.187 -19.942,-4.294 -21.115,-1.412C-18.627,-0.912 -12.792,2.981 -10.769,27.747L8.529,27.747C10.003,1.833 15.581,-4.211 19.077,-5.383C18.475,-6.861 16.939,-10.068 13.83,-12.605" style="fill:rgb(74,144,226);fill-opacity:0.7;fill-rule:nonzero;"/></g></g></svg>