<?xml version="1.0" encoding="UTF-8" standalone="no"?><!DOCTYPE svg PUBLIC "-//W3C//DTD SVG 1.1//EN" "http://www.w3.org/Graphics/SVG/1.1/DTD/svg11.dtd"><svg width="177px" height="532px" version="1.1" xmlns="http://www.w3.org/2000/svg" xmlns:xlink="http://www.w3.org/1999/xlink" xml:space="preserve" xmlns:serif="http://www.serif.com/" style="fill-rule:evenodd;clip-rule:evenodd;stroke-linejoin:round;stroke-miterlimit:2;"><g transform="matrix(1.9978,0,0,-1.9978,48.9719,119.03)"><g id="surfaces"><path id="lingual-32" serif:id="lingual 32" d="M0,-29.158C-0.135,-28.826 -0.259,-28.513 -0.364,-28.24C-1.527,-25.236 -0.817,-25.524 -1.855,-19.232C-1.303,-19.382 -0.725,-19.468 -0.126,-19.468C3.522,-19.468 6.479,-16.511 6.479,-12.863C6.479,-9.215 3.522,-6.258 -0.126,-6.258C-1.576,-6.258 -2.912,-6.73 -4.001,-7.522C-4.253,-5.675 -4.425,-3.748 -4.408,-1.798C-4.403,-1.171 -4.378,-0.565 -4.343,0L10.346,0C8.323,-24.765 2.488,-28.658 0,-29.158" style="fill:rgb(74,144,226);fill-opacity:0.7;fill-rule:nonzero;"/></g></g></svg>