<?xml version="1.0" encoding="UTF-8"?>
<svg width="145px" height="532px" viewBox="0 0 145 532" version="1.1" xmlns="http://www.w3.org/2000/svg" xmlns:xlink="http://www.w3.org/1999/xlink">
    <title>52/lingual  29</title>
    <g id="52/lingual--29" stroke="none" stroke-width="1" fill="none" fill-rule="evenodd" fill-opacity="0.7">
        <g id="Group-21" transform="translate(113.283121, 394.671228) scale(1, -1) rotate(3.000000) translate(-113.283121, -394.671228) translate(95.067825, 357.881583)" fill="#4A90E2">
            <path d="M2.85994515e-12,-8.48030947e-13 C0.96884431,40.324733 4.31886231,71.3550423 19.7316743,73.5792905 C20.1529851,72.6786746 20.5981759,71.7251817 21.0774809,70.6949318 C22.1691364,68.3512838 23.5354116,65.3986966 24.9562695,61.5864307 C27.001418,56.1008615 27.9787909,51.8382877 29.848251,43.5365883 C30.0751107,42.5319241 30.2883247,41.5596683 30.4947158,40.6044697 C22.4096418,40.0501134 16.0200453,33.3330203 16.0200453,25.1063722 C16.0200453,16.5181132 22.982761,9.55539758 31.5710199,9.55539758 C32.9253551,9.55539758 34.2319304,9.7464373 35.4822171,10.0705225 C35.5163314,9.76008299 35.5487399,9.44964344 35.5845598,9.12385249 C35.9734621,5.48386348 36.2446703,2.49716209 36.4305929,-8.48030947e-13 L2.85994515e-12,-8.48030947e-13 Z" id="Fill-15"></path>
        </g>
    </g>
</svg>