<?xml version="1.0" encoding="UTF-8"?>
<svg width="180px" height="260px" viewBox="0 0 180 260" version="1.1" xmlns="http://www.w3.org/2000/svg" xmlns:xlink="http://www.w3.org/1999/xlink">
    <title>43/incisal   22</title>
    <g id="43/incisal---22" stroke="none" stroke-width="1" fill="none" fill-rule="evenodd" fill-opacity="0.7">
        <g id="Group-29" transform="translate(51.823200, 149.063247)" fill="#4A90E2">
            <path d="M65.548195,0.63990645 C68.5277595,5.01926622 72.1250113,8.4476539 75.424529,11.000614 C72.8449061,13.2447304 72.3805295,13.6846661 70.4941387,15.1955563 C65.137144,19.4838183 62.4575358,21.6301711 59.3579889,23.1099548 C55.6429765,24.8852508 55.7162991,24.0387079 47.0486773,26.9182869 C39.7697415,29.3379332 39.260927,30.0889345 35.9125276,30.44666 C30.9332555,30.9821373 26.9338402,29.8800762 24.7763779,29.2623887 C20.2637042,27.9759101 20.2503729,26.9449497 12.1737758,23.4032453 C6.49238419,20.9102764 6.11910543,21.2546705 3.38172784,19.5926912 C2.1285777,18.8305804 1.07317644,18.0573601 0,17.1463822 C5.716942,12.9825465 11.6694051,7.27893587 15.2622132,0 C30.555533,1.42645813 48.0663063,2.07080837 65.548195,0.63990645 L65.548195,0.63990645 Z M17.1219413,3.29729573 C17.1219413,3.29729573 20.2103787,27.7359452 33.2462507,27.7359452 C46.730946,27.7359452 57.2049703,3.30618332 57.2049703,3.30618332 L17.1219413,3.29729573 Z" id="Fill-17"></path>
        </g>
    </g>
</svg>