<?xml version="1.0" encoding="UTF-8"?>
<svg width="145px" height="532px" viewBox="0 0 145 532" version="1.1" xmlns="http://www.w3.org/2000/svg" xmlns:xlink="http://www.w3.org/1999/xlink">
    <title>52/lingual  31</title>
    <g id="52/lingual--31" stroke="none" stroke-width="1" fill="none" fill-rule="evenodd" fill-opacity="0.7">
        <g id="Group-21" transform="translate(71.441572, 387.268405) scale(1, -1) rotate(3.000000) translate(-71.441572, -387.268405) translate(28.530127, 340.896265)" fill="#4A90E2">
            <path d="M46.2793729,50.6988722 C39.7516138,50.6988722 34.4604958,45.4077542 34.4604958,38.8799951 C34.4604958,32.352236 39.7516138,27.0594122 46.2793729,27.0594122 C52.807132,27.0594122 58.0982501,32.352236 58.0982501,38.8799951 C58.0982501,45.4077542 52.807132,50.6988722 46.2793729,50.6988722 M66.0929213,6.33252577e-13 L24.0727108,6.33252577e-13 C22.8855354,36.3845387 18.223825,70.1934525 2.8838536e-12,75.2287138 C0.559473475,75.9109985 1.14964976,76.594989 1.81146595,77.2738623 C5.08813834,80.637526 9.29783509,83.4570676 18.0054939,86.5512288 C26.5306415,89.5822787 40.0586419,94.2201091 57.9856731,92.2875376 C67.6843505,91.2419363 74.4713778,90.5101859 79.240548,85.2020108 C81.3573363,82.8481285 83.0204054,79.5612218 85.8228899,73.5792905 C70.4117836,71.3533366 67.0617656,40.3230273 66.0929213,6.33252577e-13" id="Fill-9"></path>
        </g>
    </g>
</svg>