<?xml version="1.0" encoding="UTF-8"?>
<svg width="142px" height="532px" viewBox="0 0 142 532" version="1.1" xmlns="http://www.w3.org/2000/svg" xmlns:xlink="http://www.w3.org/1999/xlink">
    <title>45/buccal/11</title>
    <g id="45/buccal/11" stroke="none" stroke-width="1" fill="none" fill-rule="evenodd">
        <g id="Group-18" transform="translate(70.708028, 179.031356) scale(1, -1) translate(-70.708028, -179.031356) translate(12.030868, 165.691997)"></g>
        <g id="Group-24" transform="translate(0.959182, 120.426472)" fill="#4A90E2" fill-opacity="0.7">
            <path d="M0,16.9556884 C0.567728234,13.9093417 1.47297783,11.164168 3.09134947,8.6474703 C5.1268629,5.48169304 6.50810415,4.13506937 7.07929414,3.80966416 C9.37097762,2.50977421 11.4774571,1.88319609 12.7704235,1.74991843 C14.0841605,1.61490989 17.5286092,1.841655 20.0349217,2.5184286 C22.1587099,3.09308035 21.8090724,3.1294288 23.0362655,3.46175753 C24.2184557,3.78023922 25.1063965,3.13462144 27.3323065,1.89011961 C28.4556469,1.26007974 29.8057323,0.891402563 31.5902683,0 L31.5902683,16.9556884 L0,16.9556884 Z" id="Fill-3"></path>
        </g>
    </g>
</svg>