<?xml version="1.0" encoding="UTF-8"?>
<svg width="145px" height="260px" viewBox="0 0 145 260" version="1.1" xmlns="http://www.w3.org/2000/svg" xmlns:xlink="http://www.w3.org/1999/xlink">
    <title>42/incisal  21</title>
    <g id="42/incisal--21" stroke="none" stroke-width="1" fill="none" fill-rule="evenodd" fill-opacity="0.7">
        <g id="Group-29" transform="translate(75.503459, 157.770110) scale(-1, 1) rotate(8.000000) translate(-75.503459, -157.770110) translate(47.588180, 143.483107)" fill="#4A90E2">
            <path d="M9.34231451,1.48073245 C18.1910515,1.5220203 29.3556616,1.09788148 43.4104213,-4.80916293e-13 C45.5686498,8.32137858 50.7878094,16.2993173 55.8305573,22.5037552 C55.0254443,22.9992094 54.1921804,23.4533758 53.3138752,23.9319395 C50.3317664,25.5553027 47.7456456,26.4448682 46.2667898,26.8990345 C45.4522931,27.1486384 41.7420168,28.2540267 37.1159008,28.5167676 C29.0685234,28.9709339 22.5525499,26.6250333 17.952708,24.9209712 C11.1946376,22.417426 6.71115241,19.4728516 1.25927944,15.8939457 C0.816373406,15.603054 0.407248343,15.3309295 -1.41603689e-12,15.0588051 C3.57890594,11.3710493 7.12403092,6.77120747 9.34231451,1.48073245 L9.34231451,1.48073245 Z M10.2675377,3.40624766 C10.2675377,3.40624766 24.1346253,28.218369 34.4866154,27.7961069 C45.1951824,27.3588311 42.1004704,2.11506397 42.1004704,2.11506397 L10.2675377,3.40624766 Z" id="Fill-9"></path>
        </g>
    </g>
</svg>