<?xml version="1.0" encoding="UTF-8"?>
<svg width="142px" height="532px" viewBox="0 0 142 532" version="1.1" xmlns="http://www.w3.org/2000/svg" xmlns:xlink="http://www.w3.org/1999/xlink">
    <title>45/lingual/27</title>
    <g id="45/lingual/27" stroke="none" stroke-width="1" fill="none" fill-rule="evenodd" fill-opacity="0.7">
        <g id="Group-26" transform="translate(4.651041, 144.274479)" fill="#4A90E2">
            <path d="M67.8978102,27.0245429 C67.8800554,27.0245429 67.8623006,27.0298693 67.8445459,27.0298693 C63.0152471,27.0298693 59.1003192,23.1149414 59.1003192,18.2856427 C59.1003192,13.4563439 63.0152471,9.54141603 67.8445459,9.54141603 C68.3647608,9.54141603 68.8654454,9.6071087 69.3590282,9.6941071 C69.7496332,6.26743554 70.1775233,3.02186269 70.6125153,0 L24.9010718,0 L24.9010718,15.5709376 C24.9010718,19.8906743 21.3998302,23.3919159 17.0800935,23.3919159 L0,23.3919159 C4.17947401,32.2320184 6.33312821,36.7168745 7.41972043,37.7910384 C9.68700519,40.0352419 13.2823471,42.3078531 30.3855218,43.5329326 C38.9397723,44.1454723 48.3178444,44.7722159 61.6268237,43.5329326 C63.7076833,43.3394055 65.6802388,43.1085935 67.5977545,42.8635776 C67.5018787,37.5353696 67.6243867,32.2071617 67.8978102,27.0245429" id="Fill-11"></path>
        </g>
    </g>
</svg>