<?xml version="1.0" encoding="UTF-8"?>
<svg width="142px" height="532px" viewBox="0 0 142 532" version="1.1" xmlns="http://www.w3.org/2000/svg" xmlns:xlink="http://www.w3.org/1999/xlink">
    <title>45/lingual/20</title>
    <defs>
        <polygon id="path-1" points="0 1.26155263e-14 38.7000829 1.26155263e-14 38.7000829 28.2727036 0 28.2727036"></polygon>
    </defs>
    <g id="45/lingual/20" stroke="none" stroke-width="1" fill="none" fill-rule="evenodd">
        <g id="Group-17" transform="translate(75.263556, 116.000000)">
            <path d="M38.7000829,0.0106528649 C38.2721928,-0.00887738745 37.8993425,-0.00177547749 37.5353696,0.0195302524 C35.1952903,0.158017497 30.6216603,1.95302524 28.5106175,3.47105849 C23.4860162,7.08237971 23.4984446,8.2506439 20.228015,10.6759462 C19.8320836,10.9688999 19.2355231,10.883677 18.2021952,11.1819572 C15.8212799,11.869067 15.4040427,12.3218138 12.9663121,13.0391067 C11.6435814,13.4279363 11.9418616,13.2432866 10.2640354,13.7155636 C9.38339854,13.962355 9.00522183,14.0972913 8.40688592,14.0529043 C8.06066781,14.0262722 7.51382074,13.9303964 6.54973646,13.3764474 C5.4187573,12.7266227 4.91629717,12.1389396 4.18480045,11.519298 C3.8172766,11.2068139 3.45152824,10.9546961 3.02008721,10.6937009 C2.26728476,14.4026734 1.10789795,20.5866615 0,28.2727036 L38.5243106,28.2727036 L38.7000829,0.0106528649 Z" id="Fill-15" fill-opacity="0.7" fill="#4A90E2"></path>
        </g>
    </g>
</svg>
