<?xml version="1.0" encoding="UTF-8"?>
<svg width="145px" height="260px" viewBox="0 0 145 260" version="1.1" xmlns="http://www.w3.org/2000/svg" xmlns:xlink="http://www.w3.org/1999/xlink">
    <title>42/incisal  12</title>
    <g id="42/incisal--12" stroke="none" stroke-width="1" fill="none" fill-rule="evenodd" fill-opacity="0.7">
        <g id="Group-29" transform="translate(68.875977, 105.064135) scale(-1, 1) rotate(8.000000) translate(-68.875977, -105.064135) translate(35.359626, 87.348586)" fill="#4A90E2">
            <path d="M38.1950151,29.1194411 C35.0458781,29.1194411 32.4935383,26.5671012 32.4935383,23.4179643 C32.4935383,20.2688273 35.0458781,17.7164875 38.1950151,17.7164875 C41.344152,17.7164875 43.8964919,20.2688273 43.8964919,23.4179643 C43.8964919,26.5671012 41.344152,29.1194411 38.1950151,29.1194411 M66.1168623,14.4509939 C61.8604602,10.4760999 62.3108731,10.3597432 59.5633544,8.02134953 C57.0935902,5.91754588 54.6501002,3.87004384 50.9079195,2.21102294 C48.7684582,1.26140238 45.7938563,-0.0203976985 41.7589072,7.23036551e-14 C41.1621101,0.0039996676 38.611647,0.045287518 35.4531265,1.0981277 C32.6812103,2.02147418 31.0015455,3.20193135 27.0454187,6.04328615 C21.4359012,10.0707283 18.1516404,12.966508 17.1682389,13.7265798 C11.4292277,18.1593935 12.011011,17.6264049 7.63262216,20.8806382 C5.720244,22.3013156 3.00838292,24.1555154 1.04188825e-12,26.40758 C3.46630271,27.9258469 9.08520381,30.885435 13.1276597,35.4027012 C22.7721262,35.5528389 35.3836878,35.1211932 51.8594168,33.7830915 C56.1495998,23.0782779 63.607687,17.4274725 67.0327019,15.2936414 C66.7399335,15.0252703 66.4565487,14.7681596 66.1168623,14.4509939" id="Fill-1"></path>
        </g>
    </g>
</svg>