<?xml version="1.0" encoding="UTF-8"?>
<svg width="146px" height="532px" viewBox="0 0 146 532" version="1.1" xmlns="http://www.w3.org/2000/svg" xmlns:xlink="http://www.w3.org/1999/xlink">
    <title>44/buccal  8</title>
    <g id="44/buccal--8" stroke="none" stroke-width="1" fill="none" fill-rule="evenodd" opacity="0.7">
        <g id="Group-27" transform="translate(105.629190, 146.661416) scale(1, -1) rotate(-3.000000) translate(-105.629190, -146.661416) translate(69.468438, 123.545376)" fill="#4A90E2">
            <path d="M72.2719206,27.5736376 C71.8273178,19.5459952 70.710026,15.5577924 69.34812,8.5648019 C68.2771066,3.07255244 67.9399357,2.35523788 67.2589827,5.45979378e-13 C63.9699137,0.23304459 57.8776984,5.45979378e-13 51.5921056,1.46272668 C51.3326162,1.52222743 41.9529847,2.97669012 23.1838048,5.84925394 C17.3229812,6.74672353 12.3480577,7.50535805 7.80120899,8.08053193 C5.03111868,13.5529478 1.80320318,21.8384268 -1.11352057e-12,33.0030807 C4.6724614,33.4427251 8.32845171,37.3714272 8.32845171,42.1562789 C8.32845171,43.6223112 7.97640563,45.0023979 7.36652298,46.23208 L41.2703789,46.23208 L41.2703789,36.4739576 C41.2703789,32.0609856 44.8470349,28.4826768 49.2600069,28.4826768 L72.3215046,28.4826768 C72.3049766,28.1868259 72.2901014,27.9008917 72.2719206,27.5736376" id="Fill-9"></path>
        </g>
    </g>
</svg>