<?xml version="1.0" encoding="UTF-8"?>
<svg width="177px" height="260px" viewBox="0 0 177 260" version="1.1" xmlns="http://www.w3.org/2000/svg" xmlns:xlink="http://www.w3.org/1999/xlink">
    <title>51/incisal 23</title>
    <g id="51/incisal-23" stroke="none" stroke-width="1" fill="none" fill-rule="evenodd" fill-opacity="0.7">
        <g id="Group-30" transform="translate(29.774674, 143.114508)" fill="#4A90E2">
            <path d="M57.0170791,24.7376619 C51.7774557,24.7376619 47.5307546,20.4909607 47.5307546,15.2513374 C47.5307546,10.0117141 51.7774557,5.76341405 57.0170791,5.76341405 C62.2567024,5.76341405 66.5034035,10.0117141 66.5034035,15.2513374 C66.5034035,20.4909607 62.2567024,24.7376619 57.0170791,24.7376619 M102.488439,0.752434641 C69.7411933,-1.2541956 39.3827166,0.92991349 12.3547664,5.20219715 C7.75310758,8.23212886 3.28735599,10.9774548 0,12.950508 C1.27273121,14.0009909 3.84057835,16.1611164 6.86891115,18.930426 C12.3419751,23.9350098 11.5025481,24.5346005 15.439061,27.7100329 C17.7846599,29.5999428 20.0679013,30.8502893 24.635983,33.3525812 C29.3479665,35.9332196 32.0645122,37.4218034 36.1321355,38.7872713 C39.5873769,39.9480789 42.6524846,40.9473968 46.7936578,40.8786437 C49.516599,40.8322754 51.3761297,40.3462072 54.9448936,39.4156424 C56.0241568,39.1326356 60.9727788,37.8103382 67.2772752,34.8171814 C71.0395071,33.0296016 73.751256,31.3763302 75.6379681,30.2171215 C77.9084182,28.8244721 80.4858588,27.2415527 83.5813458,24.7840302 C86.7263989,22.2833372 86.5217386,21.9651544 89.8506662,19.34934 C90.4806362,18.8536784 93.072467,16.8342569 96.7483577,14.541422 C99.4281285,12.8689637 101.517902,11.7801069 103.438191,10.7791902 C106.396172,9.23624343 107.875162,8.4639706 109.916969,7.64373051 C111.033007,7.19443721 111.869236,6.90663367 112.588745,6.67319302 C108.924046,4.82805255 105.521569,2.83261467 102.488439,0.752434641" id="Fill-14"></path>
        </g>
    </g>
</svg>