<?xml version="1.0" encoding="UTF-8"?>
<svg width="142px" height="532px" viewBox="0 0 142 532" version="1.1" xmlns="http://www.w3.org/2000/svg" xmlns:xlink="http://www.w3.org/1999/xlink">
    <title>55/lingual  21</title>
    <g id="55/lingual--21" stroke="none" stroke-width="1" fill="none" fill-rule="evenodd" fill-opacity="0.7">
        <g id="Group-31" transform="translate(40.178692, 410.309171) scale(-1, -1) translate(-40.178692, -410.309171) translate(8.000000, 365.378435)" fill="#4A90E2">
            <path d="M62.8059965,19.4587352 C62.3067661,17.9132304 60.5179744,12.8421746 56.9614852,9.76944667 C56.1317783,9.05224244 54.5792421,7.74580571 52.3488776,7.46314287 C51.3996367,7.34360883 51.1268178,7.5095502 50.3491434,7.46314287 C48.7347307,5.79810402 46.7729662,4.29760026 44.3513472,3.46508084 C42.6736518,1.99551531 40.432037,1.27268594 36.1864692,0 L36.1864692,27.6081441 L64.3573844,27.5701745 C64.3754081,24.3765062 63.4177296,21.3501856 62.8059965,19.4587352" id="Fill-9"></path>
            <path d="M2.83647243,80.7684469 C2.83506614,80.774072 2.83365986,80.7796971 2.83225358,80.7853222 C2.83365986,80.7796971 2.83506614,80.774072 2.83647243,80.7684469" id="Fill-23"></path>
            <path d="M0.520324639,89.8220956 C0.645483809,89.3763039 0.765017848,88.9361374 0.88595817,88.4945646 C0.765017848,88.9361374 0.645483809,89.3763039 0.520324639,89.8220956" id="Fill-25"></path>
            <path d="M1.6116001,85.7649697 C1.73535299,85.2868335 1.86051216,84.8072911 1.97863991,84.3347801 C1.86051216,84.8072911 1.73535299,85.2882398 1.6116001,85.7649697" id="Fill-27"></path>
        </g>
    </g>
</svg>