<?xml version="1.0" encoding="UTF-8"?>
<svg width="146px" height="532px" viewBox="0 0 146 532" version="1.1" xmlns="http://www.w3.org/2000/svg" xmlns:xlink="http://www.w3.org/1999/xlink">
    <title>44/lingual 26</title>
    <g id="44/lingual-26" stroke="none" stroke-width="1" fill="none" fill-rule="evenodd" opacity="0.7">
        <g id="Group-23" transform="translate(104.233852, 152.160697) rotate(-1.000000) translate(-104.233852, -152.160697) translate(67.577607, 120.420262)" fill="#4A90E2">
            <path d="M50.5176965,23.1112456 C45.7795299,23.1112456 41.9391213,19.270837 41.9391213,14.5326704 L41.9391213,1.7139438e-16 L0.423839401,1.7139438e-16 C0.117707408,4.59713942 -0.0525570148,9.72743006 0.0145168488,15.2687631 C1.80831274,13.0088899 4.57381973,11.5556228 7.6850151,11.5556228 C13.0939203,11.5556228 17.479519,15.9412216 17.479519,21.3501267 C17.479519,26.7607517 13.0939203,31.1463505 7.6850151,31.1463505 C4.89199062,31.1463505 2.37758066,29.9699781 0.592383981,28.0953496 C1.34567506,37.764305 2.88665408,48.2828627 5.66419997,59.253739 C9.56652296,60.5883369 13.1300369,61.6202425 17.1149124,62.4165297 C17.1149124,62.4165297 37.6446742,66.5200743 58.0506073,58.6122377 C63.6400959,56.4469558 66.9817502,54.1681643 68.3989005,50.6992417 C69.1504718,48.85901 68.7531881,48.1745126 69.7678953,41.1111189 C70.273529,37.5957605 70.7808826,34.9248448 71.1386099,33.0467766 C72.5127642,25.8079589 72.9427248,25.8165581 73.312491,23.1112456 L50.5176965,23.1112456 Z" id="Fill-13"></path>
        </g>
    </g>
</svg>