<?xml version="1.0" encoding="UTF-8"?>
<svg width="146px" height="260px" viewBox="0 0 146 260" version="1.1" xmlns="http://www.w3.org/2000/svg" xmlns:xlink="http://www.w3.org/1999/xlink">
    <title>44/occlusal  18</title>
    <g id="44/occlusal--18" stroke="none" stroke-width="1" fill="none" fill-rule="evenodd" opacity="0.7">
        <g id="Group-15" transform="translate(18.321316, 135.840134) scale(1, -1) translate(-18.321316, -135.840134) translate(1.000000, 112.428058)" fill="#4A90E2">
            <path d="M32.8130848,15.4368546 C32.8422854,15.4385723 32.8697684,15.44029 32.8989691,15.4420077 C33.223612,15.4866676 33.4915712,15.8817356 33.7372005,16.5086914 C35.1560101,20.1450352 34.9412992,31.7686243 32.8525916,31.7995427 L32.8440031,31.7995427 C32.5846324,31.7892366 32.328697,31.7875189 32.0779146,31.7943896 C24.3139686,31.9833352 8.99735207,42.0094753 2.07507275,46.8241524 C0.666569263,42.6793733 0.223405972,39.1598322 0.0670964389,37.1810566 C-0.169944391,34.1751041 0.235429782,30.8857331 1.05648425,24.4306647 C1.95139927,17.3864296 2.39971562,13.8634532 3.29634833,10.6479428 C4.27714771,7.12840178 4.44891642,7.76566372 7.07182474,0 C9.61915482,2.05950692 12.9411618,4.65664993 16.4143253,7.13011947 C22.0157032,11.1168714 28.006996,14.7806981 31.7635779,15.3320757 C32.1053976,15.3818887 32.4540881,15.4162424 32.8130848,15.4368546" id="Fill-13"></path>
        </g>
    </g>
</svg>