<?xml version="1.0" encoding="UTF-8"?>
<svg width="145px" height="260px" viewBox="0 0 145 260" version="1.1" xmlns="http://www.w3.org/2000/svg" xmlns:xlink="http://www.w3.org/1999/xlink">
    <title>52/incisal 12</title>
    <g id="52/incisal-12" stroke="none" stroke-width="1" fill="none" fill-rule="evenodd" fill-opacity="0.7">
        <g id="Group-30" transform="translate(33.745969, 83.019862)" fill="#4A90E2">
            <path d="M61.0752564,31.7598207 C44.7231832,30.8122105 29.762381,31.8525721 17.2641288,33.6055738 C12.13343,25.5949438 3.6930519,19.9432913 0,17.7265327 C1.25987329,16.5083975 2.612498,15.3119043 4.26192721,13.7258553 C8.00290067,10.1271006 7.21760541,10.3311537 9.00770759,8.8471312 C14.3780141,4.39660946 20.6124546,3.24958371 26.01677,2.25559779 C28.9739941,1.70991034 27.8810733,2.14275024 36.9598903,0.936981937 C41.9220906,0.276901082 43.0072821,0.0465684182 45.3987226,0.0141054253 C48.2631953,-0.0260868516 51.7212769,-0.0755542693 55.6833079,1.33117542 C58.6281651,2.37772048 60.464643,3.73652861 63.9891965,6.34284318 C67.4503699,8.90123619 67.3143345,9.36499323 72.1652331,13.1987181 C73.440565,14.2066167 74.304699,14.851239 74.9972428,15.3598259 C72.0338353,17.0386264 64.5534342,22.084303 61.0752564,31.7598207 M15.9810676,29.3699261 L61.5915726,27.4700681 C61.5915726,27.4700681 53.307326,1.58469594 37.9631514,2.22004308 C23.1306553,2.83529409 15.9810676,29.3699261 15.9810676,29.3699261" id="Fill-10"></path>
        </g>
    </g>
</svg>