<?xml version="1.0" encoding="UTF-8"?>
<svg width="142px" height="532px" viewBox="0 0 142 532" version="1.1" xmlns="http://www.w3.org/2000/svg" xmlns:xlink="http://www.w3.org/1999/xlink">
    <title>45/buccal/3</title>
    <g id="45/buccal/3" stroke="none" stroke-width="1" fill="none" fill-rule="evenodd">
        <g id="Group-18" transform="translate(70.708028, 179.031356) scale(1, -1) translate(-70.708028, -179.031356) translate(12.030868, 165.691997)"></g>
        <g id="Group-24" transform="translate(71.068426, 137.383719)" fill="#4A90E2" fill-opacity="0.7">
            <path d="M62.0623889,23.3028208 C61.0584792,25.1756316 60.3418954,28.111202 59.8849434,28.853749 C56.1860555,29.8022705 53.8562927,30.4392339 52.2431137,30.9654211 C41.2987673,34.5431475 35.135108,36.0611282 22.5481576,39.5869282 C12.9608202,42.273252 6.36963385,43.3550513 0,44.0145161 C0.131546786,38.1087577 0.410218267,32.3414697 0.816974776,26.7213063 C1.05410517,26.7438078 1.28258116,26.7922724 1.52663507,26.7922724 C5.69978377,26.7922724 9.08365175,23.4084044 9.08365175,19.2335248 C9.08365175,15.2975065 6.06499919,12.1023043 2.22244833,11.7457433 C2.68459296,7.74568247 3.20212571,3.82524207 3.77504658,0 L43.5246774,0 L43.5246774,10.2606493 C43.5246774,14.5895771 47.0331686,18.0997992 51.3620964,18.0997992 L65.2991322,18.0997992 C64.2121404,19.7493267 63.303429,20.9851741 62.0623889,23.3028208" id="Fill-9"></path>
        </g>
    </g>
</svg>