<?xml version="1.0" encoding="UTF-8"?>
<svg width="146px" height="532px" viewBox="0 0 146 532" version="1.1" xmlns="http://www.w3.org/2000/svg" xmlns:xlink="http://www.w3.org/1999/xlink">
    <title>44/lingual  31</title>
    <g id="44/lingual--31" stroke="none" stroke-width="1" fill="none" fill-rule="evenodd" opacity="0.7">
        <g id="Group-23" transform="translate(77.572731, 180.400728) rotate(-1.000000) translate(-77.572731, -180.400728) translate(18.680159, 163.676106)" fill="#4A90E2">
            <path d="M107.436851,15.8259954 C87.0309178,23.7338319 66.501156,19.6302874 66.501156,19.6302874 C62.5162806,18.8340002 58.9527666,17.8020946 55.0504436,16.4674967 C51.722548,15.3289609 48.1521547,13.9754447 43.8267504,12.3261156 C37.7006709,9.99056927 32.2332911,7.59654829 22.8257517,4.56446569 C16.701392,2.59180616 13.3219012,1.76972137 9.73946896,1.21765188 C6.23098994,0.674181597 -1.12794039e-12,-0.00171656719 -1.12794039e-12,-8.54268916e-13 C-1.12794039e-12,-8.54268916e-13 41.3656556,33.4406239 58.1341215,33.4492426 C111.323695,33.4750207 117.785144,7.91299934 117.785144,7.91299934 C116.367994,11.381922 113.02634,13.6607135 107.436851,15.8259954" id="Fill-21"></path>
        </g>
    </g>
</svg>