<?xml version="1.0" encoding="UTF-8" standalone="no"?><!DOCTYPE svg PUBLIC "-//W3C//DTD SVG 1.1//EN" "http://www.w3.org/Graphics/SVG/1.1/DTD/svg11.dtd"><svg width="180px" height="532px" version="1.1" xmlns="http://www.w3.org/2000/svg" xmlns:xlink="http://www.w3.org/1999/xlink" xml:space="preserve" xmlns:serif="http://www.serif.com/" style="fill-rule:evenodd;clip-rule:evenodd;stroke-linejoin:round;stroke-miterlimit:2;"><g transform="matrix(2.59139,0,0,2.59139,139.603,167.909)"><g id="surfaces"><path id="buccal-3" serif:id="buccal 3" d="M0,-22.729C0.768,-22.729 1.5,-22.577 2.172,-22.307C1.922,-23.231 1.562,-24.312 1.049,-25.468L-12.423,-25.468C-11.832,-14.92 -9.886,-1.455 -3.959,2.739C-2.881,1.028 -1.395,-1.578 -0.043,-4.892C0.665,-6.627 1.477,-8.663 2.072,-11.421C1.427,-11.176 0.731,-11.036 0,-11.036C-3.229,-11.036 -5.846,-13.654 -5.846,-16.883C-5.846,-20.112 -3.229,-22.729 0,-22.729" style="fill:rgb(74,144,226);fill-opacity:0.7;fill-rule:nonzero;"/></g></g></svg>