<?xml version="1.0" encoding="UTF-8" standalone="no"?><!DOCTYPE svg PUBLIC "-//W3C//DTD SVG 1.1//EN" "http://www.w3.org/Graphics/SVG/1.1/DTD/svg11.dtd"><svg width="145px" height="532px" version="1.1" xmlns="http://www.w3.org/2000/svg" xmlns:xlink="http://www.w3.org/1999/xlink" xml:space="preserve" xmlns:serif="http://www.serif.com/" style="fill-rule:evenodd;clip-rule:evenodd;stroke-linejoin:round;stroke-miterlimit:2;"><g transform="matrix(1.97612,0,0,1.97612,56.6005,171.277)"><g id="surfaces"><path id="Buccal-6" serif:id="Buccal 6" d="M0,-31.301L-15.039,-31.301C-15.121,-30.404 -15.157,-29.612 -15.164,-28.897C-14.318,-29.329 -13.363,-29.577 -12.348,-29.577C-8.921,-29.577 -5.143,-26.799 -5.143,-23.371C-5.143,-19.944 -8.921,-17.166 -12.348,-17.166C-12.89,-17.166 -13.412,-17.242 -13.913,-17.372C-13.894,-17.243 -13.877,-17.128 -13.857,-16.993C-13.628,-15.461 -13.175,-12.5 -12.481,-8.738C-12.045,-6.381 -11.823,-5.188 -11.605,-4.485C-11.154,-3.029 -9.546,-1.728 -8.448,0C-2.159,-2.69 -0.427,-19.416 0,-31.301" style="fill:rgb(74,144,226);fill-opacity:0.7;fill-rule:nonzero;"/></g></g></svg>