<?xml version="1.0" encoding="UTF-8"?>
<svg width="177px" height="260px" viewBox="0 0 177 260" version="1.1" xmlns="http://www.w3.org/2000/svg" xmlns:xlink="http://www.w3.org/1999/xlink">
    <title>41/incisal   13</title>
    <g id="41/incisal---13" stroke="none" stroke-width="1" fill="none" fill-rule="evenodd" fill-opacity="0.7">
        <g id="Group-29" transform="translate(83.237353, 111.311301) scale(-1, 1) translate(-83.237353, -111.311301) translate(77.317789, 105.391737)" fill="#4A90E2">
            <path d="M5.91956391,11.8391278 C2.65039403,11.8391278 0,9.18873379 0,5.91956391 C0,2.65039403 2.65039403,0 5.91956391,0 C9.18873379,0 11.8391278,2.65039403 11.8391278,5.91956391 C11.8391278,9.18873379 9.18873379,11.8391278 5.91956391,11.8391278" id="Fill-1"></path>
            <path d="M7.07823485,0.110433085 C2.90807123,-0.680127568 -0.680127568,2.90807123 0.110433085,7.07823485 C0.54865961,9.39557671 2.44530401,11.2904682 4.76089298,11.7286947 C8.9310566,12.5192554 12.5192554,8.9310566 11.7286947,4.76089298 C11.2904682,2.44530401 9.39557671,0.550412516 7.07823485,0.110433085" id="Fill-3"></path>
        </g>
    </g>
</svg>