<?xml version="1.0" encoding="UTF-8"?>
<svg width="146px" height="260px" viewBox="0 0 146 260" version="1.1" xmlns="http://www.w3.org/2000/svg" xmlns:xlink="http://www.w3.org/1999/xlink">
    <title>44/occlusal 20</title>
    <g id="44/occlusal-20" stroke="none" stroke-width="1" fill="none" fill-rule="evenodd" opacity="0.7">
        <g id="Group-15" transform="translate(37.930381, 99.230699) scale(1, -1) translate(-37.930381, -99.230699) translate(3.075073, 71.000000)" fill="#4A90E2">
            <path d="M69.7106163,14.8924894 C58.0921803,12.9446321 40.3793901,-0.248923082 30.0045596,0.00357693271 C22.2406136,0.192522522 6.92227932,10.2186626 0,15.0333397 C0.118520415,15.3768772 0.228452394,15.7186969 0.360714307,16.0725405 C1.81903072,20.0026087 3.53500021,22.7045306 5.01221118,25.0319968 C6.91884394,28.034514 8.57297669,30.0545141 10.525987,32.4403816 C13.7689804,36.4013682 15.3921948,38.3835792 17.9343718,40.5375589 C20.7805795,42.9491917 23.1423993,44.232304 27.7543894,46.7401273 C29.3758861,47.6213008 32.8765325,49.4643792 37.5761247,51.3916242 C41.2382337,52.8946005 43.6052066,53.8650937 47.0526048,54.6655359 C50.2337615,55.4058591 52.6780303,55.6154169 55.666806,55.8713523 C58.3807517,56.1049578 60.2427246,56.3849408 64.9440344,56.455366 C66.2116876,56.4742605 67.8555142,56.4416245 68.8242898,56.4536483 C60.998507,36.7328818 69.7106163,14.8924894 69.7106163,14.8924894" id="Fill-1"></path>
        </g>
    </g>
</svg>