<?xml version="1.0" encoding="UTF-8" standalone="no"?><!DOCTYPE svg PUBLIC "-//W3C//DTD SVG 1.1//EN" "http://www.w3.org/Graphics/SVG/1.1/DTD/svg11.dtd"><svg width="177px" height="532px" version="1.1" xmlns="http://www.w3.org/2000/svg" xmlns:xlink="http://www.w3.org/1999/xlink" xml:space="preserve" xmlns:serif="http://www.serif.com/" style="fill-rule:evenodd;clip-rule:evenodd;stroke-linejoin:round;stroke-miterlimit:2;"><g transform="matrix(1.9978,0,0,-1.9978,135.961,184.972)"><g id="surfaces"><path id="lingual-29" serif:id="lingual 29" d="M0,32.885C-0.151,30.754 -0.275,29.334 -0.324,28.721C-0.419,27.542 -0.438,26.688 -0.443,25.788C-1.441,26.394 -2.608,26.749 -3.862,26.749C-7.51,26.749 -10.467,23.792 -10.467,20.144C-10.467,16.496 -7.51,13.538 -3.862,13.538C-2.76,13.538 -1.724,13.812 -0.812,14.288C-0.828,14.053 -0.846,13.818 -0.865,13.581C-1.276,8.553 -1.901,5.478 -2.109,4.497C-2.545,2.435 -2.763,1.403 -3.19,0.279C-3.232,0.171 -3.292,0.022 -3.351,-0.122C-6.846,1.05 -12.424,7.094 -13.899,33.007L0.008,33.007C0.006,32.97 0.002,32.92 0,32.885" style="fill:rgb(74,144,226);fill-opacity:0.7;fill-rule:nonzero;"/></g></g></svg>