<?xml version="1.0" encoding="UTF-8"?>
<svg width="180px" height="260px" viewBox="0 0 180 260" version="1.1" xmlns="http://www.w3.org/2000/svg" xmlns:xlink="http://www.w3.org/1999/xlink">
    <title>53/incisal  22</title>
    <g id="53/incisal--22" stroke="none" stroke-width="1" fill="none" fill-rule="evenodd" fill-opacity="0.7">
        <g id="Group-30" transform="translate(29.613373, 129.350719)" fill="#4A90E2">
            <path d="M59.9479668,45.8929061 C51.405049,45.8929061 44.4788644,38.9667215 44.4788644,30.4238037 C44.4788644,21.880886 51.405049,14.9567795 59.9479668,14.9567795 C68.4908846,14.9567795 75.4170692,21.880886 75.4170692,30.4238037 C75.4170692,38.9667215 68.4908846,45.8929061 59.9479668,45.8929061 M88.2885925,3.13675605 C66.267357,-0.412575873 47.425558,-0.655709266 31.5699359,0.948555514 C25.2692483,18.5746875 6.52719647,34.4490121 0,39.5776721 C1.18865214,40.8224319 4.84812141,44.37592 11.3379127,50.6703734 C20.1987742,59.2652427 20.2237109,59.2797892 20.6995874,59.8180075 C22.6072494,61.9812713 23.5215972,63.2384995 25.5913481,64.7118463 C27.7712364,66.2600034 29.3256277,66.6901625 34.1010169,68.3276763 C43.6310147,71.5943916 42.720823,71.6899825 45.1625472,72.1575467 C49.8132526,73.0469578 53.5641567,72.7851218 56.2261556,72.5814716 C58.6616457,72.396524 62.159026,72.1076732 66.4356801,70.6675754 C69.6545999,69.5849045 71.9030643,68.3276763 74.9453488,66.6257425 C77.4930543,65.2022692 77.8068418,64.8510766 82.3910492,61.9459442 C89.3026874,57.565387 90.3396409,57.2515995 94.3045855,54.5002438 C97.3676506,52.3743852 99.5350705,50.6288121 101.324283,49.1824801 C106.184873,45.2507846 108.520616,42.8236068 115.789681,35.9930131 C118.006974,33.9087157 119.58838,32.4436812 120.743783,31.385947 C109.177284,26.6043236 93.7913039,17.7434622 88.2885925,3.13675605" id="Fill-10"></path>
        </g>
    </g>
</svg>