<?xml version="1.0" encoding="UTF-8"?>
<svg width="142px" height="260px" viewBox="0 0 142 260" version="1.1" xmlns="http://www.w3.org/2000/svg" xmlns:xlink="http://www.w3.org/1999/xlink">
    <title>45/occlusal/15</title>
    <g id="45/occlusal/15" stroke="none" stroke-width="1" fill="none" fill-rule="evenodd" fill-opacity="0.7">
        <g id="Group-16" transform="translate(29.799557, 104.937003)" fill="#4A90E2">
            <path d="M84.6071175,20.5456171 C84.6071175,18.6531655 85.682016,16.9357788 87.3661404,16.0937166 C85.0377772,16.9585373 82.8914814,17.4557216 81.1215753,17.34368 C71.0710991,16.6994412 58.3211221,0 44.7710986,0 C30.0411375,0 13.4047197,15.094096 2.24433207,13.7793586 C1.59309063,13.70233 0.87532452,13.5290158 0.12779738,13.313686 C1.40051923,14.166252 2.19356325,15.6175401 2.14979702,17.2071294 L1.84868539,28.2309664 C1.81192176,29.5667117 1.09415565,30.7554024 0,31.4364048 C0.62148041,31.2840984 1.21845173,31.1703062 1.76815553,31.1230386 C13.5412703,30.1076622 29.3286234,49.6536587 45.2455245,49.6536587 C59.2629713,49.6536587 70.218533,35.8620456 79.4584587,35.6362119 C81.37717,35.590695 83.7930657,36.3207157 86.445299,37.5164089 C85.2986239,36.5465494 84.6071175,35.1162691 84.6071175,33.575698 L84.6071175,20.5456171 Z" id="Fill-10"></path>
        </g>
    </g>
</svg>