<?xml version="1.0" encoding="UTF-8" standalone="no"?><!DOCTYPE svg PUBLIC "-//W3C//DTD SVG 1.1//EN" "http://www.w3.org/Graphics/SVG/1.1/DTD/svg11.dtd"><svg width="180px" height="532px" version="1.1" xmlns="http://www.w3.org/2000/svg" xmlns:xlink="http://www.w3.org/1999/xlink" xml:space="preserve" xmlns:serif="http://www.serif.com/" style="fill-rule:evenodd;clip-rule:evenodd;stroke-linejoin:round;stroke-miterlimit:2;"><g transform="matrix(2.59139,0,0,2.59139,126.846,214.753)"><g id="surfaces"><path id="buccal-1" serif:id="buccal 1" d="M0,-13.868C-2.329,-10.467 -3.877,-8.208 -6.859,-6.086C-10.053,-3.813 -13.101,-2.973 -14.508,-2.657C-16.786,-2.145 -20.012,-1.42 -23.477,-2.789C-25.444,-3.566 -26.592,-4.662 -28.358,-6.35C-28.966,-6.932 -31.046,-8.972 -34.82,-15.187C-35.137,-15.709 -35.42,-16.175 -35.689,-16.619C-35.689,-16.619 -31.144,2.751 -18.993,2.751C-4.748,2.751 0.964,-15.338 0.964,-15.338C0.585,-14.735 0.254,-14.238 0,-13.868" style="fill:rgb(74,144,226);fill-opacity:0.7;fill-rule:nonzero;"/></g></g></svg>