<?xml version="1.0" encoding="UTF-8"?>
<svg width="142px" height="260px" viewBox="0 0 142 260" version="1.1" xmlns="http://www.w3.org/2000/svg" xmlns:xlink="http://www.w3.org/1999/xlink">
    <title>45/occlusal/18</title>
    <defs>
        <polygon id="path-1" points="3.1097774e-15 0 70.4408655 0 70.4408655 48.7992616 3.1097774e-15 48.7992616"></polygon>
    </defs>
    <g id="45/occlusal/18" stroke="none" stroke-width="1" fill="none" fill-rule="evenodd">
        <g id="Group-7" transform="translate(6.754013, 70.000000)">
            <path d="M19.8208484,46.9884706 L19.8173471,46.9884706 C13.6393067,44.238201 5.85767169,38.7936825 3.1097774e-15,34.3575378 C2.66273719,27.7891026 5.86292364,23.2619242 7.48052335,21.0193428 C9.9524398,17.5968239 11.881655,15.6991203 12.9758107,14.6924971 C16.1514881,11.7689132 19.0750719,10.0987941 20.9675236,9.03089814 C24.1712113,7.22597898 26.6973979,6.27187525 30.4595427,4.86960537 C33.071511,3.89449386 36.418752,2.64628109 40.2824344,1.70443191 C42.6037951,1.14072292 46.6723034,0.305663323 55.9349875,0.0605724568 C61.379506,-0.0829807645 66.2620662,0.0413153174 70.4408655,0.270650342 C67.839401,7.95950093 65.5810637,19.6993534 67.8166425,34.9370026 C53.0866815,34.9370026 36.4502637,50.0328493 25.289876,48.7181119 C24.6421359,48.6410833 23.9296217,48.4747717 23.1855959,48.2594419 C23.1855959,48.2576912 23.1838452,48.2576912 23.1838452,48.2576912 C22.1404584,47.9565796 21.0060378,47.515416 19.8208484,46.9884706" id="Fill-5" fill-opacity="0.7" fill="#4A90E2"></path>
        </g>
    </g>
</svg>
