<?xml version="1.0" encoding="UTF-8"?>
<svg width="142px" height="532px" viewBox="0 0 142 532" version="1.1" xmlns="http://www.w3.org/2000/svg" xmlns:xlink="http://www.w3.org/1999/xlink">
    <title>45/buccal/10</title>
    <g id="45/buccal/10" stroke="none" stroke-width="1" fill="none" fill-rule="evenodd">
        <g id="Group-18" transform="translate(70.708028, 179.031356) scale(1, -1) translate(-70.708028, -179.031356) translate(12.030868, 165.691997)"></g>
        <g id="Group-24" transform="translate(32.547719, 111.000000)" fill="#4A90E2" fill-opacity="0.7">
            <path d="M0,26.3821608 L0,9.42647243 C0.822167412,9.01625416 1.72741701,8.50564493 2.76075163,7.78906112 C7.63317535,4.41384753 8.83613609,3.70764899 12.0832646,2.09793175 C16.2408354,0.0364551384 19.2629498,-0.38587928 21.3140411,0.311664862 C22.3525683,0.664764129 22.9202966,0.91574155 25.1427449,2.02869659 C27.9588847,3.43763191 27.9588847,3.27666018 30.4150016,4.42250192 C33.5063511,5.86778569 32.3882034,5.47314533 35.0935669,6.60167829 C36.1095928,7.02574358 37.0286894,7.54154546 41.0304811,8.87259122 C43.1698472,9.58225152 44.3174199,10.018433 45.072083,10.3784557 C44.0595189,15.5226274 43.1231135,20.8554649 42.2957535,26.3821608 L0,26.3821608 Z" id="Fill-13"></path>
        </g>
    </g>
</svg>