<?xml version="1.0" encoding="UTF-8"?>
<svg width="180px" height="260px" viewBox="0 0 180 260" version="1.1" xmlns="http://www.w3.org/2000/svg" xmlns:xlink="http://www.w3.org/1999/xlink">
    <title>43/incisal  12</title>
    <g id="43/incisal--12" stroke="none" stroke-width="1" fill="none" fill-rule="evenodd" fill-opacity="0.7">
        <g id="Group-29" transform="translate(39.593877, 79.000000)" fill="#4A90E2">
            <path d="M52.6345274,36.3970577 C47.6974714,36.3970577 43.6958342,32.3954205 43.6958342,27.4583645 C43.6958342,22.5213084 47.6974714,18.5196712 52.6345274,18.5196712 C57.5715834,18.5196712 61.5732206,22.5213084 61.5732206,27.4583645 C61.5732206,32.3954205 57.5715834,36.3970577 52.6345274,36.3970577 M72.7582521,5.25716568 C70.5719051,3.64629007 69.8697855,3.06193105 68.3611172,2.32648302 C65.4393221,0.90002489 62.8485897,0.544521306 56.0540275,0.273449824 C48.7550945,-0.0153968372 45.106739,-0.159820168 43.158135,0.273449824 C39.4720072,1.09777376 37.0368077,2.49534722 32.3152757,5.25716568 C29.5356821,6.88359457 26.1050725,9.07438541 20.008186,13.7559232 C12.2915364,19.6772798 8.43432251,22.639069 4.47490135,26.9428843 C2.71071482,28.8626036 1.24648444,30.6623405 0,32.3087665 C7.09229648,33.6419049 18.1840083,36.6636854 24.9563515,43.0427528 C38.9654146,44.5158708 55.1319401,45.4046297 71.5850903,44.6202999 C73.1470841,28.3004636 81.8169278,18.2485997 86.0296452,14.2736253 C79.3972815,9.51654299 79.4172786,10.1586713 72.7582521,5.25716568" id="Fill-13"></path>
        </g>
    </g>
</svg>