<?xml version="1.0" encoding="UTF-8"?>
<svg width="142px" height="532px" viewBox="0 0 142 532" version="1.1" xmlns="http://www.w3.org/2000/svg" xmlns:xlink="http://www.w3.org/1999/xlink">
    <title>55/buccal  8</title>
    <g id="55/buccal--8" stroke="none" stroke-width="1" fill="none" fill-rule="evenodd" fill-opacity="0.7">
        <g id="Group-35" transform="translate(61.389564, 420.373413)" fill="#4A90E2">
            <path d="M0,0 C0.771480739,7.62692926 2.14763557,15.725963 4.31473192,24.2279135 C5.65891547,23.2443625 6.89050455,22.3028668 6.89050455,22.3028668 C6.89050455,22.3028668 11.0342596,25.3539098 12.5146686,26.2235045 C14.3606622,27.3088022 18.2569874,29.1307456 20.2266959,29.9867742 C21.7001546,30.6284564 26.1705727,32.4422601 26.1705727,32.4422601 C26.1705727,32.4422601 31.8128076,33.7269812 33.255685,33.9087686 C35.0683173,34.1366811 38.9674226,33.935901 40.5632062,33.7473305 C42.2201522,33.5506203 46.3791979,32.6823822 47.737282,32.2686125 C48.0861859,32.162796 48.5351738,31.9945748 49.0189131,31.8032911 L49.0189131,0 L0,0 Z" id="Fill-1"></path>
        </g>
    </g>
</svg>