<?xml version="1.0" encoding="UTF-8"?>
<svg width="177px" height="532px" viewBox="0 0 177 532" version="1.1" xmlns="http://www.w3.org/2000/svg" xmlns:xlink="http://www.w3.org/1999/xlink">
    <title>51/lingual 34</title>
    <g id="51/lingual-34" stroke="none" stroke-width="1" fill="none" fill-rule="evenodd" fill-opacity="0.7">
        <g id="Group-21" transform="translate(90.002777, 353.704000) scale(1, -1) translate(-90.002777, -353.704000) translate(32.803941, 333.000000)" fill="#4A90E2">
            <path d="M0,0 C0,0 17.6904116,41.8951104 58.8112432,41.4037101 C99.9320748,40.9106933 114.397672,5.01099013 114.397672,5.01099013 C114.397672,5.01099013 114.391206,5.02068882 114.379891,5.03685331 C109.84252,11.3814134 104.55835,15.186533 102.075485,16.9258315 C87.3658047,27.2420054 71.2740606,26.6083576 59.4157949,26.1395876 C41.0206118,25.4154187 27.8190775,19.5347793 22.5543049,16.9258315 C14.5755155,12.9703822 6.37365616,8.9017815 0.396029865,0.564140502 C0.214987641,0.334604825 0.0824388699,0.14386391 0,0" id="Fill-19"></path>
        </g>
    </g>
</svg>