<?xml version="1.0" encoding="UTF-8" standalone="no"?><!DOCTYPE svg PUBLIC "-//W3C//DTD SVG 1.1//EN" "http://www.w3.org/Graphics/SVG/1.1/DTD/svg11.dtd"><svg width="180px" height="532px" version="1.1" xmlns="http://www.w3.org/2000/svg" xmlns:xlink="http://www.w3.org/1999/xlink" xml:space="preserve" xmlns:serif="http://www.serif.com/" style="fill-rule:evenodd;clip-rule:evenodd;stroke-linejoin:round;stroke-miterlimit:2;"><g transform="matrix(2.60653,0,0,-2.60653,127.618,149.441)"><g id="surfaces"><path id="lingual-29" serif:id="lingual 29" d="M0,9.852C0,6.623 2.617,4.006 5.846,4.006C6.274,4.006 6.521,4.047 6.923,4.134C6.837,3.676 6.653,3.088 6.504,2.596C5.74,0.087 5.153,-1.088 3.951,-3.611C2.737,-6.16 1.999,-7.669 1.532,-8.833C1.497,-8.919 1.33,-9.428 1.281,-9.506C-0.723,-7.779 -4.727,-1.624 -5.68,19.217L4.99,19.104C5.473,18.314 5.932,17.388 6.359,16.154C6.426,15.961 6.481,15.832 6.538,15.644C6.231,15.694 6.168,15.698 5.846,15.698C2.617,15.698 0,13.081 0,9.852" style="fill:rgb(74,144,226);fill-opacity:0.7;fill-rule:nonzero;"/></g></g></svg>