<?xml version="1.0" encoding="UTF-8" standalone="no"?><!DOCTYPE svg PUBLIC "-//W3C//DTD SVG 1.1//EN" "http://www.w3.org/Graphics/SVG/1.1/DTD/svg11.dtd"><svg width="145px" height="532px" version="1.1" xmlns="http://www.w3.org/2000/svg" xmlns:xlink="http://www.w3.org/1999/xlink" xml:space="preserve" xmlns:serif="http://www.serif.com/" style="fill-rule:evenodd;clip-rule:evenodd;stroke-linejoin:round;stroke-miterlimit:2;"><g transform="matrix(1.97612,0,0,1.97612,101.387,157.731)"><g id="surfaces"><path id="Buccal-3" serif:id="Buccal 3" d="M0,-16.517C0,-19.944 2.778,-22.723 6.206,-22.723C6.875,-22.723 7.519,-22.614 8.123,-22.418C8.12,-23.053 8.115,-23.737 8.109,-24.447L-5.291,-24.447C-4.765,-11.352 -2.797,7.929 4.246,7.93C4.999,6.068 5.781,3.752 6.49,0.625C7.538,-4.002 7.18,-3.51 7.753,-10.514C7.258,-10.386 6.741,-10.311 6.206,-10.311C2.778,-10.311 0,-13.09 0,-16.517" style="fill:rgb(74,144,226);fill-opacity:0.7;fill-rule:nonzero;"/></g></g></svg>