<?xml version="1.0" encoding="UTF-8"?>
<svg width="146px" height="532px" viewBox="0 0 146 532" version="1.1" xmlns="http://www.w3.org/2000/svg" xmlns:xlink="http://www.w3.org/1999/xlink">
    <title>54/lingual  24</title>
    <g id="54/lingual--24" stroke="none" stroke-width="1" fill="none" fill-rule="evenodd" fill-opacity="0.7">
        <g id="Group-17" transform="translate(74.720453, 392.561496) scale(1, -1) translate(-74.720453, -392.561496) translate(12.485887, 360.320648)" fill="#4A90E2">
            <path d="M61.1892126,43.9744833 C54.7081828,43.9744833 49.4546944,38.7209949 49.4546944,32.2399652 C49.4546944,25.7605548 54.7081828,20.5070664 61.1892126,20.5070664 C67.6702423,20.5070664 72.9237307,25.7605548 72.9237307,32.2399652 C72.9237307,38.7209949 67.6702423,43.9744833 61.1892126,43.9744833 L61.1892126,43.9744833 Z M112.57105,33.8383601 C108.072224,33.8383601 104.426847,30.1913638 104.426847,25.6941575 L104.426847,0 L17.951578,0 L17.951578,25.3330206 C17.951578,30.029419 14.1442564,33.8383601 9.44785799,33.8383601 L0,33.8383601 C1.78625083,43.7607162 2.19921,51.2117952 2.89395307,52.176986 C4.70287617,54.68713 6.40167683,54.4976546 16.2122911,57.0320903 C30.0877191,60.6143086 37.0238137,62.4070372 41.1728388,63.0110912 C57.6588165,65.41921 70.3115616,64.3260828 78.8735816,63.5325534 C90.4056688,62.4637179 96.3036974,61.856425 102.794444,58.3325068 C111.173466,53.7818587 116.182418,47.2392899 118.394584,44.2918951 C121.155742,40.6108904 122.974382,37.2132891 124.469132,33.8383601 L112.57105,33.8383601 Z" id="Fill-7"></path>
        </g>
    </g>
</svg>