<?xml version="1.0" encoding="UTF-8"?>
<svg width="177px" height="532px" viewBox="0 0 177 532" version="1.1" xmlns="http://www.w3.org/2000/svg" xmlns:xlink="http://www.w3.org/1999/xlink">
    <title>51/buccal  2</title>
    <g id="51/buccal--2" stroke="none" stroke-width="1" fill="none" fill-rule="evenodd" fill-opacity="0.7">
        <g id="Group-21" transform="translate(31.145555, 346.779754)" fill="#4A90E2">
            <path d="M94.1361536,7.31333266 C99.739169,10.0542366 107.658054,13.942571 113.543887,20.812608 C107.011615,24.4924656 91.8493735,39.4672394 88.0095221,99.5279445 L30.8125445,99.5279445 C26.7981545,39.4688555 9.29256954,32.5131652 0,31.4271466 C0.366854485,30.911611 0.748253861,30.3960754 1.15227862,29.8789237 C2.98816715,27.5258835 4.89839622,25.5623231 7.44213613,23.3110972 C15.1816345,16.4620694 26.5266498,6.42447818 44.0839499,2.01737606 C47.5553307,1.14468258 70.4893923,-4.25470435 94.1361536,7.31333266 M30.8125445,49.7634064 L87.0624881,49.7488615 C87.0624881,49.7488615 78.185256,4.76636055 59.2623522,4.76636055 C40.9681109,4.76636055 30.8125445,49.7634064 30.8125445,49.7634064" id="Fill-1"></path>
        </g>
    </g>
</svg>