<?xml version="1.0" encoding="UTF-8"?>
<svg width="142px" height="260px" viewBox="0 0 142 260" version="1.1" xmlns="http://www.w3.org/2000/svg" xmlns:xlink="http://www.w3.org/1999/xlink">
    <title>55/occlusal  17</title>
    <g id="55/occlusal--17" stroke="none" stroke-width="1" fill="none" fill-rule="evenodd" fill-opacity="0.7">
        <g id="Group-15" transform="translate(0.038491, 139.324148)" fill="#4A90E2">
            <path d="M23.8840428,0.541905131 C25.0900887,0.238458421 26.1939535,0.0402891405 27.1166792,0.00777699295 C33.5293133,-0.216711645 42.5661421,4.45884481 51.4373138,8.84643652 C52.3399129,9.3588899 84.2916129,27.8350789 59.3191872,61.7793091 C58.611661,61.7452487 57.9707072,61.708092 57.4458683,61.6662906 C53.9407491,61.3922597 44.972041,60.2744611 44.972041,60.2744611 L32.7691483,57.4892538 L21.0957391,53.3772412 C21.0957391,53.3772412 16.8412924,51.5581092 15.6569213,50.5920339 C12.3685498,47.9059113 6.86935231,41.161963 5.04557565,37.3270777 C2.55452588,32.0879774 0.503164188,20.4346948 0.137789578,14.6444362 C0.071217085,13.5870173 0.0294157525,12.4568331 0,11.3049742 C5.06415402,8.50892947 13.4491917,4.11204857 20.1250193,1.71079424 C21.4611138,1.22930482 22.7244429,0.832966261 23.8840428,0.541905131" id="Fill-11"></path>
        </g>
    </g>
</svg>