<?xml version="1.0" encoding="UTF-8"?>
<svg width="146px" height="260px" viewBox="0 0 146 260" version="1.1" xmlns="http://www.w3.org/2000/svg" xmlns:xlink="http://www.w3.org/1999/xlink">
    <title>44/occlusal 15</title>
    <g id="44/occlusal-15" stroke="none" stroke-width="1" fill="none" fill-rule="evenodd" opacity="0.7">
        <g id="Group-15" transform="translate(42.660891, 167.064907) scale(1, -1) translate(-42.660891, -167.064907) translate(8.071825, 143.790967)" fill="#4A90E2">
            <path d="M69.1781333,0.541004891 C67.5428951,0.553028702 65.7599358,0.55989945 63.8052078,0.556464076 C52.119782,0.53585183 52.4908024,-0.0704917431 50.3247989,0.0068041798 C50.3247989,0.0068041798 40.2454105,0.364083112 31.5436073,2.62284175 C30.0698317,3.00588599 28.250801,3.55554589 26.2033179,4.69093711 C24.7158008,5.51542695 23.9376885,6.18876033 22.0688448,7.61959374 C19.3583345,9.69284216 19.7688617,9.21532513 15.8662764,12.0993219 C11.7575687,15.1344751 9.70493254,16.6511929 8.11263653,18.1301216 C5.95350375,20.1346625 4.05545942,21.9262102 2.42709198,24.8497138 C1.49610553,26.5193057 1.13023816,27.7062276 0.35899662,30.0182345 C0.231887769,30.3995611 0.116802728,30.7396631 0,31.0866359 C6.65603781,36.4681499 18.6077052,45.5237967 24.6917532,46.4187117 C34.4482163,47.8546982 51.6611595,36.8992893 63.2469595,34.2884048 C63.2469595,34.2884048 62.7196295,22.3642205 69.1781333,0.541004891" id="Fill-7"></path>
        </g>
    </g>
</svg>