<?xml version="1.0" encoding="UTF-8" standalone="no"?><!DOCTYPE svg PUBLIC "-//W3C//DTD SVG 1.1//EN" "http://www.w3.org/Graphics/SVG/1.1/DTD/svg11.dtd"><svg width="145px" height="532px" version="1.1" xmlns="http://www.w3.org/2000/svg" xmlns:xlink="http://www.w3.org/1999/xlink" xml:space="preserve" xmlns:serif="http://www.serif.com/" style="fill-rule:evenodd;clip-rule:evenodd;stroke-linejoin:round;stroke-miterlimit:2;"><g transform="matrix(1.99745,0,0,-1.99745,117.023,178.307)"><g id="surfaces"><path id="lingual-29" serif:id="lingual 29" d="M0,30.908C-0.142,28.905 -0.259,27.571 -0.305,26.995C-0.394,25.886 -0.412,25.084 -0.416,24.237C-1.354,24.807 -2.452,25.141 -3.629,25.141C-7.058,25.141 -9.838,22.361 -9.838,18.933C-9.838,15.504 -7.058,12.724 -3.629,12.724C-2.594,12.724 -1.621,12.981 -0.763,13.429C-0.779,13.208 -0.795,12.987 -0.813,12.765C-1.199,8.038 -1.787,5.149 -1.982,4.226C-2.392,2.288 -2.597,1.319 -2.998,0.262C-3.037,0.16 -3.094,0.021 -3.149,-0.115C-6.435,0.986 -11.678,6.667 -13.063,31.023L0.008,31.023C0.005,30.988 0.002,30.941 0,30.908" style="fill:rgb(74,144,226);fill-opacity:0.7;fill-rule:nonzero;"/></g></g></svg>