<?xml version="1.0" encoding="UTF-8" standalone="no"?><!DOCTYPE svg PUBLIC "-//W3C//DTD SVG 1.1//EN" "http://www.w3.org/Graphics/SVG/1.1/DTD/svg11.dtd"><svg width="177px" height="532px" version="1.1" xmlns="http://www.w3.org/2000/svg" xmlns:xlink="http://www.w3.org/1999/xlink" xml:space="preserve" xmlns:serif="http://www.serif.com/" style="fill-rule:evenodd;clip-rule:evenodd;stroke-linejoin:round;stroke-miterlimit:2;"><g transform="matrix(1.9978,0,0,1.9978,136.097,102.181)"><g id="surfaces"><path id="buccal-8" serif:id="buccal 8" d="M0,0.438C-0.007,0.019 -0.486,-1.041 -1.116,-1.908C-1.716,-2.734 -2.592,-3.088 -2.98,-3.239C-3.621,-3.489 -3.96,-3.466 -5.643,-3.639C-7.06,-3.784 -6.988,-3.818 -7.904,-3.906C-9.969,-4.103 -12.538,-4.227 -13.001,-4.217C-13.422,-4.207 -13.898,-4.226 -14.402,-4.26C-14.395,-2.011 -14.351,1.131 -14.208,4.698L0.054,4.698C0.043,3.399 0.026,1.992 0,0.438" style="fill:rgb(74,144,226);fill-opacity:0.7;fill-rule:nonzero;"/></g></g></svg>