<?xml version="1.0" encoding="UTF-8" standalone="no"?><!DOCTYPE svg PUBLIC "-//W3C//DTD SVG 1.1//EN" "http://www.w3.org/Graphics/SVG/1.1/DTD/svg11.dtd"><svg width="177px" height="532px" version="1.1" xmlns="http://www.w3.org/2000/svg" xmlns:xlink="http://www.w3.org/1999/xlink" xml:space="preserve" xmlns:serif="http://www.serif.com/" style="fill-rule:evenodd;clip-rule:evenodd;stroke-linejoin:round;stroke-miterlimit:2;"><g transform="matrix(1.9978,0,0,-1.9978,135.977,93.7554)"><g id="surfaces"><path id="lingual-25" serif:id="lingual 25" d="M0,-12.651L-13.907,-12.651C-14.122,-8.871 -14.251,-4.673 -14.272,0C-13.738,-0.015 -12.938,-0.028 -10.336,-0.12C-8.317,-0.192 -7.232,-0.24 -5.794,-0.553C-4.723,-0.786 -4.131,-1.019 -3.253,-1.364C-2.019,-1.849 -1.683,-2.123 -1.468,-2.337C-0.989,-2.815 -0.798,-3.312 -0.495,-4.122C-0.33,-4.563 -0.052,-5.402 0.1,-6.663C0.148,-7.064 0.207,-7.7 0.154,-9.583C0.115,-10.948 0.046,-11.998 0,-12.651" style="fill:rgb(74,144,226);fill-opacity:0.7;fill-rule:nonzero;"/></g></g></svg>