<?xml version="1.0" encoding="UTF-8"?>
<svg width="142px" height="532px" viewBox="0 0 142 532" version="1.1" xmlns="http://www.w3.org/2000/svg" xmlns:xlink="http://www.w3.org/1999/xlink">
    <title>55/buccal  3</title>
    <g id="55/buccal--3" stroke="none" stroke-width="1" fill="none" fill-rule="evenodd" fill-opacity="0.7">
        <g id="Group-35" transform="translate(60.588289, 354.181278)" fill="#4A90E2">
            <path d="M65.1302582,35.3981712 L60.0718466,23.1912859 C60.0718466,23.1912859 56.217223,17.0064459 54.4476825,15.3500103 C51.171322,12.2840444 42.9533146,8.17483621 38.8623816,6.25521599 C34.30578,4.11717961 24.5781724,1.05121374 19.5823134,0.296931869 C17.8280635,0.0323905661 13.0532232,-0.0123779621 8.96924049,0.00254488063 C5.21887106,9.31711199 -2.5028866,33.5070401 0.804055159,66.1921355 L49.816018,66.1880656 L49.8201882,49.5789417 C49.8201882,41.7471625 56.3256474,35.3981712 64.349047,35.3981712 L65.1302582,35.3981712 Z M11.6117358,44.520098 C6.64089772,44.520098 2.61112716,40.5872506 2.61112716,35.7359701 C2.61112716,30.8846896 6.64089772,26.9518422 11.6117358,26.9518422 C16.5825738,26.9518422 20.6123444,30.8846896 20.6123444,35.7359701 C20.6123444,40.5872506 16.5825738,44.520098 11.6117358,44.520098 L11.6117358,44.520098 Z" id="Fill-33"></path>
        </g>
    </g>
</svg>