<?xml version="1.0" encoding="UTF-8" standalone="no"?><!DOCTYPE svg PUBLIC "-//W3C//DTD SVG 1.1//EN" "http://www.w3.org/Graphics/SVG/1.1/DTD/svg11.dtd"><svg width="145px" height="532px" version="1.1" xmlns="http://www.w3.org/2000/svg" xmlns:xlink="http://www.w3.org/1999/xlink" xml:space="preserve" xmlns:serif="http://www.serif.com/" style="fill-rule:evenodd;clip-rule:evenodd;stroke-linejoin:round;stroke-miterlimit:2;"><g transform="matrix(1.99745,0,0,-1.99745,35.2776,116.34)"><g id="surfaces"><path id="lingual-32" serif:id="lingual 32" d="M0,-27.406C-0.127,-27.094 -0.243,-26.8 -0.343,-26.543C-1.435,-23.72 -0.768,-23.99 -1.743,-18.077C-1.225,-18.217 -0.682,-18.299 -0.118,-18.299C3.31,-18.299 6.09,-15.519 6.09,-12.091C6.09,-8.662 3.31,-5.882 -0.118,-5.882C-1.481,-5.882 -2.737,-6.327 -3.761,-7.071C-3.998,-5.335 -4.159,-3.524 -4.143,-1.691C-4.138,-1.101 -4.115,-0.532 -4.082,0L9.724,0C7.823,-23.277 2.338,-26.936 0,-27.406" style="fill:rgb(74,144,226);fill-opacity:0.7;fill-rule:nonzero;"/></g></g></svg>