<?xml version="1.0" encoding="UTF-8"?>
<svg width="177px" height="532px" viewBox="0 0 177 532" version="1.1" xmlns="http://www.w3.org/2000/svg" xmlns:xlink="http://www.w3.org/1999/xlink">
    <title>51/lingual 29</title>
    <g id="51/lingual-29" stroke="none" stroke-width="1" fill="none" fill-rule="evenodd" fill-opacity="0.7">
        <g id="Group-21" transform="translate(141.029774, 407.794933) scale(1, -1) translate(-141.029774, -407.794933) translate(121.705371, 369.397009)" fill="#4A90E2">
            <path d="M0,0 C0.693456376,34.5321878 4.48564439,74.5829306 25.4962411,76.7958485 C26.7893998,74.9838098 28.0243664,72.9777973 29.1122362,70.7390162 C31.8456505,65.1105428 33.051521,59.4109456 34.5435029,52.1450099 C35.6588524,46.7088938 36.2116777,42.3234692 36.5769951,39.2263541 C36.5527483,39.2263541 36.5301181,39.2295869 36.5074878,39.2295869 C28.3234094,39.2295869 21.689505,32.5956826 21.689505,24.4132206 C21.689505,16.2291422 28.3234094,9.59523788 36.5074878,9.59523788 C37.2057935,9.59523788 37.8879348,9.65989582 38.5603773,9.75364983 C38.5733089,9.36085286 38.584624,8.97937103 38.5927063,8.60435499 C38.6735287,5.25184095 38.6622135,2.43113844 38.5894734,0 L0,0 Z" id="Fill-3"></path>
        </g>
    </g>
</svg>