<?xml version="1.0" encoding="UTF-8"?>
<svg width="146px" height="260px" viewBox="0 0 146 260" version="1.1" xmlns="http://www.w3.org/2000/svg" xmlns:xlink="http://www.w3.org/1999/xlink">
    <title>44/occlusal  17</title>
    <g id="44/occlusal--17" stroke="none" stroke-width="1" fill="none" fill-rule="evenodd" opacity="0.7">
        <g id="Group-15" transform="translate(72.175051, 134.464350) scale(1, -1) translate(-72.175051, -134.464350) translate(33.852592, 112.328564)" fill="#4A90E2">
            <path d="M0,29.1474675 C11.4604088,29.5648654 30.9132161,44.6358527 41.9940161,44.2648323 C50.697537,43.9728255 65.9660583,34.5856651 75.8891371,33.2733521 C71.7684056,33.718233 71.7684056,15.2960381 76.0231167,15.8869225 C76.2309569,15.9144055 76.4405147,15.9384531 76.6449195,15.960783 C66.6496978,14.7000006 51.2334554,-0.0257315371 41.7569752,0 C40.4463799,0.00346914488 39.0069581,0.202720857 37.4661927,0.549693667 C26.3166852,3.06095232 9.95571487,13.3018033 0.0463775537,12.7899325 C0.37102043,12.8345923 0.65100344,13.2245073 0.884608896,13.8566162 C2.28795932,17.273096 2.07496611,29.1182668 0,29.1474675" id="Fill-11"></path>
        </g>
    </g>
</svg>