<?xml version="1.0" encoding="UTF-8"?>
<svg width="142px" height="532px" viewBox="0 0 142 532" version="1.1" xmlns="http://www.w3.org/2000/svg" xmlns:xlink="http://www.w3.org/1999/xlink">
    <title>55/lingual  24</title>
    <g id="55/lingual--24" stroke="none" stroke-width="1" fill="none" fill-rule="evenodd" fill-opacity="0.7">
        <g id="Group-31" transform="translate(70.221915, 388.138419) scale(-1, -1) translate(-70.221915, -388.138419) translate(65.950303, 365.378435)" fill="#4A90E2">
            <path d="M8.16347171,0 C3.62258452,0.203911007 0,3.93899815 0,8.53051152 C0,13.1107746 3.60570912,16.8402366 8.13393977,17.0582105 C8.70207802,10.6160289 8.64723299,4.97120973 8.16347171,0" id="Fill-19"></path>
            <path d="M4.97261601,36.4269436 C4.97120973,36.4325687 4.96980345,36.4381939 4.96839716,36.443819 C4.96980345,36.4381939 4.97120973,36.4325687 4.97261601,36.4269436" id="Fill-23"></path>
            <path d="M2.65646823,45.4805923 C2.7816274,45.0348007 2.90116143,44.5946342 3.02210176,44.1530614 C2.90116143,44.5946342 2.7816274,45.0348007 2.65646823,45.4805923" id="Fill-25"></path>
            <path d="M3.74774369,41.4234664 C3.87149657,40.9453303 3.99665574,40.4657878 4.1147835,39.9932768 C3.99665574,40.4657878 3.87149657,40.9467365 3.74774369,41.4234664" id="Fill-27"></path>
        </g>
    </g>
</svg>