<?xml version="1.0" encoding="UTF-8"?>
<svg width="142px" height="260px" viewBox="0 0 142 260" version="1.1" xmlns="http://www.w3.org/2000/svg" xmlns:xlink="http://www.w3.org/1999/xlink">
    <title>45/occlusal/13</title>
    <g id="45/occlusal/13" stroke="none" stroke-width="1" fill="none" fill-rule="evenodd" fill-opacity="0.7">
        <g id="Group-16" transform="translate(2.086783, 136.023506)" fill="#4A90E2">
            <path d="M69.6390682,18.2975553 C54.8618396,15.9464336 40.4347409,-0.907064722 29.4826805,0.0382857605 C28.9277248,0.0855532846 28.3255015,0.204597419 27.7022704,0.356903886 C27.0720368,0.47769867 25.6925253,0.941620666 24.636884,1.37403098 C17.1948749,4.41315771 7.05511563,11.9321953 0,17.5832904 C0.0525194712,18.9978149 0.262597356,20.7764743 0.992618006,22.7652116 C2.48942294,26.8442239 5.27645621,29.382665 6.32159369,30.2579895 C8.74099066,32.2852411 9.50077234,31.8353243 13.6480599,34.4210329 C16.2845374,36.0648924 18.012428,37.5144298 20.4738405,39.5819463 C25.8693409,44.112626 25.7012786,45.0387194 29.1325507,47.2427865 C31.6955009,48.8866459 33.9205758,49.7409627 36.9579519,50.9051443 C39.7975046,51.994048 42.0680965,52.8641206 45.2840387,53.4330815 C51.0506767,54.4519592 55.7284109,53.7727074 57.6051067,53.4330815 C60.2660932,52.951653 60.4639166,52.9481517 63.1231525,52.7975959 C66.9308141,52.5822661 69.3992293,52.4492167 73.4747402,52.6452894 C64.9770898,35.502934 69.6390682,18.2975553 69.6390682,18.2975553" id="Fill-3"></path>
        </g>
    </g>
</svg>