<?xml version="1.0" encoding="UTF-8" standalone="no"?><!DOCTYPE svg PUBLIC "-//W3C//DTD SVG 1.1//EN" "http://www.w3.org/Graphics/SVG/1.1/DTD/svg11.dtd"><svg width="180px" height="532px" version="1.1" xmlns="http://www.w3.org/2000/svg" xmlns:xlink="http://www.w3.org/1999/xlink" xml:space="preserve" xmlns:serif="http://www.serif.com/" style="fill-rule:evenodd;clip-rule:evenodd;stroke-linejoin:round;stroke-miterlimit:2;"><g id="surfaces"><path id="buccal-4" serif:id="buccal 4" d="M107.41,101.912C108.941,129.246 113.984,164.139 129.346,175.007C128.361,176.57 127.503,177.855 126.845,178.817C120.81,187.627 116.798,193.484 109.073,198.98C100.794,204.873 92.895,207.047 89.249,207.869C83.346,209.196 74.989,211.074 66.007,207.527C60.912,205.513 57.937,202.67 53.361,198.299C51.783,196.791 46.395,191.504 36.613,175.399C35.791,174.046 35.058,172.836 34.364,171.685C52.682,165.085 57.873,126.227 59.319,101.912L107.41,101.912ZM55.937,151.125C55.937,151.125 64.377,205.684 79.581,205.684C95.308,205.684 102.686,151.143 102.686,151.143L55.937,151.125Z" style="fill:rgb(74,144,226);fill-opacity:0.7;"/></g></svg>