<?xml version="1.0" encoding="UTF-8" standalone="no"?><!DOCTYPE svg PUBLIC "-//W3C//DTD SVG 1.1//EN" "http://www.w3.org/Graphics/SVG/1.1/DTD/svg11.dtd"><svg width="177px" height="532px" version="1.1" xmlns="http://www.w3.org/2000/svg" xmlns:xlink="http://www.w3.org/1999/xlink" xml:space="preserve" xmlns:serif="http://www.serif.com/" style="fill-rule:evenodd;clip-rule:evenodd;stroke-linejoin:round;stroke-miterlimit:2;"><g transform="matrix(1.9978,0,0,1.9978,70.7707,178.124)"><g id="surfaces"><path id="buccal-6" serif:id="buccal 6" d="M0,-33.315L-14.942,-33.315C-15.029,-32.361 -15.068,-31.517 -15.076,-30.756C-14.176,-31.216 -13.159,-31.48 -12.079,-31.48C-8.431,-31.48 -5.474,-28.523 -5.474,-24.875C-5.474,-21.227 -8.431,-18.27 -12.079,-18.27C-12.655,-18.27 -13.211,-18.351 -13.744,-18.49C-13.723,-18.352 -13.705,-18.23 -13.684,-18.087C-13.441,-16.456 -12.959,-13.304 -12.219,-9.299C-11.756,-6.791 -11.52,-5.522 -11.287,-4.773C-10.807,-3.224 -10.16,-1.839 -8.991,0C-2.298,-2.862 -0.454,-20.665 0,-33.315" style="fill:rgb(74,144,226);fill-opacity:0.7;fill-rule:nonzero;"/></g></g></svg>