<?xml version="1.0" encoding="UTF-8"?>
<svg width="146px" height="532px" viewBox="0 0 146 532" version="1.1" xmlns="http://www.w3.org/2000/svg" xmlns:xlink="http://www.w3.org/1999/xlink">
    <title>44/buccal  1</title>
    <g id="44/buccal--1" stroke="none" stroke-width="1" fill="none" fill-rule="evenodd" opacity="0.7">
        <g id="Group-27" transform="translate(128.297282, 109.917753) scale(1, -1) rotate(-3.000000) translate(-128.297282, -109.917753) translate(112.692897, 95.154131)" fill="#4A90E2">
            <path d="M1.97566223e-12,2.10079981e-12 L1.97566223e-12,29.5272455 C3.61632315,28.5868031 5.97982502,27.9951012 10.0374454,28.0595604 C12.5678799,28.1008803 15.1693848,28.5239968 17.6337073,27.7141255 C19.6203712,27.0612701 21.0830978,25.8530744 21.6020766,25.4167355 C22.18882,24.9225488 23.0515809,24.8366033 24.8217281,22.3111271 C26.7026128,19.6253296 28.4380512,17.0287831 29.0644619,15.6718355 C29.5024535,14.7231292 29.9305283,12.3513633 30.5850365,8.91519518 C31.2031831,5.66414051 31.2329335,2.76347912 31.1998775,2.10079981e-12 L1.97566223e-12,2.10079981e-12 Z" id="Fill-21"></path>
        </g>
    </g>
</svg>