<?xml version="1.0" encoding="UTF-8"?>
<svg width="146px" height="532px" viewBox="0 0 146 532" version="1.1" xmlns="http://www.w3.org/2000/svg" xmlns:xlink="http://www.w3.org/1999/xlink">
    <title>44/lingual  23</title>
    <g id="44/lingual--23" stroke="none" stroke-width="1" fill="none" fill-rule="evenodd" opacity="0.7">
        <g id="Group-23" transform="translate(51.440167, 106.647214) rotate(-1.000000) translate(-51.440167, -106.647214) translate(33.170279, 91.959722)" fill="#4A90E2">
            <path d="M35.0469537,9.31302075 C32.2092133,9.75674015 31.6313461,9.76017984 30.9382495,9.46608674 C29.6965231,8.93637521 29.8031534,8.18308412 28.047194,7.03078954 C27.2921831,6.53547486 26.5302928,6.24482145 25.0030725,5.66007495 C23.1473623,4.95149977 22.7277207,4.95321961 20.8943684,4.29108019 C19.2691171,3.70461384 18.0514685,3.14394514 17.2431425,2.76901944 C14.6341412,1.5616899 14.3452076,1.15752687 12.6769602,0.638134389 C12.1489685,0.474749336 11.0413899,0.137660176 9.63283872,0.0310299311 C8.62157124,-0.0463629885 7.0031993,-0.0394836178 4.30648601,0.791200385 C3.71829982,0.971783864 2.12228584,1.49117635 5.54001547e-13,2.57467722 L5.54001547e-13,29.3749853 L34.0288068,29.3749853 C34.6341914,20.2873367 35.7452098,13.2480207 36.5397771,9.07912215 C36.0857386,9.14963569 35.600743,9.22702861 35.0469537,9.31302075" id="Fill-17"></path>
        </g>
    </g>
</svg>