<?xml version="1.0" encoding="UTF-8" standalone="no"?><!DOCTYPE svg PUBLIC "-//W3C//DTD SVG 1.1//EN" "http://www.w3.org/Graphics/SVG/1.1/DTD/svg11.dtd"><svg width="180px" height="532px" version="1.1" xmlns="http://www.w3.org/2000/svg" xmlns:xlink="http://www.w3.org/1999/xlink" xml:space="preserve" xmlns:serif="http://www.serif.com/" style="fill-rule:evenodd;clip-rule:evenodd;stroke-linejoin:round;stroke-miterlimit:2;"><g transform="matrix(2.59139,0,0,2.59139,45.6457,171.685)"><g id="surfaces"><path id="buccal-6" serif:id="buccal 6" d="M0,-26.925C-0.601,-26.297 -1.185,-25.649 -1.771,-24.947C-3.605,-22.748 -4.975,-21.094 -5.982,-19.251C-3.151,-18.844 -0.973,-16.416 -0.973,-13.472C-0.973,-10.243 -3.59,-7.625 -6.819,-7.625C-7.107,-7.625 -7.388,-7.653 -7.665,-7.693C-7.432,-6.373 -7.117,-5.354 -6.915,-4.767C-6.549,-3.698 -5.776,-2.352 -4.354,0C2.715,-2.547 4.718,-17.542 5.276,-26.925L0,-26.925Z" style="fill:rgb(74,144,226);fill-opacity:0.7;fill-rule:nonzero;"/></g></g></svg>