<?xml version="1.0" encoding="UTF-8"?>
<svg width="146px" height="532px" viewBox="0 0 146 532" version="1.1" xmlns="http://www.w3.org/2000/svg" xmlns:xlink="http://www.w3.org/1999/xlink">
    <title>54/lingual  20</title>
    <g id="54/lingual--20" stroke="none" stroke-width="1" fill="none" fill-rule="evenodd" fill-opacity="0.7">
        <g id="Group-17" transform="translate(130.680469, 436.896379) scale(1, -1) translate(-130.680469, -436.896379) translate(116.912734, 424.802344)" fill="#4A90E2">
            <path d="M26.188089,18.5588708 C24.4779523,14.4195625 21.8852165,12.0907967 21.2487735,11.538565 C18.9961217,9.58713049 16.8454952,7.72314617 14.2284676,7.89804652 C13.3377714,7.95796608 12.4600307,7.57253753 11.5207511,6.95228905 C10.6656827,6.3871018 10.5426046,6.28345714 9.80737538,5.29883293 C9.04299606,4.27372253 8.14582202,3.9708858 6.42758799,3.21784262 C4.82757365,2.5182412 3.28100108,1.71175624 0.187855935,0.0987863108 C0.118219683,0.063158461 0.0663973564,0.0356278498 0,0 L0,24.1880711 L27.5354695,24.1880711 C27.3476136,22.1087002 26.9168405,20.3224494 26.188089,18.5588708" id="Fill-5"></path>
        </g>
    </g>
</svg>