<?xml version="1.0" encoding="UTF-8"?>
<svg width="142px" height="260px" viewBox="0 0 142 260" version="1.1" xmlns="http://www.w3.org/2000/svg" xmlns:xlink="http://www.w3.org/1999/xlink">
    <title>55/occlusal 12</title>
    <g id="55/occlusal-12" stroke="none" stroke-width="1" fill="none" fill-rule="evenodd" fill-opacity="0.7">
        <g id="Group-15" transform="translate(5.063941, 63.239566)" fill="#4A90E2">
            <path d="M60.5066547,0.795773515 C58.5079317,0.862346008 54.5476425,0 52.5473714,0 C50.8815109,0 47.5637236,0.413368733 45.9148933,0.66262853 C42.3137859,1.21069045 35.188981,2.85952078 31.7225668,3.97886758 C27.0268838,5.49610113 22.6145209,7.78124064 18.0597238,9.68242717 C14.2124531,11.9381509 8.81698477,14.9679734 5.98842793,18.8353708 C3.2187026,22.6238101 1.02181035,30.2471346 0,34.4195268 C4.46964618,37.2449873 10.8079668,41.0458121 16.0006212,43.3712048 C18.3616224,44.4286237 20.4857493,45.1794995 22.0912301,45.3962471 C28.4775448,46.2585931 38.0376644,43.1947103 47.4027111,40.166436 C47.4011629,40.1633396 35.7122717,9.12972066 60.5066547,0.795773515" id="Fill-1"></path>
        </g>
    </g>
</svg>