<?xml version="1.0" encoding="UTF-8"?>
<svg width="146px" height="260px" viewBox="0 0 146 260" version="1.1" xmlns="http://www.w3.org/2000/svg" xmlns:xlink="http://www.w3.org/1999/xlink">
    <title>54/occlusal  17</title>
    <g id="54/occlusal--17" stroke="none" stroke-width="1" fill="none" fill-rule="evenodd" fill-opacity="0.7">
        <g id="Group-24" transform="translate(19.611737, 126.729497)" fill="#4A90E2">
            <path d="M98.8772799,6.57170944 C97.9614511,7.14318665 97.0338996,7.72199049 96.0829029,8.32423955 C80.6632755,18.0789159 79.0777926,20.2813012 71.2925146,23.7848961 C65.0604824,26.5895304 54.2375832,31.3152073 39.8378228,30.7158889 C26.4169004,30.1561343 16.7457476,25.2560836 12.3820062,22.984828 C7.51272732,20.451279 3.41421,17.5924276 0.0219798927,14.786328 L0,14.7687441 C2.27418623,13.0821537 4.6289654,11.3691874 6.82988532,9.82619889 C6.8621225,9.80421899 6.89289435,9.7822391 6.9236662,9.76025921 C9.64770756,7.85386985 12.1270395,6.21270453 13.8561244,5.26610382 C18.4206154,2.76918801 28.881579,-0.684585798 34.0234086,0.118412948 C39.461234,0.966836806 48.738214,7.05819773 54.2214646,6.59515466 C59.9977804,6.10573572 69.430085,-0.329976863 75.2093315,0.118412948 C80.6193157,0.537496236 91.9301685,2.72083224 97.0353649,5.26610382 C97.637614,5.56649568 98.3336439,5.96799506 99.0897522,6.43836476 C99.0194166,6.48085922 98.9461503,6.52628433 98.8772799,6.57024412 L98.8772799,6.57170944 Z" id="Fill-6"></path>
        </g>
    </g>
</svg>