<?xml version="1.0" encoding="UTF-8"?>
<svg width="142px" height="532px" viewBox="0 0 142 532" version="1.1" xmlns="http://www.w3.org/2000/svg" xmlns:xlink="http://www.w3.org/1999/xlink">
    <title>45/lingual/24</title>
    <g id="45/lingual/24" stroke="none" stroke-width="1" fill="none" fill-rule="evenodd" fill-opacity="0.7">
        <g id="Group-26" transform="translate(72.216474, 144.272704)" fill="#4A90E2">
            <path d="M49.4669412,12.2046323 C45.0726344,12.2046323 41.516353,8.62704513 41.5447607,4.23273834 L41.5713928,0 L3.04708224,0 C2.61209025,3.02186269 2.18420018,6.26743554 1.79537061,9.6941071 C5.89849909,10.414951 9.02333947,13.9747833 9.02333947,18.2856427 C9.02333947,23.0971867 5.13681925,26.9961352 0.332377157,27.0245429 C0.0589536232,32.2071617 -0.0635543237,37.5353696 0.0323214608,42.8635776 C11.1095255,41.4449711 19.5821041,39.2664602 26.4833851,37.4536977 C46.5320769,32.1858559 44.119203,29.9203467 54.3477288,26.4776958 C55.5355233,26.0764379 58.3904911,25.1567406 59.9209527,22.5929511 C60.6275927,21.4051566 60.3932297,20.9701646 61.2703156,19.0473225 C62.2486037,16.9025457 62.9002039,16.6575298 64.8177196,13.8114394 C65.1106734,13.3764474 65.4746463,12.8189475 65.8563739,12.2046323 L49.4669412,12.2046323 Z" id="Fill-9"></path>
        </g>
    </g>
</svg>