<?xml version="1.0" encoding="UTF-8"?>
<svg width="142px" height="532px" viewBox="0 0 142 532" version="1.1" xmlns="http://www.w3.org/2000/svg" xmlns:xlink="http://www.w3.org/1999/xlink">
    <title>55/lingual  19</title>
    <g id="55/lingual--19" stroke="none" stroke-width="1" fill="none" fill-rule="evenodd" fill-opacity="0.7">
        <g id="Group-31" transform="translate(91.150596, 408.773825) scale(-1, -1) translate(-91.150596, -408.773825) translate(68.819880, 365.378435)" fill="#4A90E2">
            <path d="M32.1546564,9.68991762 C31.8944941,9.9374234 31.6568323,10.1188339 31.341825,10.2369616 C30.1478909,9.72929354 28.7837965,8.49035839 25.1893377,6.39218444 C23.0967889,5.17153096 23.2050726,5.78888911 18.7302807,3.9325958 C14.5086197,2.18036742 14.186581,1.5362899 11.1954174,0.702364192 C8.13393977,-0.14984319 6.44499411,-0.0415594139 5.50419091,0.0878186045 C3.85462118,0.312823854 2.6747499,0.848617604 1.65941371,1.31831606 C1.05893096,1.59676006 0.513293225,1.88926688 0,2.20005538 L0,24.644329 L43.1925702,24.5852651 C39.8765553,16.6299233 35.3539498,12.0904424 32.1546564,9.68991762" id="Fill-5"></path>
            <path d="M43.9604006,77.6977543 C43.9589943,77.7033794 43.957588,77.7090045 43.9561818,77.7146297 C43.957588,77.7090045 43.9589943,77.7033794 43.9604006,77.6977543" id="Fill-23"></path>
            <path d="M41.6442528,86.751403 C41.769412,86.3056113 41.888946,85.8654448 42.0098864,85.423872 C41.888946,85.8654448 41.769412,86.3056113 41.6442528,86.751403" id="Fill-25"></path>
            <path d="M42.7355283,82.6942771 C42.8592812,82.2161409 42.9844403,81.7365985 43.1025681,81.2640875 C42.9844403,81.7365985 42.8592812,82.2175472 42.7355283,82.6942771" id="Fill-27"></path>
        </g>
    </g>
</svg>