<?xml version="1.0" encoding="UTF-8"?>
<svg width="146px" height="260px" viewBox="0 0 146 260" version="1.1" xmlns="http://www.w3.org/2000/svg" xmlns:xlink="http://www.w3.org/1999/xlink">
    <title>44/occlusal 19</title>
    <g id="44/occlusal-19" stroke="none" stroke-width="1" fill="none" fill-rule="evenodd" opacity="0.7">
        <g id="Group-15" transform="translate(104.101484, 97.241018) scale(1, -1) translate(-104.101484, -97.241018) translate(68.637036, 71.003621)" fill="#4A90E2">
            <path d="M3.26232659,52.4706659 C6.04326213,52.5050197 7.73346631,52.3160741 9.05608544,52.2336251 C13.0016129,51.9879958 15.9216811,51.4503598 20.0836371,50.6825536 C23.0071407,50.1449175 25.047753,49.7618733 27.837277,48.9597134 C31.2623452,47.9737609 33.8182638,46.9294071 34.728638,46.5480806 C37.3841823,45.4350193 37.0131619,45.3663118 39.8971587,44.1364478 C43.4991487,42.6008354 44.4662066,42.5424341 46.962006,41.2060734 C48.3876864,40.4434203 49.3152375,39.7958523 50.7512239,38.7944406 C52.6973635,37.4374678 55.4010031,35.5531649 58.3330951,32.5918723 C61.1981973,29.6992871 62.9347791,27.1399332 64.3621771,25.0117187 C65.6229595,23.1342867 67.3887419,20.4753069 69.0153917,16.741055 C69.6200176,15.3497284 70.1662421,13.6303235 70.9288952,10.9696261 C62.4555444,6.45554419 50.0727375,0.395543832 43.9921249,0.0193703405 C43.4338766,-0.014983403 42.8412745,-0.0012419056 42.2314956,0.0417002738 C42.1645058,0.0451356482 42.0992336,0.0485710225 42.0339615,0.0520063969 C32.1606956,0.857601682 16.191358,10.8425172 7.20957172,11.1431125 C6.24766691,11.1740309 5.22392535,11.0915819 4.14865318,10.909507 C4.14865318,10.909507 -4.56345618,32.7498995 3.26232659,52.4706659" id="Fill-3"></path>
        </g>
    </g>
</svg>