<?xml version="1.0" encoding="UTF-8"?>
<svg width="142px" height="260px" viewBox="0 0 142 260" version="1.1" xmlns="http://www.w3.org/2000/svg" xmlns:xlink="http://www.w3.org/1999/xlink">
    <title>55/occlusal  13</title>
    <g id="55/occlusal--13" stroke="none" stroke-width="1" fill="none" fill-rule="evenodd" fill-opacity="0.7">
        <g id="Group-15" transform="translate(115.335845, 99.284700)" fill="#4A90E2">
            <path d="M24.8733518,0 C19.5491006,3.19238325 11.399389,7.82459017 4.72046498,10.5138092 C3.7822573,10.8915694 2.88585095,11.2151427 2.01886035,11.507752 C0.825200072,12.1719287 0.0557459146,13.4337097 0.0526495196,14.8348284 L0,38.0887549 C-0.00308559039,39.4418795 0.65954294,40.6866303 1.73089561,41.4591809 C2.75580236,41.9019654 3.83025142,42.4237079 4.94340542,43.0197639 C8.90679102,45.1438909 13.280449,48.083918 17.0286351,50.7870708 C17.9420716,49.1413369 19.2642323,46.7540163 19.8757703,45.3993435 C20.5740074,43.8495978 21.7893424,40.6649555 22.2630909,39.0316072 C23.1687864,35.9088928 24.4646277,29.5179335 24.9167014,26.2976827 C25.368775,23.0712392 25.8843248,16.5564241 25.8721581,13.2990165 C25.8595537,10.0431572 25.3579377,3.98351217 24.8733518,0" id="Fill-9"></path>
        </g>
    </g>
</svg>