<?xml version="1.0" encoding="UTF-8"?>
<svg width="180px" height="532px" viewBox="0 0 180 532" version="1.1" xmlns="http://www.w3.org/2000/svg" xmlns:xlink="http://www.w3.org/1999/xlink">
    <title>53/buccal  4</title>
    <g id="53/buccal--4" stroke="none" stroke-width="1" fill="none" fill-rule="evenodd" fill-opacity="0.7">
        <g id="Group-21" transform="translate(34.982388, 341.547348)" fill="#4A90E2">
            <path d="M117.93752,24.9343208 C123.869862,30.6568631 127.366527,33.7179436 129.730273,36.6871119 C121.496126,37.7141324 94.8535357,44.9871959 86.2537376,95.5449776 L32.6888238,95.5449776 C31.4959615,43.8003278 25.9032954,27.4738987 0,25.9213794 C6.57373046,15.2855231 18.0507845,10.6099823 27.3239405,6.97544864 C33.4241226,4.58372968 48.0961295,-0.475445253 67.7334009,0.0360669047 C80.1535555,0.359758192 90.0700978,0.61951046 99.9786478,6.97544864 C104.728118,10.0205445 102.360376,9.90465498 117.93752,24.9343208 M32.6888238,60.6702385 L93.6187134,60.6522557 C93.6187134,60.6522557 84.0018852,5.0372971 63.5054332,5.0372971 C43.6903314,5.0372971 32.6888238,60.6702385 32.6888238,60.6702385" id="Fill-3"></path>
        </g>
    </g>
</svg>