<?xml version="1.0" encoding="UTF-8"?>
<svg width="177px" height="260px" viewBox="0 0 177 260" version="1.1" xmlns="http://www.w3.org/2000/svg" xmlns:xlink="http://www.w3.org/1999/xlink">
    <title>41/incisal  12</title>
    <g id="41/incisal--12" stroke="none" stroke-width="1" fill="none" fill-rule="evenodd" fill-opacity="0.7">
        <g id="Group-29" transform="translate(88.094655, 105.391753) scale(-1, 1) translate(-88.094655, -105.391753) translate(53.297716, 87.000000)" fill="#4A90E2">
            <path d="M39.6542419,30.230865 C36.385072,30.230865 33.734678,27.580471 33.734678,24.3113011 C33.734678,21.0421312 36.385072,18.3917372 39.6542419,18.3917372 C42.9234118,18.3917372 45.5738058,21.0421312 45.5738058,24.3113011 C45.5738058,27.580471 42.9234118,30.230865 39.6542419,30.230865 M68.6420501,15.0016168 C64.2229738,10.8752758 64.6909997,10.7560782 61.8390215,8.32655034 C59.2745199,6.14418224 56.7380648,4.01615423 52.8536248,2.29480044 C50.6309399,1.30966721 47.5440722,-0.0207885244 43.3546267,7.10542736e-15 C42.7358508,0.00375216109 40.0872097,0.0458219076 36.8075224,1.13963532 C33.9292505,2.09672205 32.185109,3.32375632 28.07805,6.27389729 C22.2548959,10.4545783 18.8454935,13.4608123 17.8253022,14.251373 C11.8654214,18.8527515 12.470174,18.2988332 7.92488849,21.6766832 C5.94059878,23.1526302 3.12367868,25.0773211 0,27.4156978 C3.59871623,28.9915604 9.43238774,32.0644048 13.628845,36.7534286 C23.6414446,36.9111902 36.7356532,36.4624462 53.840511,35.0723917 C58.2946454,23.958967 66.0372316,18.0919902 69.5938781,15.8780698 C69.2888725,15.5993578 68.9943842,15.3311631 68.6420501,15.0016168" id="Fill-1"></path>
        </g>
    </g>
</svg>