<?xml version="1.0" encoding="UTF-8"?>
<svg width="212px" height="260px" viewBox="0 0 212 260" version="1.1" xmlns="http://www.w3.org/2000/svg" xmlns:xlink="http://www.w3.org/1999/xlink">
    <!-- Generator: Sketch 61 (89581) - https://sketch.com -->
    <title>46/occlusal/16</title>
    <desc>Created with Sketch.</desc>
    <g id="46/occlusal/16" stroke="none" stroke-width="1" fill="none" fill-rule="evenodd" opacity="0.7">
        <path d="M170.2851,58.8822 C156.7921,52.6872 140.1041,49.8072 126.1011,47.0312 C123.9011,46.5952 121.7221,46.1782 119.5561,45.7832 C119.4461,45.7622 119.3351,45.7412 119.2241,45.7212 C117.1261,45.3402 115.0451,44.9852 112.9731,44.6552 C112.8481,44.6352 112.7231,44.6142 112.5981,44.5952 C109.8491,61.0282 117.5071,71.2962 114.9821,85.5822 C113.3531,94.8032 108.6501,103.9032 103.7191,109.1142 C114.3651,108.5642 122.2511,114.9822 130.6871,116.4222 C139.0101,117.8462 150.4471,116.6682 165.0001,112.8902 C186.4361,100.3812 196.9401,92.9622 203.1361,88.9922 C194.7921,76.9262 181.8791,64.2062 170.2851,58.8822" id="Fill-163" fill="#4A90E2"></path>
    </g>
</svg>