<?xml version="1.0" encoding="UTF-8"?>
<svg width="196px" height="532px" viewBox="0 0 196 532" version="1.1" xmlns="http://www.w3.org/2000/svg" xmlns:xlink="http://www.w3.org/1999/xlink">
    <!-- Generator: Sketch 61 (89581) - https://sketch.com -->
    <title>17/lingual/19</title>
    <desc>Created with Sketch.</desc>
    <g id="17/lingual/19" stroke="none" stroke-width="1" fill="none" fill-rule="evenodd" opacity="0.7">
        <path d="M96.6639,427.2173 C96.3519,427.2173 96.0409,427.2193 95.7309,427.2193 C95.4749,447.0853 94.3069,461.9013 93.4739,475.2423 C93.5389,475.2833 93.6029,475.3283 93.6669,475.3703 C93.9299,475.5423 94.1899,475.7173 94.4529,475.8943 C94.6119,476.0003 94.7729,476.1073 94.9319,476.2153 C95.2099,476.4053 95.4859,476.5943 95.7629,476.7853 C95.9069,476.8843 96.0509,476.9843 96.1949,477.0833 C96.5129,477.3043 96.8249,477.5233 97.1359,477.7413 C97.2279,477.8073 97.3209,477.8703 97.4119,477.9353 C97.8509,478.2443 98.2869,478.5513 98.7089,478.8513 C98.7479,478.8783 98.7849,478.9053 98.8239,478.9323 C99.1549,479.1663 99.4829,479.3973 99.7989,479.6193 C99.9809,479.7463 100.1509,479.8643 100.3279,479.9873 C100.5129,480.1153 100.7019,480.2473 100.8799,480.3703 C101.0979,480.5203 101.3019,480.6563 101.5089,480.7963 C101.6339,480.8803 101.7679,480.9723 101.8889,481.0523 C102.2089,481.2643 102.5159,481.4623 102.8019,481.6403 C107.2919,484.4233 120.0539,490.6843 127.0799,490.6843 C129.2109,490.6843 131.4849,490.1473 133.8969,489.2343 L133.8969,427.9173 C121.8639,427.4583 109.4139,427.2173 96.6639,427.2173" id="Fill-19" fill="#4A90E2"></path>
    </g>
</svg>