<?xml version="1.0" encoding="UTF-8"?>
<svg width="212px" height="532px" viewBox="0 0 212 532" version="1.1" xmlns="http://www.w3.org/2000/svg" xmlns:xlink="http://www.w3.org/1999/xlink">
    <!-- Generator: Sketch 61 (89581) - https://sketch.com -->
    <title>46/buccal/9</title>
    <desc>Created with Sketch.</desc>
    <g id="46/buccal/9" stroke="none" stroke-width="1" fill="none" fill-rule="evenodd" opacity="0.7">
        <path d="M107.1914,114.9197 C111.1454,114.9197 115.0754,114.8967 118.9874,114.8587 C119.6684,112.7497 120.3374,110.6957 120.9844,108.6597 C128.3784,85.4147 118.4024,80.6627 116.5314,79.5017 C114.2504,78.0857 111.6994,76.4347 109.0544,74.7277 C108.5104,74.3767 107.0484,73.4357 106.6114,73.1537 L105.7894,72.6277 C97.4474,67.2707 89.5344,62.4287 85.6464,62.4117 C82.1114,62.3967 79.0544,62.4117 75.2154,62.4117 C73.3684,62.4117 71.2694,62.7697 69.0324,63.3827 L69.0324,114.3087 C81.4964,114.7087 94.2324,114.9197 107.1914,114.9197" id="Fill-30" fill="#4A90E2"></path>
    </g>
</svg>