<?xml version="1.0" encoding="UTF-8"?>
<svg width="146px" height="532px" viewBox="0 0 146 532" version="1.1" xmlns="http://www.w3.org/2000/svg" xmlns:xlink="http://www.w3.org/1999/xlink">
    <!-- Generator: Sketch 61 (89581) - https://sketch.com -->
    <title>12/buccal/8</title>
    <desc>Created with Sketch.</desc>
    <g id="12/buccal/8" stroke="none" stroke-width="1" fill="none" fill-rule="evenodd" opacity="0.7">
        <path d="M98.0168819,451.3928 C90.8283056,451.4308 83.4705625,451.4508 75.9728542,451.4508 C66.8912222,451.4508 58.0099722,451.4218 49.3955625,451.3678 C51.0741389,465.0998 52.1092778,479.6388 52.377125,494.7188 C52.3942431,494.7208 52.4113611,494.7178 52.4284792,494.7188 C56.328375,494.8438 58.8880278,496.1138 63.5944861,497.4828 C68.3029583,498.8508 73.2641736,499.1228 78.1166389,499.5268 C81.8272292,499.8348 87.4278542,499.8348 94.9205278,499.5268 C95.1954236,499.4888 95.5116042,499.4538 95.8267778,499.4178 C95.8267778,499.3668 95.8247639,499.3158 95.8247639,499.2648 C95.6566042,482.5788 96.4369861,466.4988 98.0168819,451.3928" id="Fill-1" fill="#4A90E2"></path>
    </g>
</svg>