<?xml version="1.0" encoding="UTF-8"?>
<svg width="142px" height="532px" viewBox="0 0 142 532" version="1.1" xmlns="http://www.w3.org/2000/svg" xmlns:xlink="http://www.w3.org/1999/xlink">
    <!-- Generator: Sketch 61 (89581) - https://sketch.com -->
    <title>15/buccal/3</title>
    <desc>Created with Sketch.</desc>
    <g id="15/buccal/3" stroke="none" stroke-width="1" fill="none" fill-rule="evenodd" opacity="0.7">
        <path d="M115.007,387.2948 L132.562,387.2948 C128.913,374.1078 125.157,362.3058 123.224,358.9328 C117.468,348.8888 94.696,325.1078 75.107,326.3188 C55.515,327.5298 23.509,360.3478 17.652,374.9868 C15.901,379.3668 14.078,383.4178 12.297,387.2948 L27.007,387.2948 C34.186,387.2948 40.007,393.1148 40.007,400.2948 L40.007,441.0358 C50.106,441.1978 60.451,441.2858 71.003,441.2858 C81.558,441.2858 91.904,441.1978 102.007,441.0358 L102.007,400.2948 C102.007,393.1148 107.827,387.2948 115.007,387.2948" id="Fill-7" fill="#4A90E2"></path>
    </g>
</svg>