<?xml version="1.0" encoding="UTF-8"?>
<svg width="180px" height="532px" viewBox="0 0 180 532" version="1.1" xmlns="http://www.w3.org/2000/svg" xmlns:xlink="http://www.w3.org/1999/xlink">
    <!-- Generator: Sketch 61 (89581) - https://sketch.com -->
    <title>13/buccal/8</title>
    <desc>Created with Sketch.</desc>
    <g id="13/buccal/8" stroke="none" stroke-width="1" fill="none" fill-rule="evenodd" opacity="0.7">
        <path d="M118.9131,482.994 C112.2281,483.028 105.4891,483.046 98.6901,483.046 C90.4461,483.046 82.2911,483.018 74.2181,482.97 C74.8051,491.423 75.1601,500.102 75.2491,508.961 C75.2981,513.851 75.2631,518.686 75.1541,523.463 C82.4741,526.471 87.4381,527.99 87.6261,528.072 C91.2481,529.662 97.0101,531.99 101.5061,531.977054 C106.6881,531.962 113.0991,530.718 117.5891,528.072 C117.8481,527.919 118.2871,527.688 118.8611,527.388 C118.5821,521.706 118.4061,515.936 118.3481,510.086 C118.2551,500.848 118.4551,491.8 118.9131,482.994" id="Fill-1" fill="#4A90E2"></path>
    </g>
</svg>