<?xml version="1.0" encoding="UTF-8"?>
<svg width="180px" height="532px" viewBox="0 0 180 532" version="1.1" xmlns="http://www.w3.org/2000/svg" xmlns:xlink="http://www.w3.org/1999/xlink">
    <!-- Generator: Sketch 61 (89581) - https://sketch.com -->
    <title>43/buccal/4</title>
    <desc>Created with Sketch.</desc>
    <g id="43/buccal/4" stroke="none" stroke-width="1" fill="none" fill-rule="evenodd" opacity="0.7">
        <path d="M108.8707,87.2855 C106.6537,79.5185 104.9747,71.8425 103.8017,64.3785 C101.1277,64.3615 98.4467,64.3495 95.7467,64.3495 C90.1947,64.3495 84.7087,64.3925 79.2727,64.4635 C78.1007,71.9005 76.4267,79.5485 74.2167,87.2855 C64.1007,122.7095 45.5167,150.7005 26.6477,162.2435 C28.7677,169.3005 31.0187,175.4045 32.9387,178.8875 C43.0977,197.3215 63.4627,226.5965 90.0187,226.5965 C113.5097,226.5965 135.0527,215.0255 143.2887,189.9525 C146.3417,180.6585 149.4047,169.8835 152.0857,159.2865 C134.7557,146.3415 118.2067,119.9795 108.8707,87.2855" id="Fill-10" fill="#4A90E2"></path>
    </g>
</svg>