<?xml version="1.0" encoding="UTF-8"?>
<svg width="212px" height="532px" viewBox="0 0 212 532" version="1.1" xmlns="http://www.w3.org/2000/svg" xmlns:xlink="http://www.w3.org/1999/xlink">
    <!-- Generator: Sketch 61 (89581) - https://sketch.com -->
    <title>16/buccal/3</title>
    <desc>Created with Sketch.</desc>
    <g id="16/buccal/3" stroke="none" stroke-width="1" fill="none" fill-rule="evenodd" opacity="0.7">
        <path d="M88.7816,421.5471 C90.7386,428.7431 92.4526,435.8821 93.9526,442.9451 C101.2576,442.8081 108.6606,442.7351 116.1516,442.7351 C125.0096,442.7351 133.7426,442.8371 142.3356,443.0281 L142.3356,415.8921 C142.3356,408.7131 148.1556,402.8921 155.3356,402.8921 L200.9876,402.8921 C199.2556,397.7291 197.4706,393.5231 195.8446,391.3441 C195.4326,390.7921 193.1776,383.3861 190.3076,374.2681 C187.6086,365.6931 130.6506,361.4501 102.2756,361.4501 C98.4606,361.4501 94.7446,361.4861 91.1356,361.5621 C86.5296,382.9661 83.7656,403.1021 88.7816,421.5471" id="Fill-1" fill="#4A90E2"></path>
    </g>
</svg>