<?xml version="1.0" encoding="UTF-8"?>
<svg width="196px" height="260px" viewBox="0 0 196 260" version="1.1" xmlns="http://www.w3.org/2000/svg" xmlns:xlink="http://www.w3.org/1999/xlink">
    <!-- Generator: Sketch 61 (89581) - https://sketch.com -->
    <title>47/occlusal/12</title>
    <desc>Created with Sketch.</desc>
    <g id="47/occlusal/12" stroke="none" stroke-width="1" fill="none" fill-rule="evenodd" opacity="0.7">
        <path d="M71.9438,110.3314 C82.8778,112.6554 89.8148,105.0114 99.4778,107.0644 C114.3988,110.2364 111.2078,120.7404 125.0498,122.6564 C132.5158,123.6894 141.6448,122.7814 152.4338,119.9314 C143.7828,126.9094 138.5408,133.1954 136.7078,138.7894 C134.2458,146.2984 133.6178,154.7974 134.8248,164.2884 C126.9868,153.7834 120.1198,148.4674 114.2228,148.3404 C103.2288,148.1034 98.2898,153.0624 88.5118,150.9514 C78.7698,148.8474 75.0338,140.7794 67.7888,137.4874 C61.1378,134.4664 52.4568,137.1894 41.7438,145.6564 C46.2068,136.5074 49.1638,128.4694 50.6138,121.5424 C52.0638,114.6154 50.2908,105.7874 45.2948,95.0584 C56.1488,103.7704 65.0328,108.8624 71.9438,110.3314" id="Fill-4" fill="#4A90E2"></path>
    </g>
</svg>