<?xml version="1.0" encoding="UTF-8"?>
<svg width="212px" height="260px" viewBox="0 0 212 260" version="1.1" xmlns="http://www.w3.org/2000/svg" xmlns:xlink="http://www.w3.org/1999/xlink">
    <!-- Generator: Sketch 61 (89581) - https://sketch.com -->
    <title>46/occlusal/12</title>
    <desc>Created with Sketch.</desc>
    <g id="46/occlusal/12" stroke="none" stroke-width="1" fill="none" fill-rule="evenodd" opacity="0.7">
        <path d="M78.3955,116.4222 C88.8125,114.5582 89.4995,109.8522 103.7185,109.1142 C114.3655,108.5642 122.2505,114.9822 130.6875,116.4222 C139.0095,117.8462 150.4475,116.6682 164.9995,112.8902 C156.6935,118.8302 152.3495,125.2192 151.9665,132.0562 C151.5605,139.2992 154.3645,147.4202 160.3785,156.4212 C145.6175,148.5682 135.7205,144.8692 130.6875,145.3212 C123.2165,145.9932 111.1415,154.6032 100.5385,152.2552 C91.7015,150.2992 86.8765,144.5002 78.3955,144.0842 C69.3245,143.6402 61.5665,146.8882 55.1195,153.8292 C61.3695,144.1812 64.6685,136.2442 65.0175,130.0212 C65.3665,123.7972 60.5725,117.3282 50.6365,110.6142 C63.4145,115.5122 72.6675,117.4472 78.3955,116.4222" id="Fill-4" fill="#4A90E2"></path>
    </g>
</svg>