<?xml version="1.0" encoding="UTF-8"?>
<svg width="196px" height="532px" viewBox="0 0 196 532" version="1.1" xmlns="http://www.w3.org/2000/svg" xmlns:xlink="http://www.w3.org/1999/xlink">
    <!-- Generator: Sketch 61 (89581) - https://sketch.com -->
    <title>47/lingual/25</title>
    <desc>Created with Sketch.</desc>
    <g id="47/lingual/25" stroke="none" stroke-width="1" fill="none" fill-rule="evenodd" opacity="0.7">
        <path d="M111.5561,127.5364 C109.9641,127.5444 108.3731,127.5534 106.7761,127.5534 C92.7151,127.5534 78.9101,127.2484 65.4341,126.6644 L65.4341,145.9534 C65.4341,153.1324 59.6141,158.9534 52.4341,158.9534 L13.3841,158.9534 C13.4631,159.2854 13.5361,159.6134 13.6191,159.9474 C14.0421,161.6584 14.4921,163.3834 14.9931,165.1264 C15.1301,165.6044 15.2731,166.0734 15.4481,166.5304 C20.7011,180.3114 64.8181,188.1284 93.3251,188.1284 L100.2031,188.1014 C100.2031,163.6924 104.2691,153.5634 108.0741,139.2334 C109.1471,135.1904 110.4001,131.2764 111.5561,127.5364" id="Fill-5" fill="#4A90E2"></path>
    </g>
</svg>