<?xml version="1.0" encoding="UTF-8"?>
<svg width="146px" height="532px" viewBox="0 0 146 532" version="1.1" xmlns="http://www.w3.org/2000/svg" xmlns:xlink="http://www.w3.org/1999/xlink">
    <!-- Generator: Sketch 61 (89581) - https://sketch.com -->
    <title>14/buccal/3</title>
    <desc>Created with Sketch.</desc>
    <g id="14/buccal/3" stroke="none" stroke-width="1" fill="none" fill-rule="evenodd" opacity="0.699999988">
        <path d="M110,379.8908 L131.387,379.8908 C127.633,370.2648 124.385,362.3698 123.459,360.0958 C120.258,352.2258 90.564,305.2888 62.17,307.0448 C34.871,308.7328 21.922,346.1008 16.066,360.7408 C13.695,366.6668 11.334,373.1528 9.174,379.8908 L30,379.8908 C37.18,379.8908 43,385.7108 43,392.8908 L43,440.1808 C52.748,440.3808 62.772,440.4868 73.004,440.4868 C81.146,440.4868 89.154,440.4188 97,440.2908 L97,392.8908 C97,385.7108 102.82,379.8908 110,379.8908" id="Fill-7" fill="#4A90E2"></path>
    </g>
</svg>