<?xml version="1.0" encoding="UTF-8"?>
<svg width="183px" height="260px" viewBox="0 0 183 260" version="1.1" xmlns="http://www.w3.org/2000/svg" xmlns:xlink="http://www.w3.org/1999/xlink">
    <!-- Generator: Sketch 61 (89581) - https://sketch.com -->
    <title>48/occlusal/16</title>
    <desc>Created with Sketch.</desc>
    <g id="48/occlusal/16" stroke="none" stroke-width="1" fill="none" fill-rule="evenodd" opacity="0.7">
        <path d="M133.5749,115.4654 C133.6579,115.4584 133.7369,115.4554 133.8199,115.4474 C134.4019,115.3954 134.9979,115.3284 135.6049,115.2494 C135.7879,115.2254 135.9759,115.1944 136.1609,115.1684 C136.5939,115.1074 137.0299,115.0424 137.4759,114.9674 C137.7129,114.9274 137.9559,114.8814 138.1959,114.8374 C138.6059,114.7624 139.0199,114.6824 139.4419,114.5954 C139.7019,114.5414 139.9639,114.4854 140.2279,114.4264 C140.6549,114.3324 141.0889,114.2304 141.5269,114.1234 C141.7909,114.0584 142.0539,113.9954 142.3219,113.9254 C142.8029,113.8024 143.2949,113.6664 143.7909,113.5274 C144.0279,113.4604 144.2619,113.3984 144.5029,113.3274 C145.2439,113.1114 145.9989,112.8804 146.7739,112.6274 C157.6999,104.9514 171.2859,92.6254 175.6739,88.6804 C166.7619,73.6674 142.6249,52.5004 102.7409,52.5004 C104.0919,58.8874 107.6629,66.4764 104.0919,80.2394 C99.9989,96.0104 101.4689,108.9174 102.6529,109.1364 C102.7399,109.1524 102.8239,109.1714 102.9109,109.1874 C103.0909,109.2224 103.2679,109.2584 103.4459,109.2944 C103.7439,109.3554 104.0389,109.4174 104.3309,109.4824 C104.5109,109.5224 104.6889,109.5634 104.8659,109.6054 C105.1579,109.6734 105.4469,109.7444 105.7329,109.8174 C105.8969,109.8584 106.0609,109.8994 106.2229,109.9424 C106.5399,110.0254 106.8529,110.1114 107.1639,110.1994 C107.2909,110.2354 107.4189,110.2694 107.5439,110.3054 C107.9779,110.4304 108.4079,110.5584 108.8339,110.6904 C108.8879,110.7064 108.9399,110.7234 108.9939,110.7404 C109.3699,110.8574 109.7429,110.9754 110.1139,111.0964 C110.2639,111.1454 110.4139,111.1944 110.5629,111.2434 C110.8419,111.3354 111.1209,111.4274 111.3969,111.5204 C111.5679,111.5774 111.7379,111.6344 111.9089,111.6924 C112.1869,111.7864 112.4659,111.8804 112.7429,111.9754 C113.0559,112.0814 113.3689,112.1874 113.6809,112.2944 C113.8859,112.3634 114.0899,112.4334 114.2939,112.5024 C114.5899,112.6024 114.8859,112.7014 115.1809,112.7994 C115.3089,112.8424 115.4369,112.8854 115.5649,112.9284 C115.9789,113.0654 116.3929,113.1994 116.8089,113.3314 C116.8959,113.3594 116.9839,113.3854 117.0709,113.4124 C117.3999,113.5154 117.7289,113.6174 118.0609,113.7164 C118.2079,113.7594 118.3539,113.8014 118.5019,113.8444 C118.7779,113.9244 119.0549,114.0034 119.3349,114.0804 C119.5009,114.1264 119.6679,114.1704 119.8349,114.2154 C120.1039,114.2864 120.3749,114.3554 120.6469,114.4224 C120.8179,114.4644 120.9879,114.5064 121.1599,114.5464 C121.4429,114.6134 121.7289,114.6764 122.0169,114.7374 C122.1789,114.7734 122.3419,114.8094 122.5059,114.8424 C122.8549,114.9134 123.2099,114.9784 123.5659,115.0404 C123.6699,115.0584 123.7709,115.0794 123.8759,115.0964 C124.3379,115.1734 124.8059,115.2434 125.2819,115.3044 C125.4069,115.3204 125.5369,115.3324 125.6629,115.3474 C126.0159,115.3904 126.3729,115.4294 126.7359,115.4624 C126.9149,115.4784 127.0979,115.4904 127.2789,115.5044 C127.5989,115.5274 127.9219,115.5494 128.2489,115.5654 C128.4469,115.5754 128.6469,115.5834 128.8479,115.5904 C129.1739,115.6004 129.5039,115.6074 129.8369,115.6094 C130.0409,115.611792 130.2449,115.611792 130.4519,115.611792 C130.8059,115.6084 131.1689,115.5974 131.5329,115.5854 C131.7239,115.5784 131.9119,115.5744 132.1059,115.5654 C132.5869,115.5414 133.0769,115.5074 133.5749,115.4654" id="Fill-5" fill="#4A90E2"></path>
    </g>
</svg>