<?xml version="1.0" encoding="UTF-8"?>
<svg width="180px" height="260px" viewBox="0 0 180 260" version="1.1" xmlns="http://www.w3.org/2000/svg" xmlns:xlink="http://www.w3.org/1999/xlink">
    <!-- Generator: Sketch 61 (89581) - https://sketch.com -->
    <title>13/incisal/16</title>
    <desc>Created with Sketch.</desc>
    <g id="13/incisal/16" stroke="none" stroke-width="1" fill="none" fill-rule="evenodd" opacity="0.7">
        <path d="M19.0665,163.3445 C19.0395,163.3035 19.0465,163.3145 19.0665,163.3445 C26.9035,162.7815 34.2555,161.0675 40.7755,158.4475 C42.2255,157.8655 43.6325,157.2385 44.9965,156.5695 C47.7215,155.2305 50.2685,153.7245 52.6055,152.0715 C54.9415,150.4175 57.0675,148.6165 58.9535,146.6915 C59.8965,145.7285 60.7785,144.7345 61.5975,143.7115 C62.0065,143.1995 62.4005,142.6805 62.7775,142.1555 C63.9085,140.5785 64.8915,138.9415 65.7125,137.2505 C67.6295,133.3055 68.6705,129.0755 68.6705,124.6755 C68.6705,123.1495 68.5295,121.6465 68.2865,120.1665 C43.2455,122.4025 20.3975,127.9455 1.4815,135.8955 C3.6085,142.7465 7.6915,146.8735 11.4625,152.1325 C13.7805,155.3625 16.4505,159.3475 19.0665,163.3445" id="Fill-23" fill="#4A90E2"></path>
    </g>
</svg>