<?xml version="1.0" encoding="UTF-8"?>
<svg width="180px" height="260px" viewBox="0 0 180 260" version="1.1" xmlns="http://www.w3.org/2000/svg" xmlns:xlink="http://www.w3.org/1999/xlink">
    <!-- Generator: Sketch 61 (89581) - https://sketch.com -->
    <title>13/incisal/15</title>
    <desc>Created with Sketch.</desc>
    <g id="13/incisal/15" stroke="none" stroke-width="1" fill="none" fill-rule="evenodd" opacity="0.7">
        <path d="M111.3312,124.6751 C111.3312,122.9771 111.5032,121.3091 111.8032,119.6681 C105.7222,119.2681 99.5232,119.0621 93.2312,119.0621 C84.7262,119.0621 76.3932,119.4431 68.2872,120.1671 C68.5302,121.6471 68.6702,123.1491 68.6702,124.6751 C68.6702,129.0761 67.6292,133.3061 65.7122,137.2511 C64.8912,138.9411 63.9082,140.5791 62.7772,142.1551 C62.4002,142.6811 62.0072,143.1991 61.5982,143.7111 C60.7792,144.7341 59.8962,145.7281 58.9532,146.6911 C57.0672,148.6171 54.9412,150.4171 52.6052,152.0711 C50.2682,153.7241 47.7222,155.2311 44.9962,156.5691 C43.6332,157.2381 42.2252,157.8651 40.7762,158.4471 C34.2552,161.0681 26.9032,162.7811 19.0662,163.3441 C19.0812,163.3661 19.1002,163.3961 19.1282,163.4391 C31.3332,163.5041 156.6672,163.5041 164.1412,163.5041 C134.7572,162.5901 111.3312,145.5581 111.3312,124.6751" id="Fill-29" fill="#4A90E2"></path>
    </g>
</svg>