<?xml version="1.0" encoding="UTF-8"?>
<svg width="212px" height="260px" viewBox="0 0 212 260" version="1.1" xmlns="http://www.w3.org/2000/svg" xmlns:xlink="http://www.w3.org/1999/xlink">
    <!-- Generator: Sketch 61 (89581) - https://sketch.com -->
    <title>16/occlusal/16</title>
    <desc>Created with Sketch.</desc>
    <g id="16/occlusal/16" stroke="none" stroke-width="1" fill="none" fill-rule="evenodd" opacity="0.7">
        <path d="M150.7606,156.7805 C130.2206,140.9885 127.0056,155.3225 102.0926,155.3225 C101.5406,155.3225 100.9996,155.3055 100.4636,155.2795 C100.2946,155.2705 100.1296,155.2575 99.9616,155.2465 C99.5926,155.2225 99.2266,155.1945 98.8646,155.1585 C98.6816,155.1405 98.4986,155.1215 98.3176,155.1005 C97.9626,155.0595 97.6106,155.0135 97.2616,154.9625 C97.0996,154.9385 96.9366,154.9165 96.7766,154.8905 C96.3266,154.8185 95.8816,154.7385 95.4406,154.6515 C95.3926,154.6415 95.3436,154.6345 95.2946,154.6245 C94.8046,154.5255 94.3216,154.4145 93.8426,154.2985 C93.6976,154.2635 93.5546,154.2255 93.4106,154.1885 C93.0736,154.1025 92.7386,154.0145 92.4056,153.9225 C92.2406,153.8755 92.0756,153.8285 91.9116,153.7805 C91.5926,153.6885 91.2756,153.5925 90.9596,153.4935 C90.8086,153.4475 90.6576,153.4005 90.5076,153.3525 C90.1246,153.2295 89.7446,153.1035 89.3666,152.9735 C89.2946,152.9485 89.2206,152.9255 89.1486,152.9005 C88.6956,152.7435 88.2466,152.5825 87.7986,152.4185 C87.6656,152.3695 87.5326,152.3195 87.3996,152.2705 C87.0756,152.1505 86.7526,152.0295 86.4306,151.9065 C86.2736,151.8475 86.1176,151.7875 85.9606,151.7275 C85.6426,151.6055 85.3246,151.4825 85.0086,151.3595 C84.8526,151.2985 84.6966,151.2385 84.5416,151.1775 C84.1466,151.0235 83.7526,150.8695 83.3586,150.7165 C82.9226,150.5465 82.4866,150.3775 82.0506,150.2105 C81.9416,150.1685 81.8326,150.1275 81.7236,150.0855 C81.3926,149.9595 81.0626,149.8355 80.7306,149.7125 C80.5786,149.6555 80.4266,149.6005 80.2736,149.5445 C79.9746,149.4355 79.6766,149.3285 79.3766,149.2225 C79.2186,149.1675 79.0616,149.1125 78.9046,149.0575 C78.5716,148.9435 78.2376,148.8315 77.9016,148.7225 C77.7846,148.6845 77.6676,148.6445 77.5496,148.6075 C77.1016,148.4645 76.6516,148.3275 76.1976,148.1975 C76.0946,148.1675 75.9906,148.1415 75.8876,148.1125 C75.5346,148.0135 75.1786,147.9185 74.8216,147.8285 C74.6636,147.7885 74.5046,147.7515 74.3456,147.7145 C74.0316,147.6395 73.7146,147.5685 73.3956,147.5015 C73.2296,147.4665 73.0636,147.4315 72.8966,147.3995 C72.5506,147.3315 72.2016,147.2705 71.8496,147.2135 C71.7156,147.1915 71.5826,147.1665 71.4476,147.1465 C70.9636,147.0735 70.4746,147.0105 69.9786,146.9595 C69.8866,146.9505 69.7916,146.9455 69.6986,146.9365 C69.2946,146.8995 68.8856,146.8685 68.4716,146.8465 C68.3016,146.8375 68.1286,146.8335 67.9556,146.8275 C67.6066,146.8155 67.2546,146.8085 66.8986,146.8085 C66.7146,146.8085 66.5286,146.8095 66.3426,146.8135 C65.9656,146.8205 65.5846,146.8375 65.1996,146.8595 C65.0396,146.8685 64.8816,146.8735 64.7196,146.8855 C64.1756,146.9255 63.6246,146.9785 63.0626,147.0495 C62.9916,147.0585 62.9176,147.0725 62.8456,147.0825 C62.4376,147.1365 62.0226,147.2055 61.6046,147.2785 C67.2316,167.3675 83.0946,176.8315 94.2276,191.8875 C106.8196,208.9165 103.7526,236.9765 107.0376,236.9725 C107.6276,236.9655 108.2176,236.9565 108.8066,236.9475 C108.9956,236.9435 109.1836,236.9415 109.3716,236.9385 C110.2866,236.9215 111.2016,236.9015 112.1156,236.8775 C112.3796,236.8705 112.6426,236.8625 112.9066,236.8555 C113.5686,236.8375 114.2296,236.8165 114.8896,236.7945 C115.2156,236.7835 115.5396,236.7715 115.8646,236.7595 C116.4916,236.7355 117.1186,236.7095 117.7426,236.6815 C118.0496,236.6685 118.3556,236.6555 118.6606,236.6405 C119.4426,236.6035 120.2216,236.5615 120.9976,236.5165 C121.1306,236.5085 121.2636,236.5025 121.3966,236.4945 C122.2936,236.4405 123.1836,236.3805 124.0696,236.3155 C124.3306,236.2965 124.5896,236.2745 124.8496,236.2545 C125.4846,236.2045 126.1166,236.1525 126.7446,236.0965 C127.0496,236.0695 127.3526,236.0415 127.6556,236.0125 C128.2606,235.9555 128.8616,235.8935 129.4596,235.8295 C129.7376,235.8005 130.0176,235.7715 130.2956,235.7395 C131.0846,235.6505 131.8666,235.5555 132.6386,235.4535 C132.7066,235.4445 132.7756,235.4375 132.8426,235.4275 C133.6766,235.3165 134.4976,235.1955 135.3096,235.0675 C135.5546,235.0295 135.7946,234.9875 136.0376,234.9475 C136.6106,234.8525 137.1776,234.7545 137.7386,234.6515 C138.0136,234.6015 138.2866,234.5495 138.5586,234.4965 C139.1066,234.3905 139.6466,234.2795 140.1806,234.1635 C140.4216,234.1125 140.6646,234.0615 140.9026,234.0085 C141.6576,233.8375 142.4036,233.6595 143.1296,233.4695 C162.5396,228.3795 174.6226,218.3145 181.5086,208.5805 C183.5256,205.7295 185.7836,201.2505 188.1356,195.6975 C170.0976,176.7875 162.1796,168.8285 150.7606,156.7805" id="Fill-5" fill="#4A90E2"></path>
    </g>
</svg>