<?xml version="1.0" encoding="UTF-8"?>
<svg width="142px" height="532px" viewBox="0 0 142 532" version="1.1" xmlns="http://www.w3.org/2000/svg" xmlns:xlink="http://www.w3.org/1999/xlink">
    <!-- Generator: Sketch 61 (89581) - https://sketch.com -->
    <title>15/lingual/19</title>
    <desc>Created with Sketch.</desc>
    <g id="15/lingual/19" stroke="none" stroke-width="1" fill="none" fill-rule="evenodd" opacity="0.7">
        <path d="M114.3759,391.3163 L131.9689,391.3163 C128.2859,377.9053 124.4369,365.7403 122.4799,362.3273 C116.8059,352.4263 93.7439,341.3673 74.4309,342.5613 C55.1169,343.7553 22.8529,363.3933 18.1029,378.3223 C16.6469,382.8973 14.8999,387.1703 13.0859,391.3163 L27.6199,391.3163 C34.6979,391.3163 40.4369,397.0543 40.4369,404.1323 L40.4369,444.2943 C50.4639,444.4563 60.7379,444.5443 71.2199,444.5443 C81.5459,444.5443 91.6719,444.4583 101.5599,444.3013 L101.5599,404.1323 C101.5599,397.0543 107.2979,391.3163 114.3759,391.3163" id="Fill-8" fill="#4A90E2"></path>
    </g>
</svg>