<?xml version="1.0" encoding="UTF-8"?>
<svg width="212px" height="260px" viewBox="0 0 212 260" version="1.1" xmlns="http://www.w3.org/2000/svg" xmlns:xlink="http://www.w3.org/1999/xlink">
    <!-- Generator: Sketch 61 (89581) - https://sketch.com -->
    <title>16/occlusal/15</title>
    <desc>Created with Sketch.</desc>
    <g id="16/occlusal/15" stroke="none" stroke-width="1" fill="none" fill-rule="evenodd" opacity="0.7">
        <path d="M102.621,67.2298 C102.621,56.8198 106,44.7478 102.621,32.2858 C102.922,32.2048 103.221,32.1188 103.521,32.0368 C99.86,33.0298 96.17,33.9358 92.437,34.6198 C74.994,37.8148 59.566,40.7558 47.369,45.2928 C26.863,52.9208 16.231,63.3948 12.014,71.0398 C14.045,73.9798 44.529,106.1258 45.371,107.0008 C61.503,122.3118 83.487,107.3988 102.449,107.3578 C106.372,107.3498 109.762,108.0178 112.882,108.9968 C112.873,108.9938 112.864,108.9908 112.855,108.9878 C112.6,95.5458 102.621,81.8958 102.621,67.2298" id="Fill-7" fill="#4A90E2"></path>
    </g>
</svg>