<?xml version="1.0" encoding="UTF-8"?>
<svg width="183px" height="532px" viewBox="0 0 183 532" version="1.1" xmlns="http://www.w3.org/2000/svg" xmlns:xlink="http://www.w3.org/1999/xlink">
    <!-- Generator: Sketch 61 (89581) - https://sketch.com -->
    <title>48/lingual/25</title>
    <desc>Created with Sketch.</desc>
    <g id="48/lingual/25" stroke="none" stroke-width="1" fill="none" fill-rule="evenodd" opacity="0.7">
        <path d="M98.5613,132.3638 C83.8663,132.3638 69.4323,132.0688 55.3373,131.4988 L55.3373,154.7048 C55.3373,161.8848 49.5173,167.7048 42.3373,167.7048 L11.2563,167.7048 C12.4483,170.6768 13.6503,173.3858 14.8173,175.6448 C18.3193,182.4188 54.6633,189.7548 82.5803,189.7548 C83.5703,189.7548 84.5853,189.7548 85.6213,189.7538 L85.7873,189.7538 C86.8213,189.7528 87.8743,189.7508 88.9483,189.7478 C88.9553,189.7478 88.9603,189.7478 88.9663,189.7478 C90.0493,189.7448 91.1523,189.7408 92.2693,189.7358 C92.3273,189.7358 92.3853,189.7358 92.4423,189.7348 C93.5353,189.7298 94.6413,189.7228 95.7623,189.7148 C95.7743,189.7148 95.7863,189.7148 95.7973,189.7138 C95.7973,167.8208 97.6963,147.8338 98.7653,132.3628 C98.6973,132.3628 98.6293,132.3638 98.5613,132.3638" id="Fill-5" fill="#4A90E2"></path>
    </g>
</svg>