<?xml version="1.0" encoding="UTF-8"?>
<svg width="183px" height="260px" viewBox="0 0 183 260" version="1.1" xmlns="http://www.w3.org/2000/svg" xmlns:xlink="http://www.w3.org/1999/xlink">
    <!-- Generator: Sketch 61 (89581) - https://sketch.com -->
    <title>48/occlusal/14</title>
    <desc>Created with Sketch.</desc>
    <g id="48/occlusal/14" stroke="none" stroke-width="1" fill="none" fill-rule="evenodd" opacity="0.7">
        <path d="M160.1658,180.1739 C156.2658,172.0659 148.0858,155.9359 143.1588,148.9739 C123.8818,139.0609 113.5688,149.8749 91.4998,149.5739 C83.7308,180.1719 105.7288,176.5829 98.7068,205.7829 C99.2148,205.7089 99.7228,205.6339 100.2278,205.5549 C100.4758,205.5159 100.7248,205.4799 100.9718,205.4399 C101.9538,205.2819 102.9338,205.1159 103.9088,204.9429 C104.1158,204.9059 104.3208,204.8659 104.5278,204.8289 C105.3048,204.6879 106.0778,204.5429 106.8498,204.3919 C107.1608,204.3309 107.4728,204.2689 107.7828,204.2059 C108.4838,204.0649 109.1828,203.9199 109.8778,203.7719 C110.1618,203.7109 110.4468,203.6509 110.7298,203.5889 C111.6848,203.3809 112.6338,203.1659 113.5748,202.9439 C113.6348,202.9289 113.6928,202.9139 113.7528,202.8999 C114.6378,202.6899 115.5158,202.4719 116.3888,202.2489 C116.6768,202.1759 116.9628,202.0999 117.2488,202.0259 C117.9128,201.8529 118.5728,201.6759 119.2298,201.4959 C119.5228,201.4159 119.8168,201.3359 120.1088,201.2539 C120.8688,201.0409 121.6228,200.8239 122.3718,200.6019 C122.5238,200.5569 122.6788,200.5139 122.8308,200.4679 C123.7228,200.2009 124.6048,199.9269 125.4788,199.6479 C125.7218,199.5699 125.9608,199.4899 126.2018,199.4119 C126.8448,199.2029 127.4818,198.9909 128.1148,198.7759 C128.3988,198.6789 128.6828,198.5819 128.9638,198.4849 C129.6038,198.2619 130.2378,198.0359 130.8668,197.8069 C131.0828,197.7279 131.3028,197.6509 131.5178,197.5709 C132.3458,197.2639 133.1648,196.9529 133.9718,196.6349 C134.1408,196.5699 134.3048,196.5009 134.4728,196.4339 C135.1158,196.1779 135.7518,195.9189 136.3808,195.6559 C136.6358,195.5489 136.8888,195.4419 137.1408,195.3339 C137.7018,195.0939 138.2578,194.8519 138.8068,194.6079 C139.0368,194.5049 139.2688,194.4029 139.4968,194.2989 C140.2508,193.9569 140.9958,193.6109 141.7248,193.2589 L141.7858,193.2279 C142.4928,192.8859 143.1848,192.5379 143.8658,192.1869 C144.0798,192.0769 144.2898,191.9659 144.5008,191.8549 C144.9988,191.5929 145.4898,191.3289 145.9738,191.0629 C146.1898,190.9439 146.4078,190.8239 146.6218,190.7039 C147.1668,190.3979 147.7008,190.0879 148.2268,189.7769 C148.3428,189.7069 148.4628,189.6389 148.5778,189.5699 C149.2078,189.1909 149.8208,188.8069 150.4208,188.4199 C150.5838,188.3149 150.7398,188.2079 150.9008,188.1019 C151.3408,187.8119 151.7718,187.5209 152.1938,187.2269 C152.3808,187.0969 152.5658,186.9669 152.7488,186.8359 C153.1648,186.5389 153.5698,186.2399 153.9668,185.9389 C154.1078,185.8319 154.2548,185.7249 154.3938,185.6169 C154.9138,185.2139 155.4188,184.8079 155.9038,184.3989 C155.9978,184.3189 156.0858,184.2379 156.1788,184.1579 C156.5678,183.8239 156.9458,183.4879 157.3108,183.1509 C157.4558,183.0159 157.5968,182.8819 157.7368,182.7459 C158.0528,182.4449 158.3568,182.1419 158.6518,181.8379 C158.7768,181.7099 158.9038,181.5809 159.0248,181.4519 C159.4238,181.0279 159.8088,180.6029 160.1658,180.1739" id="Fill-10" fill="#4A90E2"></path>
    </g>
</svg>