<?xml version="1.0" encoding="UTF-8"?>
<svg width="183px" height="260px" viewBox="0 0 183 260" version="1.1" xmlns="http://www.w3.org/2000/svg" xmlns:xlink="http://www.w3.org/1999/xlink">
    <!-- Generator: Sketch 61 (89581) - https://sketch.com -->
    <title>18/occlusal/14</title>
    <desc>Created with Sketch.</desc>
    <g id="18/occlusal/14" stroke="none" stroke-width="1" fill="none" fill-rule="evenodd" opacity="0.7">
        <path d="M168.8075,50.0367 C149.6875,32.3007 135.6185,25.6507 123.5505,26.0147 C122.7875,26.0367 122.0155,26.0767 121.2395,26.1277 C120.9825,26.1437 120.7225,26.1697 120.4635,26.1887 C119.9405,26.2287 119.4175,26.2697 118.8895,26.3227 C118.5785,26.3527 118.2655,26.3907 117.9535,26.4257 C117.4725,26.4777 116.9915,26.5327 116.5075,26.5957 C116.1745,26.6387 115.8395,26.6857 115.5045,26.7327 C115.0345,26.7987 114.5645,26.8667 114.0925,26.9407 C113.7485,26.9947 113.4045,27.0517 113.0595,27.1087 C112.5915,27.1877 112.1215,27.2697 111.6515,27.3557 C111.3045,27.4197 110.9565,27.4837 110.6085,27.5507 C110.1335,27.6417 109.6575,27.7387 109.1815,27.8377 C108.8375,27.9077 108.4955,27.9777 108.1515,28.0527 C107.6595,28.1587 107.1665,28.2707 106.6735,28.3837 C106.3455,28.4587 106.0175,28.5317 105.6885,28.6097 C105.1595,28.7357 104.6285,28.8687 104.0985,29.0017 C103.8065,29.0747 103.5155,29.1447 103.2235,29.2207 C102.5655,29.3897 101.9075,29.5657 101.2505,29.7447 C101.0865,29.7897 100.9225,29.8317 100.7595,29.8767 C99.9375,30.1027 99.1175,30.3377 98.2985,30.5777 C98.0625,30.6467 97.8285,30.7207 97.5925,30.7907 C97.0085,30.9647 96.4245,31.1407 95.8415,31.3197 C95.5295,31.4167 95.2195,31.5157 94.9075,31.6147 C94.4055,31.7737 93.9025,31.9327 93.4015,32.0957 C93.0635,32.2047 92.7265,32.3167 92.3895,32.4287 C91.9165,32.5857 91.4435,32.7417 90.9735,32.9017 C90.6295,33.0177 90.2875,33.1367 89.9455,33.2537 C89.4825,33.4137 89.0215,33.5737 88.5625,33.7357 C88.2235,33.8547 87.8845,33.9747 87.5465,34.0967 C87.3445,34.1687 87.1445,34.2407 86.9435,34.3137 C89.9555,43.3227 93.7645,63.8877 94.1805,70.1497 C95.3355,87.4907 93.0095,94.0047 89.5605,111.0007 C89.5825,111.0047 89.6035,111.0087 89.6245,111.0127 C89.7925,111.0397 89.9565,111.0737 90.1225,111.1027 C90.5185,111.1727 90.9135,111.2437 91.3005,111.3247 C91.5125,111.3687 91.7205,111.4197 91.9295,111.4677 C92.2645,111.5427 92.5985,111.6187 92.9275,111.7027 C93.1515,111.7597 93.3715,111.8207 93.5925,111.8807 C93.9025,111.9647 94.2115,112.0497 94.5165,112.1397 C94.7405,112.2057 94.9615,112.2737 95.1835,112.3437 C95.4795,112.4357 95.7755,112.5287 96.0675,112.6267 C96.2875,112.6987 96.5055,112.7727 96.7225,112.8487 C97.0145,112.9487 97.3055,113.0517 97.5935,113.1567 C97.8055,113.2327 98.0155,113.3087 98.2245,113.3877 C98.5165,113.4967 98.8065,113.6077 99.0955,113.7207 C99.2965,113.7987 99.4975,113.8757 99.6965,113.9547 C99.9995,114.0747 100.3005,114.1957 100.6005,114.3187 C100.7805,114.3907 100.9605,114.4637 101.1395,114.5377 C101.4785,114.6777 101.8145,114.8177 102.1515,114.9587 C102.2935,115.0177 102.4365,115.0777 102.5785,115.1377 C103.0375,115.3297 103.4925,115.5217 103.9465,115.7137 C104.4075,115.9077 104.8675,116.1007 105.3255,116.2907 C105.4545,116.3447 105.5825,116.3957 105.7115,116.4487 C106.0445,116.5857 106.3765,116.7227 106.7085,116.8547 C106.8825,116.9257 107.0565,116.9917 107.2295,117.0597 C107.5185,117.1737 107.8065,117.2857 108.0945,117.3947 C108.2845,117.4667 108.4735,117.5347 108.6625,117.6047 C108.9375,117.7057 109.2125,117.8057 109.4885,117.9017 C109.6845,117.9707 109.8825,118.0357 110.0795,118.1017 C110.3485,118.1917 110.6165,118.2787 110.8865,118.3627 C111.0885,118.4267 111.2915,118.4867 111.4955,118.5467 C111.7635,118.6257 112.0325,118.7007 112.3025,118.7727 C112.5065,118.8277 112.7105,118.8817 112.9155,118.9327 C113.1895,118.9997 113.4655,119.0607 113.7425,119.1217 C113.9445,119.1657 114.1465,119.2107 114.3495,119.2507 C114.6375,119.3067 114.9285,119.3537 115.2195,119.4007 C115.4135,119.4327 115.6075,119.4667 115.8035,119.4937 C116.1235,119.5377 116.4465,119.5697 116.7695,119.6007 C116.9405,119.6177 117.1095,119.6407 117.2825,119.6537 C117.7385,119.6877 118.1995,119.7087 118.6655,119.7167 C118.7065,119.7167 118.7475,119.7207 118.7895,119.722444 C119.2965,119.7257 119.8085,119.7137 120.3285,119.6827 C120.4925,119.6737 120.6615,119.6527 120.8275,119.6407 C121.1845,119.6107 121.5435,119.5817 121.9075,119.5347 C122.1145,119.5087 122.3255,119.4707 122.5345,119.4377 C122.8655,119.3877 123.1965,119.3347 123.5325,119.2667 C123.7595,119.2227 123.9905,119.1667 124.2205,119.1137 C124.5475,119.0397 124.8755,118.9617 125.2075,118.8707 C125.4495,118.8057 125.6935,118.7317 125.9385,118.6577 C126.2685,118.5577 126.6015,118.4517 126.9375,118.3367 C127.1895,118.2497 127.4435,118.1577 127.6995,118.0617 C128.0395,117.9337 128.3845,117.7967 128.7315,117.6517 C128.9905,117.5447 129.2505,117.4347 129.5135,117.3177 C129.8705,117.1577 130.2345,116.9837 130.5995,116.8057 C130.8605,116.6787 131.1205,116.5537 131.3865,116.4157 C131.7705,116.2177 132.1635,115.9987 132.5565,115.7787 C132.8125,115.6357 133.0655,115.4997 133.3255,115.3477 C133.7655,115.0897 134.2145,114.8067 134.6645,114.5217 C134.8885,114.3817 135.1065,114.2517 135.3335,114.1037 C136.0155,113.6577 136.7085,113.1847 137.4165,112.6767 C154.7745,95.3297 174.2525,77.1777 179.4365,68.7877 C177.2865,61.9267 173.9345,54.7927 168.8075,50.0367" id="Fill-10" fill="#4A90E2"></path>
    </g>
</svg>