<?xml version="1.0" encoding="UTF-8"?>
<svg width="146px" height="532px" viewBox="0 0 146 532" version="1.1" xmlns="http://www.w3.org/2000/svg" xmlns:xlink="http://www.w3.org/1999/xlink">
    <!-- Generator: Sketch 61 (89581) - https://sketch.com -->
    <title>14/lingual/19</title>
    <desc>Created with Sketch.</desc>
    <g id="14/lingual/19" stroke="none" stroke-width="1" fill="none" fill-rule="evenodd" opacity="0.7">
        <path d="M110.7475,383.703388 L130.3385,383.703388 C128.6635,380.666388 126.8915,377.838388 125.0475,375.386388 C120.0905,368.798388 93.5655,335.841388 66.3285,337.561388 C40.1395,339.215388 23.7295,358.571388 18.1105,372.909388 C16.6635,376.605388 15.2285,380.185388 13.8495,383.703388 L32.3915,383.703388 C39.4235,383.703388 45.1245,389.404388 45.1245,396.436388 L45.1245,442.754388 C54.6705,442.951388 64.4855,443.054388 74.5065,443.054388 C82.4835,443.054388 90.3285,442.988388 98.0145,442.861388 L98.0145,396.436388 C98.0145,389.404388 103.7155,383.703388 110.7475,383.703388" id="Fill-8" fill="#4A90E2"></path>
    </g>
</svg>