<?xml version="1.0" encoding="UTF-8"?>
<svg width="212px" height="260px" viewBox="0 0 212 260" version="1.1" xmlns="http://www.w3.org/2000/svg" xmlns:xlink="http://www.w3.org/1999/xlink">
    <!-- Generator: Sketch 61 (89581) - https://sketch.com -->
    <title>46/occlusal/14</title>
    <desc>Created with Sketch.</desc>
    <g id="46/occlusal/14" stroke="none" stroke-width="1" fill="none" fill-rule="evenodd" opacity="0.7">
        <path d="M160.3788,156.4212 C145.6168,148.5682 135.7208,144.8692 130.6878,145.3212 C123.2168,145.9932 111.1418,154.6032 100.5378,152.2552 C91.7008,150.2992 86.8768,144.5002 78.3958,144.0842 C80.2898,146.7302 89.3938,154.5002 94.1908,167.4392 C98.5638,179.2352 94.3158,198.8132 92.5568,214.5952 C92.7508,214.6172 92.9448,214.6402 93.1398,214.6622 C93.8408,214.7412 94.5408,214.8192 95.2398,214.8962 C95.5808,214.9332 95.9228,214.9712 96.2628,215.0082 C97.1158,215.1002 97.9668,215.1902 98.8148,215.2772 C98.9878,215.2962 99.1628,215.3152 99.3358,215.3322 C100.3608,215.4382 101.3828,215.5402 102.3978,215.6392 C102.6598,215.6652 102.9188,215.6902 103.1818,215.7142 C103.9378,215.7882 104.6908,215.8592 105.4388,215.9292 C105.7718,215.9602 106.1028,215.9902 106.4338,216.0212 C107.1088,216.0832 107.7808,216.1432 108.4488,216.2022 C108.7928,216.2332 109.1368,216.2632 109.4788,216.2932 C110.1668,216.3522 110.8488,216.4102 111.5268,216.4672 C111.8088,216.4902 112.0928,216.5152 112.3728,216.5382 C113.3318,216.6172 114.2808,216.6932 115.2158,216.7662 C115.2318,216.7672 115.2468,216.7682 115.2638,216.7702 C116.1708,216.8402 117.0628,216.9072 117.9438,216.9722 C118.2338,216.9932 118.5188,217.0132 118.8058,217.0342 C119.4178,217.0782 120.0248,217.1212 120.6228,217.1632 C120.9338,217.1842 121.2398,217.2052 121.5468,217.2262 C122.1268,217.2652 122.6988,217.3022 123.2638,217.3392 C123.5478,217.3572 123.8338,217.3762 124.1128,217.3942 C124.7508,217.4342 125.3748,217.4712 125.9898,217.5082 C126.1738,217.5192 126.3618,217.5302 126.5438,217.5412 C127.3328,217.5872 128.1038,217.6302 128.8528,217.6702 C129.0218,217.6792 129.1828,217.6872 129.3498,217.6952 C129.9228,217.7252 130.4868,217.7542 131.0348,217.7802 C131.2748,217.7922 131.5088,217.8022 131.7438,217.8132 C132.2038,217.8352 132.6558,217.8552 133.0958,217.8732 C133.3358,217.8832 133.5748,217.8932 133.8088,217.9022 C134.2518,217.9212 134.6808,217.9362 135.1008,217.9512 C135.2898,217.9582 135.4848,217.9652 135.6698,217.9712 C136.2618,217.9912 136.8338,218.0092 137.3728,218.0232 C167.7088,218.7972 184.8608,203.4682 195.5508,186.7332 C180.9488,171.7882 165.7328,161.4592 160.3788,156.4212" id="Fill-263" fill="#4A90E2"></path>
    </g>
</svg>