<?xml version="1.0" encoding="UTF-8"?>
<svg width="212px" height="260px" viewBox="0 0 212 260" version="1.1" xmlns="http://www.w3.org/2000/svg" xmlns:xlink="http://www.w3.org/1999/xlink">
    <!-- Generator: Sketch 61 (89581) - https://sketch.com -->
    <title>16/occlusal/14</title>
    <desc>Created with Sketch.</desc>
    <g id="16/occlusal/14" stroke="none" stroke-width="1" fill="none" fill-rule="evenodd" opacity="0.7">
        <path d="M140.7733,116.3274 C140.9383,116.3084 141.1093,116.2814 141.2763,116.2594 C141.7123,116.2024 142.1533,116.1384 142.6033,116.0604 C142.8223,116.0234 143.0443,115.9804 143.2673,115.9374 C143.6883,115.8564 144.1143,115.7664 144.5473,115.6674 C144.7763,115.6154 145.0053,115.5624 145.2393,115.5044 C145.7223,115.3854 146.2153,115.2494 146.7143,115.1054 C146.8983,115.0524 147.0793,115.0054 147.2653,114.9494 C147.9533,114.7414 148.6553,114.5114 149.3743,114.2564 C149.5173,114.2054 149.6663,114.1444 149.8103,114.0924 C150.3933,113.8794 150.9853,113.6534 151.5903,113.4074 C151.8453,113.3044 152.1063,113.1924 152.3653,113.0824 C152.8823,112.8644 153.4073,112.6354 153.9413,112.3924 C154.2253,112.2644 154.5093,112.1334 154.7973,111.9974 C155.3543,111.7354 155.9213,111.4564 156.4963,111.1674 C156.7603,111.0354 157.0193,110.9084 157.2873,110.7704 C158.1293,110.3344 158.9873,109.8784 159.8703,109.3834 C168.8073,100.9734 201.3333,76.9544 208.6503,70.5814 C205.9283,59.2964 201.3403,49.9474 194.1483,43.5484 C180.6093,31.5054 176.8353,23.4994 143.1293,23.4994 C142.1973,23.4994 141.2663,23.5324 140.3343,23.5794 C140.1123,23.5914 139.8913,23.6024 139.6693,23.6164 C138.7523,23.6734 137.8353,23.7444 136.9193,23.8424 C136.8383,23.8514 136.7563,23.8624 136.6753,23.8714 C135.8153,23.9664 134.9553,24.0804 134.0943,24.2064 C133.8773,24.2384 133.6613,24.2694 133.4443,24.3034 C132.5323,24.4444 131.6213,24.5984 130.7103,24.7714 C130.5753,24.7974 130.4403,24.8254 130.3053,24.8514 C129.4823,25.0104 128.6603,25.1814 127.8373,25.3614 C127.6313,25.4074 127.4263,25.4514 127.2203,25.4974 C126.3073,25.7024 125.3943,25.9174 124.4813,26.1444 C124.3143,26.1854 124.1463,26.2294 123.9793,26.2714 C123.1683,26.4754 122.3563,26.6854 121.5443,26.9034 C121.3563,26.9534 121.1683,27.0024 120.9803,27.0534 C120.0613,27.3024 119.1403,27.5564 118.2183,27.8174 C118.0193,27.8734 117.8193,27.9314 117.6203,27.9884 C116.8023,28.2214 115.9833,28.4564 115.1633,28.6954 C115.0003,28.7424 114.8373,28.7894 114.6743,28.8374 C113.6313,29.1404 112.5873,29.4474 111.5423,29.7544 C111.1383,29.8724 110.7353,29.9904 110.3323,30.1084 C110.1783,30.1534 110.0243,30.1974 109.8703,30.2424 C109.0693,30.4754 108.2663,30.7064 107.4623,30.9374 C107.0033,31.0684 106.5443,31.2004 106.0853,31.3294 C105.2313,31.5704 104.3773,31.8054 103.5213,32.0364 C103.2203,32.1184 102.9213,32.2044 102.6213,32.2854 C106.0003,44.7474 102.6213,56.8204 102.6213,67.2294 C102.6213,81.8954 112.6003,95.5464 112.8553,108.9874 C112.8643,108.9904 112.8733,108.9934 112.8823,108.9964 C112.9403,109.0144 112.9973,109.0354 113.0553,109.0534 C113.4783,109.1874 113.8963,109.3274 114.3093,109.4734 C114.4663,109.5274 114.6213,109.5844 114.7763,109.6404 C115.0923,109.7554 115.4063,109.8704 115.7173,109.9894 C115.8843,110.0534 116.0503,110.1174 116.2153,110.1814 C116.5283,110.3044 116.8393,110.4284 117.1483,110.5544 C117.2913,110.6124 117.4343,110.6694 117.5763,110.7284 C117.9673,110.8904 118.3563,111.0544 118.7443,111.2194 C118.7953,111.2414 118.8483,111.2624 118.8993,111.2854 C119.3593,111.4814 119.8163,111.6804 120.2723,111.8784 C120.6513,112.0434 121.0293,112.2084 121.4063,112.3724 C121.5803,112.4484 121.7533,112.5224 121.9273,112.5984 C122.2223,112.7254 122.5173,112.8524 122.8133,112.9784 C122.9783,113.0494 123.1443,113.1194 123.3093,113.1894 C123.6343,113.3264 123.9613,113.4604 124.2883,113.5944 C124.4083,113.6434 124.5283,113.6934 124.6493,113.7424 C125.0893,113.9184 125.5313,114.0914 125.9773,114.2584 C126.0763,114.2964 126.1783,114.3304 126.2783,114.3684 C126.6243,114.4954 126.9713,114.6194 127.3223,114.7394 C127.4783,114.7934 127.6353,114.8444 127.7923,114.8954 C128.0973,114.9954 128.4053,115.0934 128.7143,115.1864 C128.8813,115.2374 129.0483,115.2864 129.2153,115.3344 C129.5403,115.4284 129.8683,115.5154 130.1983,115.5984 C130.3473,115.6374 130.4943,115.6774 130.6443,115.7124 C131.1213,115.8274 131.6033,115.9334 132.0933,116.0274 C132.1283,116.0334 132.1653,116.0374 132.2003,116.0444 C132.6543,116.1294 133.1153,116.2024 133.5833,116.2654 C133.7453,116.2884 133.9113,116.3054 134.0753,116.3244 C134.4253,116.3664 134.7793,116.4024 135.1383,116.4314 C135.3263,116.4464 135.5163,116.4584 135.7073,116.4704 C136.0643,116.4914 136.4273,116.5044 136.7943,116.5124 C136.9773,116.5164 137.1603,116.5224 137.3463,116.5224 C137.7993,116.5224 138.2613,116.5114 138.7293,116.4894 C138.8303,116.4844 138.9273,116.4854 139.0283,116.4794 C139.5983,116.4474 140.1803,116.3954 140.7733,116.3274" id="Fill-9" fill="#4A90E2"></path>
    </g>
</svg>