<?xml version="1.0" encoding="UTF-8"?>
<svg width="196px" height="260px" viewBox="0 0 196 260" version="1.1" xmlns="http://www.w3.org/2000/svg" xmlns:xlink="http://www.w3.org/1999/xlink">
    <!-- Generator: Sketch 61 (89581) - https://sketch.com -->
    <title>47/occlusal/16</title>
    <desc>Created with Sketch.</desc>
    <g id="47/occlusal/16" stroke="none" stroke-width="1" fill="none" fill-rule="evenodd" opacity="0.7">
        <path d="M152.6703,64.7064 C139.4733,60.3834 128.1473,58.4244 115.2683,55.8714 C115.8663,74.3594 96.5343,95.5734 106.6783,109.8064 C106.7543,109.8524 106.8243,109.9014 106.8993,109.9484 C106.9853,110.0024 107.0703,110.0574 107.1553,110.1134 C107.3323,110.2304 107.5053,110.3494 107.6743,110.4694 C107.7393,110.5154 107.8083,110.5614 107.8723,110.6084 C108.1003,110.7754 108.3213,110.9444 108.5353,111.1154 C108.5693,111.1434 108.6023,111.1714 108.6363,111.1984 C108.8163,111.3454 108.9913,111.4934 109.1623,111.6424 C109.2303,111.7014 109.2953,111.7604 109.3603,111.8184 C109.4983,111.9424 109.6333,112.0654 109.7663,112.1904 C109.8303,112.2524 109.8953,112.3134 109.9583,112.3744 C110.1003,112.5114 110.2383,112.6484 110.3753,112.7874 C110.4193,112.8314 110.4653,112.8764 110.5093,112.9214 C110.6883,113.1054 110.8633,113.2904 111.0353,113.4764 C111.0703,113.5154 111.1053,113.5534 111.1403,113.5924 C111.2773,113.7424 111.4143,113.8934 111.5483,114.0434 C111.6063,114.1074 111.6613,114.1714 111.7183,114.2354 C111.8363,114.3694 111.9533,114.5024 112.0683,114.6364 C112.1213,114.6974 112.1753,114.7584 112.2283,114.8194 C112.3643,114.9774 112.5003,115.1364 112.6363,115.2944 C112.8113,115.4984 112.9843,115.7014 113.1593,115.9034 C113.1963,115.9454 113.2333,115.9884 113.2703,116.0304 C113.3933,116.1714 113.5153,116.3114 113.6393,116.4514 C113.6953,116.5154 113.7523,116.5794 113.8103,116.6434 C113.9193,116.7674 114.0313,116.8894 114.1433,117.0114 C114.2003,117.0744 114.2583,117.1374 114.3163,117.1994 C114.4473,117.3414 114.5813,117.4804 114.7163,117.6204 C114.7543,117.6584 114.7903,117.6974 114.8273,117.7354 C114.9983,117.9094 115.1733,118.0804 115.3513,118.2494 C115.3983,118.2934 115.4453,118.3364 115.4923,118.3804 C115.6273,118.5054 115.7643,118.6294 115.9033,118.7514 C115.9683,118.8084 116.0333,118.8634 116.0993,118.9194 C116.2313,119.0314 116.3653,119.1424 116.5023,119.2504 C116.5673,119.3034 116.6343,119.3564 116.7013,119.4084 C116.8713,119.5394 117.0473,119.6684 117.2273,119.7944 C117.2613,119.8194 117.2933,119.8444 117.3273,119.8684 C117.5423,120.0164 117.7643,120.1604 117.9923,120.3004 C118.0573,120.3404 118.1253,120.3774 118.1913,120.4164 C118.3593,120.5174 118.5323,120.6154 118.7093,120.7104 C118.7953,120.7564 118.8823,120.8024 118.9693,120.8474 C119.1433,120.9354 119.3213,121.0224 119.5033,121.1064 C119.5893,121.1464 119.6743,121.1874 119.7623,121.2264 C120.0053,121.3334 120.2563,121.4374 120.5153,121.5364 C120.5443,121.5474 120.5703,121.5594 120.6003,121.5704 C120.8883,121.6794 121.1903,121.7804 121.4993,121.8774 C121.5903,121.9064 121.6863,121.9334 121.7793,121.9604 C122.0073,122.0284 122.2393,122.0934 122.4803,122.1544 C122.5943,122.1844 122.7103,122.2124 122.8273,122.2404 C123.0673,122.2974 123.3163,122.3514 123.5683,122.4014 C123.6823,122.4244 123.7933,122.4484 123.9093,122.4704 C124.2773,122.5384 124.6543,122.6024 125.0503,122.6564 C132.5163,123.6894 141.6453,122.7814 152.4343,119.9314 C156.2363,118.1564 182.5663,103.1324 189.3093,97.5604 C182.4773,84.8034 169.7683,70.3064 152.6703,64.7064" id="Fill-107" fill="#4A90E2"></path>
    </g>
</svg>