<?xml version="1.0" encoding="UTF-8" standalone="no"?><!DOCTYPE svg PUBLIC "-//W3C//DTD SVG 1.1//EN" "http://www.w3.org/Graphics/SVG/1.1/DTD/svg11.dtd"><svg width="146px" height="532px" version="1.1" xmlns="http://www.w3.org/2000/svg" xmlns:xlink="http://www.w3.org/1999/xlink" xml:space="preserve" xmlns:serif="http://www.serif.com/" style="fill-rule:evenodd;clip-rule:evenodd;stroke-linejoin:round;stroke-miterlimit:2;"><g id="_54-treatment" serif:id="54/treatment" opacity="0.7"><path id="Fill-3" d="M68.804,318.859C67.488,317.677 63.81,314.326 62.917,313.326C62.917,313.326 74.722,278.162 76.409,269.31C79.59,252.601 86.029,201.952 86.029,201.952C86.029,201.952 90.056,250.947 90.631,267.318C91.01,278.093 93.192,310.493 93.192,310.493C91.88,311.209 88.9,315.069 85.953,317.426C84.58,318.524 81.698,319.831 77.934,320.585C75.228,321.126 71.66,321.421 68.804,318.859ZM12.467,245.501C11.297,232.765 14.775,194.396 14.775,194.396C14.775,194.396 18.658,219.753 20.007,228.197C21.388,236.856 23.112,254.426 25.7,262.804C30.187,277.337 41.362,306.519 51.393,317.952C56.58,323.863 70.093,334.25 77.936,334.833C82.88,335.201 92.577,330.313 96.06,326.786C102.518,320.242 107.551,301.676 110.546,292.984C114.004,282.947 119.695,262.413 121.411,251.939C123.056,241.89 124.676,221.462 124.091,211.296C123.637,203.398 119.399,180 119.399,180C119.399,180 128.324,203.226 130.136,211.296C132.78,223.068 135.896,247.197 135.494,259.254C135.098,271.188 130.311,294.777 127.044,306.262C123.375,319.163 108.757,342.824 107.326,356.161C106.407,364.732 120.189,415.682 122.717,430.077C124.091,437.904 118.714,450.947 106.798,460.096C104.059,461.652 100.884,463.157 97.273,464.612C97.194,464.644 92.751,466.066 89.915,466.74C87.078,467.413 69.413,462.522 54.726,450.022C53.551,449.652 49.833,449.652 43.57,450.022C34.176,450.576 32.646,429.594 33.976,424.644C37.688,410.841 48.798,366.878 47.771,357.367C47.008,350.288 38.903,337.919 36.39,331.256C32.209,320.174 25.07,297.56 21.916,286.143C19.139,276.088 13.422,255.887 12.467,245.501Z" style="fill:rgb(74,144,226);"/></g></svg>