<?xml version="1.0" encoding="UTF-8" standalone="no"?><!DOCTYPE svg PUBLIC "-//W3C//DTD SVG 1.1//EN" "http://www.w3.org/Graphics/SVG/1.1/DTD/svg11.dtd"><svg width="142px" height="532px" version="1.1" xmlns="http://www.w3.org/2000/svg" xmlns:xlink="http://www.w3.org/1999/xlink" xml:space="preserve" xmlns:serif="http://www.serif.com/" style="fill-rule:evenodd;clip-rule:evenodd;stroke-linejoin:round;stroke-miterlimit:2;"><g id="_55-treatment" serif:id="55/treatment" opacity="0.7"><path id="Fill-14" d="M16.396,274.863C17.385,265.467 30.211,239.69 30.211,239.69C30.211,239.69 23.596,269.014 24.092,278.932C24.399,285.09 28.588,296.882 30.306,302.806C32.442,310.165 37.653,323.758 37.653,323.758L33.325,352.28C33.325,352.28 25.684,328.645 24.015,320.741C21.612,309.364 15.179,286.425 16.396,274.863ZM131.581,273.298C132.477,279.981 132.28,293.691 131.089,300.356C129.325,310.229 122.197,329.146 117.907,338.154C115.819,342.54 107.725,354.61 107.725,354.61L100.901,328.081C100.901,328.081 117.137,306.079 119.606,297.849C121.373,291.963 124.734,280.028 125.227,273.895C125.816,266.582 123.174,244.69 123.174,244.69C123.174,244.69 130.587,265.867 131.581,273.298ZM63.328,269.951C64.324,256.467 67.449,216.029 67.449,216.029C67.449,216.029 75.213,252.425 77.397,264.632C79.6,276.939 83.05,301.707 84.984,314.056C86.756,325.367 90.487,347.962 92.208,359.28C93.905,370.442 106.755,447.948 106.755,447.948C105.982,448.777 97.933,446.139 82.608,440.034C64.919,454.25 48.214,458.488 32.496,452.747C25.259,453.722 43.093,411.939 43.754,407.726C43.754,407.726 51.46,382.839 52.071,377.846C53.554,365.726 57.583,348.93 58.555,336.76C59.888,320.068 62.093,286.65 63.328,269.951Z" style="fill:rgb(74,144,226);"/></g></svg>