<?xml version="1.0" encoding="UTF-8" standalone="no"?><!DOCTYPE svg PUBLIC "-//W3C//DTD SVG 1.1//EN" "http://www.w3.org/Graphics/SVG/1.1/DTD/svg11.dtd"><svg width="146px" height="532px" version="1.1" xmlns="http://www.w3.org/2000/svg" xmlns:xlink="http://www.w3.org/1999/xlink" xml:space="preserve" xmlns:serif="http://www.serif.com/" style="fill-rule:evenodd;clip-rule:evenodd;stroke-linejoin:round;stroke-miterlimit:2;"><g id="_54-treatment" serif:id="54/treatment" opacity="0.7"><path id="Fill-8" d="M17.047,290.769C14.167,280.34 8.238,259.392 7.248,248.618C6.034,235.41 9.641,195.617 9.641,195.617C9.641,195.617 13.668,221.915 15.067,230.672C16.5,239.652 18.287,257.875 20.971,266.563C23.676,275.324 28.727,289.215 34.523,301.644L28.759,328.081C24.76,316.213 19.442,299.439 17.047,290.769ZM132.139,257.093C131.726,269.47 128.902,294.856 125.516,306.769C123.214,314.863 117.325,331.905 112.254,343.326L108.348,299.699C108.562,299.05 108.769,298.435 108.966,297.864C112.552,287.455 118.527,272.87 120.307,262.006C122.014,251.584 123.745,229.637 123.139,219.095C122.666,210.904 118.147,180.687 118.147,180.687C118.147,180.687 127.404,204.775 129.283,213.145C132.024,225.353 132.555,244.587 132.139,257.093ZM70.607,195.618C70.477,190.603 69.851,162.763 69.851,162.763C69.851,162.763 76.238,173.676 80.211,190.977C83.678,206.074 88.197,232.39 88.756,241.082C90.913,274.647 98.696,343.488 98.696,343.488L119.019,448.042C108.882,452.855 111.005,454.44 100.741,459.888C89.93,466.88 81.475,468.768 75.375,465.55C66.226,460.724 63.143,463.882 45.219,448.796C38.352,451.371 30.272,448.984 20.978,441.637L56.165,346.898C56.95,344.635 57.445,342.279 57.635,339.89C57.635,339.89 64.385,292.034 66.104,273.187C67.97,252.735 71.19,218.278 70.607,195.618Z" style="fill:rgb(74,144,226);"/></g></svg>