<?xml version="1.0" encoding="UTF-8"?>
<svg width="146px" height="532px" viewBox="0 0 146 532" version="1.1" xmlns="http://www.w3.org/2000/svg" xmlns:xlink="http://www.w3.org/1999/xlink">
    <title>44/treatment</title>
    <g id="44/treatment" stroke="none" stroke-width="1" fill="none" fill-rule="evenodd" opacity="0.7">
        <path d="M10.4671632,169.901628 C13.9182943,192.682537 36.2109574,234.58205 39.4172225,257.397477 C40.8979221,267.932353 38.5929282,341.791052 40.6118946,345.607547 C42.6308609,349.424042 62.8902144,343.013277 69.2812815,336.150513 L77.8981115,337.43363 C82.9189281,337.827272 91.1874352,345.676932 98.7138145,347.739698 C105.514506,349.603573 111.651318,345.978824 115.278377,341.55995 C115.278377,341.55995 108.16704,264.201012 110.002713,252.398795 C112.816206,234.314117 122.285452,204.576804 126.111278,186.679515 C128.701269,174.555121 131.246889,158.707604 134.41207,135.354666 C137.447421,112.981411 125.572244,90.3747412 125.572244,90.3747412 C125.572244,90.3747412 128.901764,127.400498 122.648643,150.077849 C118.663408,164.523237 102.812856,216.494084 92.4331689,233.423197 C88.7946908,239.358825 77.616313,243.930129 73.6064274,243.74274 C68.3377006,243.497819 56.2176571,237.41261 52.8733468,233.331147 C40.8124655,218.609607 27.8542901,186.503632 21.9725768,168.402517 C17.1952254,153.697415 15.3989938,106.90442 15.3989938,106.90442 C15.3989938,106.90442 8.10231676,154.282594 10.4671632,169.901628 Z" id="Fill-8" fill="#4A90E2" transform="translate(72.452007, 219.307538) scale(1, -1) rotate(2.000000) translate(-72.452007, -219.307538) "></path>
    </g>
</svg>