<?xml version="1.0" encoding="UTF-8"?>
<svg width="145px" height="532px" viewBox="0 0 145 532" version="1.1" xmlns="http://www.w3.org/2000/svg" xmlns:xlink="http://www.w3.org/1999/xlink">
    <title>52/pulp</title>
    <g id="52/pulp" stroke="none" stroke-width="1" fill="none" fill-rule="evenodd" opacity="0.7">
        <path d="M66.0394191,183.034804 C67.1148109,219.731267 67.2445406,293.214662 65.4283235,329.882106 C64.5287498,348.022087 56.2516474,370.504602 57.1478071,385.691523 C57.2860718,388.028366 58.7660157,397.966352 60.9714222,401.503195 C63.4806696,405.531647 65.0920502,410.044878 69.7589089,410.91202 C75.760619,412.024965 82.4912057,410.285561 86.5469688,405.905474 C86.8405678,405.587977 87.0880786,405.239755 87.3151058,404.871049 C88.8257751,402.416425 94.8291921,392.4443 95.663901,387.709163 C98.135595,373.68981 93.5660336,344.978558 92.7040132,328.233172 C90.8485357,292.151219 89.1227881,219.74663 84.0343075,183.977052 C80.0741347,156.129527 59.2012933,74.2393 59.2012933,74.2393 C59.2012933,74.2393 65.2405567,155.793254 66.0394191,183.034804 Z" id="Fill-10" fill="#4D5565"></path>
    </g>
</svg>