<?xml version="1.0" encoding="UTF-8" standalone="no"?><!DOCTYPE svg PUBLIC "-//W3C//DTD SVG 1.1//EN" "http://www.w3.org/Graphics/SVG/1.1/DTD/svg11.dtd"><svg width="180px" height="532px" version="1.1" xmlns="http://www.w3.org/2000/svg" xmlns:xlink="http://www.w3.org/1999/xlink" xml:space="preserve" xmlns:serif="http://www.serif.com/" style="fill-rule:evenodd;clip-rule:evenodd;stroke-linejoin:round;stroke-miterlimit:2;"><g transform="matrix(2.60653,0,0,-2.60653,92.9865,118.757)"><path id="pulp" d="M0,-136.446C0,-136.446 -1.531,-94.712 -1.443,-80.794C-1.366,-68.69 -1.825,-46.154 -1.137,-34.635C-0.698,-27.283 2.169,-5.361 2.169,-5.361C2.246,-4.172 1.81,-3.008 0.972,-2.162L0.328,-1.512C-1.094,-0.078 -3.387,0 -4.902,-1.335L-5.817,-2.14C-6.8,-3.006 -7.395,-4.222 -7.47,-5.53C-7.874,-12.563 -9.173,-35.868 -9.177,-44.544C-9.182,-53.72 -7.96,-72.519 -7.352,-81.202C-6.378,-95.1 0,-136.446 0,-136.446" style="fill:rgb(233,49,42);fill-rule:nonzero;"/></g></svg>