<?xml version="1.0" encoding="UTF-8" standalone="no"?><!DOCTYPE svg PUBLIC "-//W3C//DTD SVG 1.1//EN" "http://www.w3.org/Graphics/SVG/1.1/DTD/svg11.dtd"><svg width="177px" height="532px" version="1.1" xmlns="http://www.w3.org/2000/svg" xmlns:xlink="http://www.w3.org/1999/xlink" xml:space="preserve" xmlns:serif="http://www.serif.com/" style="fill-rule:evenodd;clip-rule:evenodd;stroke-linejoin:round;stroke-miterlimit:2;"><path id="treatment" d="M85.285,206.841C85.202,204.74 85.106,202.755 84.996,200.908C84.283,188.964 76.016,120.747 72.571,92.588C74.352,92.275 75.552,91.91 79.138,91.728C80.055,91.68 83.391,91.53 87.781,91.836C90.328,92.011 90.561,92.157 95.342,92.699C96.514,92.832 97.61,92.957 98.678,93.072C99.531,119.622 100.885,177.919 101.362,206.834C101.471,213.417 101.534,218.477 101.536,221.293C101.544,240.166 99.03,278.836 97.78,296.698C95.776,325.289 82.656,410.337 82.656,410.337C82.656,410.337 85.805,324.488 85.625,295.859C85.48,272.903 86.27,231.701 85.285,206.841Z" style="fill:rgb(74,144,226);"/></svg>