<?xml version="1.0" encoding="UTF-8"?>
<svg width="177px" height="532px" viewBox="0 0 177 532" version="1.1" xmlns="http://www.w3.org/2000/svg" xmlns:xlink="http://www.w3.org/1999/xlink">
    <title>51/treatment</title>
    <g id="51/treatment" stroke="none" stroke-width="1" fill="none" fill-rule="evenodd" opacity="0.7">
        <g id="Group-14" transform="translate(70.794811, 111.000000)" fill="#4A90E2">
            <path d="M10.6382616,101.693127 C11.6504852,135.993975 11.7725947,204.680234 10.0630616,238.953958 C9.21632855,255.909727 -1.65952555,359.35292 0.217265024,359.91449 C2.47637468,360.590456 9.16590904,361.43065 20.2858681,362.435069 C22.6783147,362.546128 25.1084039,362.706646 27.5761357,362.916625 C31.3231606,363.23546 36.6579115,363.427249 42.9893031,363.427249 C45.7394076,363.427249 36.547971,253.064885 35.7365855,237.41267 C33.9900982,203.686215 32.3657204,136.008335 27.5761357,102.573863 C23.8469756,76.5442776 4.20180522,0 4.20180522,0 C4.20180522,0 9.88632413,76.2299568 10.6382616,101.693127 Z" id="Fill-12"></path>
        </g>
    </g>
</svg>