<?xml version="1.0" encoding="UTF-8" standalone="no"?><!DOCTYPE svg PUBLIC "-//W3C//DTD SVG 1.1//EN" "http://www.w3.org/Graphics/SVG/1.1/DTD/svg11.dtd"><svg width="177px" height="532px" version="1.1" xmlns="http://www.w3.org/2000/svg" xmlns:xlink="http://www.w3.org/1999/xlink" xml:space="preserve" xmlns:serif="http://www.serif.com/" style="fill-rule:evenodd;clip-rule:evenodd;stroke-linejoin:round;stroke-miterlimit:2;"><path id="treatment" d="M83.16,158.264C80.404,134.495 77.048,106.875 75.262,92.277C79.623,92.07 84.596,91.856 89.916,91.668C91.97,91.596 96.353,92.327 100.827,92.944C101.335,105.677 102.138,132.389 102.827,158.272C103.032,165.977 103.227,173.608 103.401,180.775C103.663,191.555 103.878,201.284 104.008,208.636C104.095,213.55 104.145,217.402 104.146,219.793C104.156,238.775 101.628,277.668 100.371,295.633C98.355,324.388 85.16,409.926 85.16,409.926C85.16,409.926 88.327,323.582 88.146,294.789C88.007,272.864 88.717,234.388 87.94,209.156C87.832,205.648 87.696,202.395 87.524,199.478C87.52,199.416 87.517,199.353 87.513,199.29C87.188,193.849 85.366,177.29 83.16,158.264Z" style="fill:rgb(74,144,226);"/></svg>