<?xml version="1.0" encoding="UTF-8" standalone="no"?><!DOCTYPE svg PUBLIC "-//W3C//DTD SVG 1.1//EN" "http://www.w3.org/Graphics/SVG/1.1/DTD/svg11.dtd"><svg width="142px" height="532px" version="1.1" xmlns="http://www.w3.org/2000/svg" xmlns:xlink="http://www.w3.org/1999/xlink" xml:space="preserve" xmlns:serif="http://www.serif.com/" style="fill-rule:evenodd;clip-rule:evenodd;stroke-linejoin:round;stroke-miterlimit:2;"><g id="_55-pulp" serif:id="55/pulp" opacity="0.7"><path id="Fill-15" d="M117.401,313.658C114.234,323.702 104.622,342.97 102.941,353.32C101.201,364.04 106.526,390.487 109.777,404.982C110.707,409.132 106.124,412.459 101.861,410.735L79.68,401.764C75.73,400.167 71.341,399.739 67.137,400.545L43.846,407.664C39.493,408.994 35.21,405.374 36.348,401.323L46.559,364.951C47.894,360.198 47.479,355.163 45.379,350.614L40.207,339.408C40.207,339.408 22.875,308.652 17.98,298.043C11.299,283.568 8.739,269.189 7.868,258.254C7.264,250.658 15.022,224.432 15.022,224.432C15.022,224.432 13.446,246.771 14.543,254.144C16.038,264.196 21.912,284.111 27.025,293.158C31.836,301.667 43.415,320.136 50.058,327.566C54.38,332.401 59.844,340.819 69.312,341.538C79.142,342.283 87.719,332.376 91.207,328.392C95.979,322.941 99.472,313.178 101.962,307.468C106.197,297.753 113.792,279.814 114.969,269.394C116.403,256.689 111.45,218.328 111.45,218.328C111.45,218.328 126.419,246.979 126.268,269.964C126.195,281.078 120.931,302.465 117.401,313.658ZM79.747,325.106C77.086,327.189 75.564,328.383 73.189,328.868C70.507,329.416 68.29,328.745 66.811,328.298C65.134,327.79 63.753,327.076 62.648,326.365C62.648,326.365 64.311,297.828 65.306,288.354C66.82,273.958 73.368,231.016 73.368,231.016C73.368,231.016 75.887,276.056 77.646,290.98C78.578,298.886 82.826,322.396 82.826,322.396C81.982,323.224 80.973,324.145 79.747,325.106Z" style="fill:rgb(77,85,101);"/></g></svg>