<?xml version="1.0" encoding="UTF-8" standalone="no"?><!DOCTYPE svg PUBLIC "-//W3C//DTD SVG 1.1//EN" "http://www.w3.org/Graphics/SVG/1.1/DTD/svg11.dtd"><svg width="180px" height="532px" version="1.1" xmlns="http://www.w3.org/2000/svg" xmlns:xlink="http://www.w3.org/1999/xlink" xml:space="preserve" xmlns:serif="http://www.serif.com/" style="fill-rule:evenodd;clip-rule:evenodd;stroke-linejoin:round;stroke-miterlimit:2;"><path id="treatment" d="M69.99,192.461C70.799,163.422 71.994,126.373 72.962,99.353C73.256,91.145 73.528,83.862 73.763,78.011C76.527,75.818 79.385,73.796 82.152,71.553C83.68,70.313 85.784,68.814 88.622,68.113C91.604,67.375 93.971,67.746 94.962,67.96C97.081,68.416 98.544,68.601 101.193,70.131C103.464,71.442 105.257,72.505 106.604,73.318C105.82,79.283 104.616,88.477 103.206,99.353C99.273,129.683 93.739,173.091 91.255,195.993C90.616,201.892 90.178,206.43 90.023,209.034C88.23,239.059 89.426,297.8 89.225,329.349C88.996,365.627 92.987,474.408 92.987,474.408C92.987,474.408 76.362,366.638 73.823,330.413C72.239,307.78 69.053,258.78 69.066,234.863C69.069,228.164 69.441,212.155 69.99,192.461Z" style="fill:rgb(74,144,226);"/></svg>