<?xml version="1.0" encoding="UTF-8"?>
<svg width="177px" height="532px" viewBox="0 0 177 532" version="1.1" xmlns="http://www.w3.org/2000/svg" xmlns:xlink="http://www.w3.org/1999/xlink">
    <title>51/pulp</title>
    <g id="51/pulp" stroke="none" stroke-width="1" fill="none" fill-rule="evenodd" opacity="0.7">
        <path d="M77.7726262,426.400732 C77.7726262,426.400732 83.4355558,349.928775 84.1846374,324.384769 C85.1930166,289.97503 85.3146624,221.070719 83.611622,186.68819 C82.7681048,169.678593 75.0067862,148.597066 75.8471022,134.356511 C75.9767509,132.165287 77.3644728,122.846582 79.4308498,119.530135 C81.7853352,115.752715 83.2963034,111.520723 87.672349,110.707618 C93.3000652,109.664025 99.6112385,111.295039 103.414269,115.402183 C103.689572,115.699895 103.921659,116.026418 104.134539,116.372148 C105.551072,118.673813 111.180389,128.02453 111.963083,132.464599 C114.280755,145.610343 109.995944,172.532466 109.18764,188.234371 C107.447785,222.067894 105.827976,289.960624 101.058183,323.501237 C97.3431856,349.613456 77.7726262,426.400732 77.7726262,426.400732" id="Fill-6" fill="#4D5565" transform="translate(94.213331, 268.400732) scale(1, -1) translate(-94.213331, -268.400732) "></path>
    </g>
</svg>