<?xml version="1.0" encoding="UTF-8"?>
<svg width="180px" height="532px" viewBox="0 0 180 532" version="1.1" xmlns="http://www.w3.org/2000/svg" xmlns:xlink="http://www.w3.org/1999/xlink">
    <title>53/pulp</title>
    <defs>
        <polygon id="path-1" points="0 0 59 0 59 372 0 372"></polygon>
    </defs>
    <g id="53/pulp" stroke="none" stroke-width="1" fill="none" fill-rule="evenodd">
        <g id="Group-3" transform="translate(81.500000, 221.000000) scale(1, -1) translate(-81.500000, -221.000000) translate(52.000000, 35.000000)">
            <path d="M0,372 C0,372 11.4384176,282.133765 13.906568,252.046624 C17.2315572,211.516341 21.6465513,130.234547 21.7640823,89.5681232 C21.8209521,69.4495223 13.9482726,44.1008416 15.8249768,27.3517283 C16.1131173,24.7745052 18.3329361,13.8681058 20.98307,10.0826323 C24.0009621,5.77150351 26.0501715,0.872321675 31.2765084,0.184053751 C37.9966262,-0.698971304 45.3593729,1.61542413 49.6018619,6.69423633 C49.9108546,7.06484214 50.1648732,7.46191979 50.3961438,7.88357843 C51.9278378,10.687703 58.0072221,22.0668139 58.6574338,27.3517283 C60.5834252,43.0060418 53.8462466,74.4999719 51.9183595,92.9735367 C47.7630709,132.779626 41.6400863,212.773754 33.9190597,252.046624 C27.9060234,282.623494 0,372 0,372" id="Fill-1" fill="#4D5565" opacity="0.7"></path>
        </g>
    </g>
</svg>
