<?xml version="1.0" encoding="UTF-8"?>
<svg width="142px" height="532px" viewBox="0 0 142 532" version="1.1" xmlns="http://www.w3.org/2000/svg" xmlns:xlink="http://www.w3.org/1999/xlink">
    <title>45/pulp</title>
    <g id="45/pulp" stroke="none" stroke-width="1" fill="none" fill-rule="evenodd" opacity="0.7">
        <g id="Group-11" transform="translate(70.500000, 266.000000) rotate(-2.000000) translate(-70.500000, -266.000000) translate(21.000000, 146.000000)" fill="#4D5565">
            <path d="M10.786561,240 C10.786561,240 -0.057953212,183.332384 0,164.189197 C0.0547831865,145.822502 4.36967792,114.189963 8.09543406,96.2051509 C9.99195122,87.0508995 16.3870143,65.7837225 16.4524742,56.4348933 C16.5324807,45.0711832 9.32826113,11.3128356 9.32826113,11.3128356 C7.50084048,4.06981152 14.9268961,-2.03120422 21.6765334,1.16569166 L46.5367276,12.9421977 C50.3170336,14.7334051 54.7392098,14.5333718 58.3431379,12.4093818 L77.5683305,1.07476743 C83.0396825,-2.15122421 89.8256863,2.3277033 89.0110749,8.62693386 C89.0110749,8.62693386 82.7942081,43.6054846 82.9633127,55.3910831 C83.2178787,73.1613144 91.9858612,107.95438 94.0987595,125.599136 C95.8898136,140.563445 99.2700872,170.619358 98.9827912,185.687321 C98.78823,195.958122 94.0987595,226.483204 94.0987595,226.483204 C94.0987595,226.483204 92.7622877,192.910342 91.2312547,181.828497 C88.4383013,161.608767 79.4630293,121.696668 74.1771469,101.978839 C72.1751667,94.5103233 69.3676667,78.6731411 64.6418296,72.552122 C61.8943344,68.9915293 53.9846033,62.6377442 49.4915123,62.8523253 C44.0328886,63.1123686 35.2703611,71.7592628 32.2846649,76.3382069 C21.9256445,92.2263066 16.2233647,131.07823 13.5431478,149.855901 C11.8266452,161.86881 12.2557708,186.238322 11.8884684,198.367614 C11.5738975,208.774801 10.786561,240 10.786561,240" id="Fill-9"></path>
        </g>
    </g>
</svg>