<?xml version="1.0" encoding="UTF-8" standalone="no"?><!DOCTYPE svg PUBLIC "-//W3C//DTD SVG 1.1//EN" "http://www.w3.org/Graphics/SVG/1.1/DTD/svg11.dtd"><svg width="145px" height="532px" version="1.1" xmlns="http://www.w3.org/2000/svg" xmlns:xlink="http://www.w3.org/1999/xlink" xml:space="preserve" xmlns:serif="http://www.serif.com/" style="fill-rule:evenodd;clip-rule:evenodd;stroke-linejoin:round;stroke-miterlimit:2;"><g transform="matrix(1.87347,9.04028e-32,9.04028e-32,-1.87347,67.9893,139.788)"><path id="root" d="M0,-133.603C0,-133.603 -2.235,-99.806 -2.322,-86.179C-2.396,-74.327 -1.46,-52.133 -2.133,-40.853C-2.562,-33.655 -2.124,-5.249 -2.124,-5.249C-2.199,-4.085 -1.773,-2.945 -0.952,-2.117L-0.321,-1.48C1.071,-0.076 3.316,0 4.8,-1.307L5.696,-2.095C6.658,-2.943 7.241,-4.134 7.315,-5.414C7.71,-12.301 6.819,-31.303 6.823,-39.799C6.827,-48.783 3.141,-77.439 2.545,-85.941C1.591,-99.55 0,-133.603 0,-133.603" style="fill:rgb(233,49,42);fill-rule:nonzero;"/></g></svg>