<?xml version="1.0" encoding="UTF-8" standalone="no"?><!DOCTYPE svg PUBLIC "-//W3C//DTD SVG 1.1//EN" "http://www.w3.org/Graphics/SVG/1.1/DTD/svg11.dtd"><svg width="142px" height="532px" version="1.1" xmlns="http://www.w3.org/2000/svg" xmlns:xlink="http://www.w3.org/1999/xlink" xml:space="preserve" xmlns:serif="http://www.serif.com/" style="fill-rule:evenodd;clip-rule:evenodd;stroke-linejoin:round;stroke-miterlimit:2;"><g id="treatment" opacity="0.7"><g id="Group-11"><path d="M108.238,181.525C107.236,188.983 106.467,196.188 106.527,200.38C106.775,217.692 115.318,251.587 117.376,268.777C119.121,283.355 122.415,312.635 122.135,327.314C121.945,337.32 117.376,367.057 117.376,367.057C117.376,367.057 116.074,334.351 114.583,323.555C111.861,303.857 103.117,264.975 97.967,245.766C96.017,238.49 93.281,223.062 88.677,217.098C86,213.63 78.294,207.44 73.916,207.649C68.598,207.902 60.061,216.326 57.152,220.787C47.06,236.265 41.504,274.114 38.893,292.407C37.22,304.11 37.639,327.851 37.281,339.667C36.974,349.806 36.207,380.225 36.207,380.225C36.207,380.225 25.642,325.02 25.698,306.371C25.751,288.478 29.955,257.662 33.585,240.141C35.433,231.223 41.664,210.505 41.727,201.397C41.746,198.712 41.347,194.742 40.733,190.27C38.813,176.306 34.786,157.44 34.786,157.44C33.624,152.833 31.289,133.121 31.637,120.857C31.928,120.727 32.231,120.585 32.548,120.427L32.549,120.426C33.371,120.016 34.276,119.505 35.308,118.789C40.181,115.414 41.384,114.708 44.631,113.098C48.789,111.036 51.811,110.614 53.862,111.312C54.9,111.665 55.468,111.916 57.69,113.029C60.507,114.438 60.507,114.277 62.963,115.423C66.054,116.868 64.936,116.473 67.641,117.602C68.657,118.026 69.576,118.542 73.578,119.873C75.718,120.582 76.865,121.018 77.62,121.378C77.997,121.558 78.283,121.721 78.529,121.889C79.956,122.855 80.093,123.539 81.642,124.523C82.087,124.806 82.762,125.631 84.436,125.815C84.763,125.851 86.587,125.031 89.187,124.202C90.982,123.63 93.106,123.237 95.533,122.369C97.681,120.65 97.137,120.591 98.195,119.663C101.617,116.66 104.654,114.18 107.266,113.029C110.489,111.608 113.376,111.265 114.212,111.312C114.22,111.312 114.227,111.313 114.235,111.313C114.714,126.197 112.95,150.722 112.419,154.823C112.419,154.823 109.978,168.557 108.238,181.525Z" style="fill:rgb(74,144,226);"/></g></g></svg>