<?xml version="1.0" encoding="UTF-8" standalone="no"?><!DOCTYPE svg PUBLIC "-//W3C//DTD SVG 1.1//EN" "http://www.w3.org/Graphics/SVG/1.1/DTD/svg11.dtd"><svg width="142px" height="532px" version="1.1" xmlns="http://www.w3.org/2000/svg" xmlns:xlink="http://www.w3.org/1999/xlink" xml:space="preserve" xmlns:serif="http://www.serif.com/" style="fill-rule:evenodd;clip-rule:evenodd;stroke-linejoin:round;stroke-miterlimit:2;">
<g id="treatment" opacity="0.7">
    <path d="M102.792,180.606C102.019,188.383 101.474,195.917 101.688,200.263C102.563,218.013 112.54,252.479 115.267,270.039C117.579,284.932 122.006,314.852 122.245,329.92C122.409,340.192 118.788,370.862 118.788,370.862C118.788,370.862 116.28,337.356 114.364,326.334C110.867,306.224 100.504,266.65 94.533,247.129C92.272,239.734 88.913,224.005 83.977,218.053C81.107,214.59 72.98,208.516 68.497,208.887C63.051,209.338 54.595,218.285 51.771,222.966C41.973,239.206 37.63,278.233 35.607,297.093C34.311,309.158 35.59,333.498 35.646,345.632C35.695,356.044 35.998,387.278 35.998,387.278C35.998,387.278 23.183,331.023 22.572,311.89C21.986,293.532 25.194,261.769 28.29,243.665C29.866,234.45 35.515,212.972 35.254,203.627C35.152,199.974 34.217,194.032 32.994,187.651C30.415,174.192 26.56,158.781 26.56,158.781C24.983,153.339 22.736,135.682 24.735,128.76C27.051,127.239 28.564,126.534 29.552,126.154C29.932,126.008 30.241,125.907 30.477,125.831C30.928,125.687 32.482,124.638 35.713,122.791C38.543,121.174 38.263,121.403 41.792,119.414C45.595,117.271 45.672,117.145 46.52,116.881C49.168,116.057 51.474,116.33 53.276,116.543C54.02,116.632 56.078,116.913 59.187,118.063C63.838,119.785 63.434,120.712 67.798,122.454C71.081,123.764 73.421,124.084 76.411,125.662C77.211,126.085 77.79,126.394 78.284,126.694C78.715,126.955 79.081,127.207 79.448,127.519C80.18,128.139 80.682,128.727 81.813,129.376C82.777,129.93 83.324,130.026 83.67,130.053C84.269,130.097 84.647,129.962 85.528,129.716C87.205,129.243 86.907,129.428 88.23,129.039C90.668,128.322 91.085,127.869 93.466,127.182C94.499,126.884 95.096,126.969 95.492,126.676C98.762,124.251 98.75,123.082 103.774,119.471C104.805,118.73 106.423,117.923 108.081,117.274C109.397,125.493 106.564,148.384 106.1,153.316C106.1,153.316 104.113,167.315 102.792,180.606Z" style="fill:rgb(74,144,226);"/>
</g>
</svg>
