<?xml version="1.0" encoding="UTF-8" standalone="no"?><!DOCTYPE svg PUBLIC "-//W3C//DTD SVG 1.1//EN" "http://www.w3.org/Graphics/SVG/1.1/DTD/svg11.dtd"><svg width="145px" height="532px" version="1.1" xmlns="http://www.w3.org/2000/svg" xmlns:xlink="http://www.w3.org/1999/xlink" xml:space="preserve" xmlns:serif="http://www.serif.com/" style="fill-rule:evenodd;clip-rule:evenodd;stroke-linejoin:round;stroke-miterlimit:2;"><path id="root-treatment" serif:id="root treatment" d="M83.727,200.551C83.714,202.096 83.708,203.394 83.708,204.41C83.716,222.485 76.3,280.138 75.101,297.243C73.182,324.623 69.981,393.134 69.981,393.134C69.981,393.134 65.484,325.138 65.309,297.722C65.161,273.877 67.044,229.225 65.69,206.53C65.592,204.89 65.519,201.949 65.467,198.024C65.419,194.408 65.388,189.955 65.372,184.914C65.342,175.931 65.357,165.077 65.397,153.752C65.477,131.079 65.658,106.514 65.782,91.268C68.496,91.15 71.385,91.035 74.393,90.929C76.387,90.859 80.74,91.603 85.085,92.191C85.051,107.839 84.718,131.781 84.388,153.759C84.204,166.005 84.021,177.641 83.891,186.892C83.814,192.424 83.755,197.104 83.727,200.551Z" style="fill:rgb(74,144,226);"/></svg>