<?xml version="1.0" encoding="UTF-8"?>
<svg width="146px" height="532px" viewBox="0 0 146 532" version="1.1" xmlns="http://www.w3.org/2000/svg" xmlns:xlink="http://www.w3.org/1999/xlink">
    <title>44/pulp</title>
    <g id="44/pulp" stroke="none" stroke-width="1" fill="none" fill-rule="evenodd" opacity="0.7">
        <path d="M16.0422892,143.758784 C16.0422892,143.758784 8.74561209,191.136959 11.1104585,206.755993 C14.5615896,229.536901 36.8542527,271.436415 40.0605178,294.251842 C41.5412174,304.786718 38.3464561,336.76941 38.3464561,336.76941 C38.0029864,345.307114 47.2700949,350.817007 54.6045701,346.436379 L64.591486,340.472808 C70.3302239,337.043919 77.4839255,337.027481 83.2390974,340.428426 L93.7781942,346.656643 C101.232637,351.061928 110.646008,345.688467 110.646008,337.029125 C110.646008,337.029125 108.810335,301.055376 110.646008,289.253159 C113.459502,271.168481 122.928748,241.431169 126.754573,223.53388 C129.344565,211.409485 131.890185,195.561968 135.055365,172.209031 C138.090717,149.835775 126.215539,127.229106 126.215539,127.229106 C126.215539,127.229106 129.545059,164.254862 123.291938,186.932214 C119.306704,201.377601 103.456152,253.348449 93.0764642,270.277562 C89.4379861,276.213189 78.2596083,280.784494 74.2497227,280.597105 C68.980996,280.352184 56.8609524,274.266974 53.5166421,270.185511 C41.4557608,255.463972 28.4975854,223.357997 22.6158721,205.256881 C17.8385207,190.551779 16.0422892,143.758784 16.0422892,143.758784" id="Fill-8" fill="#4D5565" transform="translate(73.095302, 237.729106) scale(1, -1) rotate(2.000000) translate(-73.095302, -237.729106) "></path>
    </g>
</svg>