<?xml version="1.0" encoding="UTF-8" standalone="no"?><!DOCTYPE svg PUBLIC "-//W3C//DTD SVG 1.1//EN" "http://www.w3.org/Graphics/SVG/1.1/DTD/svg11.dtd"><svg width="145px" height="532px" version="1.1" xmlns="http://www.w3.org/2000/svg" xmlns:xlink="http://www.w3.org/1999/xlink" xml:space="preserve" xmlns:serif="http://www.serif.com/" style="fill-rule:evenodd;clip-rule:evenodd;stroke-linejoin:round;stroke-miterlimit:2;"><path id="treatment" d="M80.981,199.181C80.85,206.424 80.771,211.784 80.772,214.35C80.779,231.181 73.874,284.868 72.757,300.796C70.97,326.292 67.989,390.089 67.989,390.089C67.989,390.089 63.802,326.771 63.639,301.242C63.5,279.037 65.254,237.458 63.993,216.325C63.846,213.852 63.801,207.09 63.826,197.693C63.898,170.66 64.548,121.825 64.999,90.631C66.477,90.593 68.871,90.586 71.747,90.785C74.14,90.951 74.361,91.086 78.854,91.598C80.336,91.766 81.689,91.919 83.02,92.056C82.554,124.312 81.444,173.539 80.981,199.181Z" style="fill:rgb(74,144,226);"/></svg>