<?xml version="1.0" encoding="UTF-8"?>
<svg width="145px" height="532px" viewBox="0 0 145 532" version="1.1" xmlns="http://www.w3.org/2000/svg" xmlns:xlink="http://www.w3.org/1999/xlink">
    <title>52/pulp</title>
    <g id="52/pulp" stroke="none" stroke-width="1" fill="none" fill-rule="evenodd" opacity="0.7">
        <path d="M56.2825776,416.509941 C56.2825776,416.509941 52.9616474,327.494461 52.8057352,299.837366 C52.5978522,262.579544 55.7351525,210.839209 53.5437197,157.002721 C52.7936087,138.584292 42.7979034,116.126003 43.168628,100.690694 C43.2257958,98.3156311 43.5116348,88.6923827 45.6216468,85.0267133 C48.0261596,80.8517307 49.2249513,76.4030355 53.564508,74.3068824 C58.4705457,71.9370167 64.3207185,71.8850459 69.8729257,74.3068824 C70.9452552,74.774619 74.9244814,78.2514614 76.5407714,80.8638572 C79.9639107,86.4004732 83.9552634,105.797685 83.9259753,110.676005 C83.8374631,125.288444 81.5472858,140.694303 81.2666439,157.709523 C80.6620509,194.371414 80.7088246,242.047637 76.8144839,278.513772 C73.7828575,306.898457 56.2825776,416.509941 56.2825776,416.509941" id="Fill-4" fill="#4D5565" transform="translate(63.542272, 244.509941) scale(-1, -1) rotate(-6.000000) translate(-63.542272, -244.509941) "></path>
    </g>
</svg>