<?xml version="1.0" encoding="UTF-8"?>
<svg width="177px" height="532px" viewBox="0 0 177 532" version="1.1" xmlns="http://www.w3.org/2000/svg" xmlns:xlink="http://www.w3.org/1999/xlink">
    <title>51/pulp</title>
    <defs>
        <polygon id="path-1" points="0 0 37 0 37 315 0 315"></polygon>
    </defs>
    <g id="51/pulp" stroke="none" stroke-width="1" fill="none" fill-rule="evenodd" opacity="0.7">
        <g id="Group-14" transform="translate(73.000000, 111.000000)">
            <path d="M1.99661661,0 C1.99661661,0 7.68113551,76.2299568 8.43307301,101.693127 C9.44529655,135.993975 9.56740606,204.680234 7.85787296,238.953958 C7.01113993,255.909727 -0.779767982,276.92454 0.0637516411,291.12003 C0.193894669,293.30432 1.58690707,302.593535 3.6627687,305.899487 C6.02462364,309.664953 7.54135226,313.883553 11.9340811,314.694085 C17.5832525,315.734375 23.9184866,314.108523 27.7360154,310.014376 C28.0123685,309.717606 28.2453406,309.392117 28.4590322,309.047481 C29.8809653,306.753099 35.5317434,297.431974 36.3174217,293.005955 C38.6439291,279.901812 34.3427824,253.064885 33.5313969,237.41267 C31.7849096,203.686215 30.1605318,136.008335 25.370947,102.573863 C21.641787,76.5442776 1.99661661,0 1.99661661,0" id="Fill-12" fill="#4D5565"></path>
        </g>
    </g>
</svg>
