<?xml version="1.0" encoding="UTF-8" standalone="no"?><!DOCTYPE svg PUBLIC "-//W3C//DTD SVG 1.1//EN" "http://www.w3.org/Graphics/SVG/1.1/DTD/svg11.dtd"><svg width="180px" height="532px" version="1.1" xmlns="http://www.w3.org/2000/svg" xmlns:xlink="http://www.w3.org/1999/xlink" xml:space="preserve" xmlns:serif="http://www.serif.com/" style="fill-rule:evenodd;clip-rule:evenodd;stroke-linejoin:round;stroke-miterlimit:2;"><g transform="matrix(2.60949,0,0,2.60949,92.258,112.907)"><path d="M0,140.491C0,140.491 -1.576,97.519 -1.486,83.189C-1.407,70.727 -1.879,47.522 -1.171,35.661C-0.719,28.091 2.234,5.52 2.234,5.52C2.313,4.296 1.864,3.097 1.001,2.226L0.338,1.557C-1.126,0.08 -3.487,0 -5.048,1.374L-5.99,2.204C-7.002,3.095 -7.614,4.347 -7.692,5.693C-8.107,12.936 -9.445,36.931 -9.45,45.865C-9.454,55.312 -8.196,74.668 -7.57,83.609C-6.567,97.92 0,140.491 0,140.491" style="fill:rgb(233,49,42);fill-rule:nonzero;"/></g></svg>