<?xml version="1.0" encoding="UTF-8"?>
<svg width="146px" height="532px" viewBox="0 0 146 532" version="1.1" xmlns="http://www.w3.org/2000/svg" xmlns:xlink="http://www.w3.org/1999/xlink">
    <title>44/pulp</title>
    <g id="44/pulp" stroke="none" stroke-width="1" fill="none" fill-rule="evenodd" opacity="0.7">
        <path d="M18.3133041,332.748788 C18.3133041,332.748788 20.2771199,284.055937 24.2602836,268.40093 C27.6006215,255.269402 37.5223508,229.434512 45.6721023,218.619123 C50.5219028,212.181471 63.4474121,201.342482 71.489465,201.711648 C80.4721975,202.124642 91.2874883,215.974274 96.2836915,223.463797 C104.519265,235.809793 114.572252,264.215361 118.474642,278.540358 C122.957594,294.992696 128.596623,346 128.596623,346 C128.596623,346 133.4683,303.063781 133.561567,288.679785 C133.626482,278.415617 129.150261,258.465471 126.651318,248.51147 C124.492299,239.919506 117.17048,218.206128 113.38252,210.200785 C109.820053,202.66912 102.68839,193.777104 101.19239,185.579592 C98.834801,172.662146 106.642946,133.341733 106.642946,133.341733 C107.100665,128.958938 102.6581,125.717356 98.634549,127.497445 L79.0973582,136.143351 C75.7317784,137.631815 71.9202593,137.746442 68.4722227,136.458575 L44.3729885,127.463731 C39.5921824,125.678585 34.6515112,129.677042 35.3852076,134.732428 C35.3852076,134.732428 43.6914586,169.838615 42.19041,181.577763 C40.9165381,191.546935 29.9228716,209.137114 26.595996,218.619123 C22.8164498,229.390684 15.7100281,251.242288 14.1383023,262.549899 C12.8896722,271.531257 13.5829816,289.768741 14.1383023,298.819213 C14.6599672,307.350492 18.3133041,332.748788 18.3133041,332.748788" id="Fill-7" fill="#4D5565" transform="translate(73.500000, 236.500000) rotate(1.000000) translate(-73.500000, -236.500000) "></path>
    </g>
</svg>