<?xml version="1.0" encoding="UTF-8" standalone="no"?><!DOCTYPE svg PUBLIC "-//W3C//DTD SVG 1.1//EN" "http://www.w3.org/Graphics/SVG/1.1/DTD/svg11.dtd"><svg width="142px" height="532px" version="1.1" xmlns="http://www.w3.org/2000/svg" xmlns:xlink="http://www.w3.org/1999/xlink" xml:space="preserve" xmlns:serif="http://www.serif.com/" style="fill-rule:evenodd;clip-rule:evenodd;stroke-linejoin:round;stroke-miterlimit:2;"><g id="pulp" opacity="0.7"><g transform="matrix(1.77156,0,0,1.77156,36.2071,144.323)"><g id="Group-11"><path d="M0,133.161C0,133.161 -5.964,101.999 -5.932,91.472C-5.902,81.372 -3.529,63.977 -1.48,54.087C-0.437,49.053 3.08,37.358 3.116,32.217C3.16,25.968 -0.802,7.404 -0.802,7.404C-1.807,3.421 2.277,0.066 5.989,1.824L19.661,8.3C21.74,9.285 24.172,9.175 26.154,8.007L36.727,1.774C39.736,0 43.468,2.463 43.02,5.927C43.02,5.927 39.601,25.162 39.694,31.643C39.834,41.415 44.656,60.548 45.818,70.251C46.803,78.48 48.662,95.008 48.504,103.294C48.397,108.942 45.818,125.728 45.818,125.728C45.818,125.728 45.083,107.266 44.241,101.172C42.705,90.053 37.769,68.105 34.862,57.262C33.761,53.155 32.217,44.446 29.618,41.08C28.107,39.122 23.757,35.628 21.286,35.746C18.284,35.889 13.465,40.644 11.823,43.162C6.126,51.899 2.99,73.264 1.516,83.59C0.572,90.196 0.808,103.597 0.606,110.267C0.433,115.99 0,133.161 0,133.161" style="fill:rgb(77,85,101);fill-rule:nonzero;"/></g></g></g></svg>