<?xml version="1.0" encoding="UTF-8"?>
<svg width="146px" height="532px" viewBox="0 0 146 532" version="1.1" xmlns="http://www.w3.org/2000/svg" xmlns:xlink="http://www.w3.org/1999/xlink">
    <title>44/treatment</title>
    <g id="44/treatment" stroke="none" stroke-width="1" fill="none" fill-rule="evenodd" opacity="0.7">
        <path d="M24.5855347,268.403775 C27.9258727,255.272247 37.8476019,229.437356 45.9973534,218.621967 C50.847154,212.184316 63.7726632,201.345327 71.8147162,201.714493 C80.7974487,202.127487 91.6127394,215.977119 96.6089426,223.466641 C104.844516,235.812637 114.897503,264.218206 118.799893,278.543202 C123.282845,294.99554 128.921874,346.002845 128.921874,346.002845 C128.921874,346.002845 133.793551,303.066625 133.886105,288.68263 C133.951733,278.418461 129.475512,258.468316 126.976569,248.514314 C124.81755,239.92235 117.495731,218.208973 113.707771,210.203629 C110.145305,202.671965 103.013641,193.779948 101.517641,185.582436 C99.1600521,172.664991 110.051915,94.1909087 110.051915,94.1909087 C110.224444,92.5389008 95.3968279,89.224629 91.3219432,89.7951408 C87.2470585,90.3656527 82.394021,95.7351209 78.9311572,97.2717592 C78.4775841,97.4730313 74.9103349,98.675084 74.5538172,98.7571962 C69.8790041,99.8338871 70.2710176,100.049548 67.2227331,100.659938 C62.5216428,101.601285 55.846869,101.367735 47.1984117,99.9592868 C38.9592006,95.4318367 34.1743956,94.3326062 32.7664888,95.5399309 C32.7664888,95.5399309 44.0167097,169.84146 42.5156611,181.580607 C41.2417892,191.54978 30.2481227,209.139959 26.9212471,218.621967 C23.141701,229.393528 16.0352792,251.245133 14.4635534,262.552743 C13.2149233,271.534102 13.9082328,289.771586 14.4635534,298.822057 C14.9852183,307.353336 18.6385552,332.751633 18.6385552,332.751633 C18.6385552,332.751633 20.602371,284.058781 24.5855347,268.403775 Z" id="Fill-7" fill="#4A90E2" transform="translate(73.825600, 217.866379) rotate(1.000000) translate(-73.825600, -217.866379) "></path>
    </g>
</svg>