<?xml version="1.0" encoding="UTF-8" standalone="no"?><!DOCTYPE svg PUBLIC "-//W3C//DTD SVG 1.1//EN" "http://www.w3.org/Graphics/SVG/1.1/DTD/svg11.dtd"><svg width="180px" height="532px" version="1.1" xmlns="http://www.w3.org/2000/svg" xmlns:xlink="http://www.w3.org/1999/xlink" xml:space="preserve" xmlns:serif="http://www.serif.com/" style="fill-rule:evenodd;clip-rule:evenodd;stroke-linejoin:round;stroke-miterlimit:2;"><path d="M68.11,208.265C68.224,204.255 68.355,199.93 68.499,195.367C68.92,182.009 69.453,166.612 70.016,151.13C71.023,123.486 72.128,95.572 72.876,78.517C74.803,77.158 75.673,76.666 78.311,74.227C79.343,73.273 81.737,71.011 85.489,69.101C87.371,68.14 89.334,67.571 91.85,67.42C95.273,67.214 97.736,67.834 99.161,68.417C100.872,69.117 102.072,69.897 102.919,70.467C103.702,70.993 104.42,71.499 105.087,71.987C103.291,86.034 98.926,120.388 95.214,151.14C93.027,169.264 91.067,186.137 89.994,196.864C89.599,200.81 89.324,203.925 89.202,205.964C89.164,206.598 89.128,207.245 89.093,207.904C87.405,239.386 88.582,298.135 88.38,329.987C88.145,367.381 92.258,479.516 92.258,479.516C92.258,479.516 75.122,368.428 72.504,331.083C70.871,307.752 67.588,257.243 67.598,232.591C67.601,227.972 67.794,219.319 68.11,208.265Z" style="fill:rgb(74,144,226);"/></svg>