<?xml version="1.0" encoding="UTF-8"?>
<svg width="180px" height="532px" viewBox="0 0 180 532" version="1.1" xmlns="http://www.w3.org/2000/svg" xmlns:xlink="http://www.w3.org/1999/xlink">
    <title>53/treatment</title>
    <g id="53/treatment" stroke="none" stroke-width="1" fill="none" fill-rule="evenodd" opacity="0.7">
        <g id="Group-3" transform="translate(82.059722, 261.456093) scale(1, -1) translate(-82.059722, -261.456093) translate(53.000000, 37.000000)" fill="#4A90E2">
            <path d="M13.906568,328.958809 C17.2315572,288.428527 21.6465513,207.146732 21.7640823,166.480308 C21.8209521,146.361707 14.017748,24.0327429 15.8944523,7.28362954 C16.0349379,6.02707994 28.7848364,-1.59551107 35.8578008,0.301639407 C42.9307652,2.19878989 55.7429394,14.9493664 57.4437042,17.5870023 C60.1805655,21.8314714 53.8462466,151.412157 51.9183595,169.885722 C47.7630709,209.691811 41.6400863,289.685939 33.9190597,328.958809 C27.9060234,359.535679 0,448.912185 0,448.912185 C0,448.912185 11.4384176,359.04595 13.906568,328.958809 Z" id="Fill-1"></path>
        </g>
    </g>
</svg>