<?xml version="1.0" encoding="UTF-8"?>
<svg width="180px" height="532px" viewBox="0 0 180 532" version="1.1" xmlns="http://www.w3.org/2000/svg" xmlns:xlink="http://www.w3.org/1999/xlink">
    <title>53/pulp</title>
    <defs>
        <polygon id="path-1" points="0 0 59 0 59 372 0 372"></polygon>
    </defs>
    <g id="53/pulp" stroke="none" stroke-width="1" fill="none" fill-rule="evenodd" opacity="0.7">
        <g id="Group-9" transform="translate(55.000000, 36.000000)">
            <path d="M0,0 C0,0 11.4384176,89.8662351 13.906568,119.953376 C17.2315572,160.483659 21.6465513,241.765453 21.7640823,282.431877 C21.8209521,302.550478 13.9482726,327.899158 15.8249768,344.648272 C16.1131173,347.225495 18.3329361,358.131894 20.98307,361.917368 C24.0009621,366.228496 26.0501715,371.127678 31.2765084,371.815946 C37.9966262,372.698971 45.3593729,370.384576 49.6018619,365.305764 C49.9108546,364.935158 50.1648732,364.53808 50.3961438,364.116422 C51.9278378,361.312297 58.0072221,349.933186 58.6574338,344.648272 C60.5834252,328.993958 53.8462466,297.500028 51.9183595,279.026463 C47.7630709,239.220374 41.6400863,159.226246 33.9190597,119.953376 C27.9060234,89.376506 0,0 0,0" id="Fill-7" fill="#4D5565"></path>
        </g>
    </g>
</svg>
