<?xml version="1.0" encoding="UTF-8"?>
<svg width="212px" height="532px" viewBox="0 0 212 532" version="1.1" xmlns="http://www.w3.org/2000/svg" xmlns:xlink="http://www.w3.org/1999/xlink">
    <!-- Generator: Sketch 61.1 (89650) - https://sketch.com -->
    <title>46/lingual/rootcanal-treatment</title>
    <desc>Created with Sketch.</desc>
    <g id="46/lingual/rootcanal-treatment" stroke="none" stroke-width="1" fill="none" fill-rule="evenodd" opacity="0.699999988">
        <path d="M163.9864,158.5046 C167.1674,141.7426 169.1974,89.2106 164.9444,60.1826 C163.8274,60.0616 162.7074,59.9996 161.5874,59.9996 C153.4384,59.9996 148.1834,70.7966 143.0034,71.0576 C142.4894,71.0836 141.9814,71.1316 141.4784,71.1916 C127.8384,72.8026 118.1534,86.1806 112.0464,82.4066 C109.9034,81.0826 107.2904,79.6216 104.2654,78.0206 L104.1474,77.9576 C92.8974,72.0006 77.5874,64.9776 73.4084,63.2356 C71.6404,62.4986 69.6234,62.4876 67.4784,62.6006 C65.9824,62.6786 64.4264,62.8156 62.8424,62.8156 C58.9534,62.8156 44.1614,75.6256 35.9584,81.2756 C33.8674,79.9836 31.8824,78.9606 30.0004,78.1626 C30.4524,106.2636 35.3264,148.1146 38.6544,160.3366 C55.7224,223.0146 52.7164,305.8346 52.3944,361.8346 C52.0224,426.4236 47.2894,526.7536 49.3954,526.7686 C51.5874,526.7856 72.0924,399.5196 75.0584,337.4766 C77.0774,295.2456 83.6384,260.0056 98.4254,258.1866 C128.6994,254.4626 141.5424,316.6516 145.6784,334.5656 C162.0764,405.5656 140.1744,512.5586 142.4394,513.0896 C144.3494,513.5386 184.2134,400.3386 173.0944,319.8666 C165.1574,262.4216 151.0904,226.4506 163.9864,158.5046" id="Fill-1" fill="#4A90E2"></path>
    </g>
</svg>