<?xml version="1.0" encoding="UTF-8"?>
<svg width="183px" height="532px" viewBox="0 0 183 532" version="1.1" xmlns="http://www.w3.org/2000/svg" xmlns:xlink="http://www.w3.org/1999/xlink">
    <!-- Generator: Sketch 61.1 (89650) - https://sketch.com -->
    <title>48/buccal/pulp-black</title>
    <desc>Created with Sketch.</desc>
    <g id="48/buccal/pulp-black" stroke="none" stroke-width="1" fill="none" fill-rule="evenodd" opacity="0.699999988">
        <path d="M140.7984,261.2471 C149.4444,314.2291 127.4244,407.8821 121.9814,406.9891 C118.7394,406.4581 129.0274,337.7871 121.1694,291.2381 C119.1494,279.2741 111.1324,254.2871 102.0434,254.2871 C94.8754,254.2871 87.8244,272.4981 85.8324,300.3871 C82.9114,341.2831 69.3514,400.2311 65.0764,399.8641 C62.5824,399.6501 68.5724,336.1281 67.5194,293.4231 C66.6064,256.3961 68.5014,218.1611 51.0694,165.9601 C40.0944,133.0921 75.5594,147.3761 92.0274,146.8651 C107.9314,146.3721 143.2044,123.9681 136.3094,162.8571 C128.6844,205.8611 134.6264,223.4261 140.7984,261.2471" id="Fill-1" fill="#4E5565"></path>
    </g>
</svg>