<?xml version="1.0" encoding="UTF-8"?>
<svg width="212px" height="532px" viewBox="0 0 212 532" version="1.1" xmlns="http://www.w3.org/2000/svg" xmlns:xlink="http://www.w3.org/1999/xlink">
    <!-- Generator: Sketch 61.1 (89650) - https://sketch.com -->
    <title>46/lingual/pulp-black</title>
    <desc>Created with Sketch.</desc>
    <g id="46/lingual/pulp-black" stroke="none" stroke-width="1" fill="none" fill-rule="evenodd" opacity="0.699999988">
        <path d="M173.97138,320.156654 C185.08938,400.628654 145.22738,513.827654 143.31638,513.379654 C141.05238,512.847654 162.95238,405.855654 146.55538,334.855654 C142.41838,316.941654 129.57538,254.752654 99.30238,258.476654 C84.51538,260.295654 77.95338,295.535654 75.93538,337.766654 C72.96938,399.809654 52.46338,527.074654 50.27238,527.058654 C48.16538,527.043654 52.89938,426.714654 53.27138,362.124654 C53.59338,306.124654 56.59938,223.303654 39.53138,160.626654 C25.72338,109.923654 71.70338,133.723654 97.71738,133.713654 C122.83738,133.702654 176.06438,99.7766537 164.86338,158.794654 C151.96638,226.740654 166.03438,262.711654 173.97138,320.156654" id="Fill-1" fill="#4E5565"></path>
    </g>
</svg>