<?xml version="1.0" encoding="UTF-8"?>
<svg width="183px" height="532px" viewBox="0 0 183 532" version="1.1" xmlns="http://www.w3.org/2000/svg" xmlns:xlink="http://www.w3.org/1999/xlink">
    <!-- Generator: Sketch 61.1 (89650) - https://sketch.com -->
    <title>48/lingual/pulp-black</title>
    <desc>Created with Sketch.</desc>
    <g id="48/lingual/pulp-black" stroke="none" stroke-width="1" fill="none" fill-rule="evenodd" opacity="0.699999988">
        <path d="M139.237,262.16 C146.226,315.387 123.211,409.809 117.799,408.748 C114.575,408.116 125.086,338.296 118.682,291.524 C117.036,279.504 108.028,253.814 98.944,253.531 C91.779,253.307 86.17,271.647 83.308,299.462 C79.114,340.247 65.217,400.54 60.956,400.04 C58.47,399.748 62.937,334.288 63.216,291.571 C63.457,254.534 66.544,216.376 50.749,163.657 C40.803,130.463 75.805,145.846 92.282,145.848 C108.193,145.851 144.148,124.558 136.044,163.214 C127.081,205.959 134.248,224.164 139.237,262.16" id="Fill-1" fill="#4E5565"></path>
    </g>
</svg>