<?xml version="1.0" encoding="UTF-8"?>
<svg width="183px" height="532px" viewBox="0 0 183 532" version="1.1" xmlns="http://www.w3.org/2000/svg" xmlns:xlink="http://www.w3.org/1999/xlink">
    <!-- Generator: Sketch 61.1 (89650) - https://sketch.com -->
    <title>48/lingual/rootcanal-treatment</title>
    <desc>Created with Sketch.</desc>
    <g id="48/lingual/rootcanal-treatment" stroke="none" stroke-width="1" fill="none" fill-rule="evenodd" opacity="0.699999988">
        <path d="M135.354,162.685493 C137.202,153.876493 145.276,109.215493 146.352,85.9064935 C144.192,85.0844935 141.859,84.6174935 139.169,84.6174935 C135.976,84.6174935 134.272,85.0174935 132.487,85.4594935 C131.568,85.6874935 130.625,85.9264935 129.449,86.1264935 C127.808,86.4084935 125.71,86.6154935 122.568,86.6154935 C106.051,86.6154935 99.379,103.468493 95.609,101.208493 C91.838,98.9484935 75.661,89.9454935 70.064,87.0424935 C65.532,84.6924935 61.628,84.1224935 58.487,84.0194935 C56.566,83.9564935 54.929,84.0674935 53.61,84.0544935 C47.858,84 43.044,85.1634935 39,86.9624935 C39.013,108.831493 47.258,153.780493 50.06,163.128493 C65.855,215.847493 62.768,254.005493 62.527,291.042493 C62.249,333.759493 57.782,399.219493 60.267,399.511493 C64.529,400.011493 78.424,339.718493 82.62,298.932493 C85.481,271.119493 91.09,252.779493 98.254,253.001493 C107.339,253.286493 116.348,278.975493 117.994,290.996493 C124.397,337.767493 113.886,407.587493 117.11,408.219493 C122.522,409.281493 145.538,314.858493 138.548,261.631493 C133.559,223.635493 126.392,205.430493 135.354,162.685493" id="Fill-1" fill="#4A90E2"></path>
    </g>
</svg>