<?xml version="1.0" encoding="UTF-8"?>
<svg width="212px" height="532px" viewBox="0 0 212 532" version="1.1" xmlns="http://www.w3.org/2000/svg" xmlns:xlink="http://www.w3.org/1999/xlink">
    <!-- Generator: Sketch 61.1 (89650) - https://sketch.com -->
    <title>16/lingual/pulp-black</title>
    <desc>Created with Sketch.</desc>
    <g id="16/lingual/pulp-black" stroke="none" stroke-width="1" fill="none" fill-rule="evenodd" opacity="0.699999988">
        <path d="M99.343,23.0002 C103.799,23.0002 134.735,318.7372 167.438,406.4052 C177.974,434.6492 139.397,412.2512 123.568,412.2512 C103.216,412.2512 67.936,432.4762 74.724,410.0232 C115.88,273.8922 94.299,23.0002 99.343,23.0002 Z M37.3355,58.0698518 C39.0785,57.7267 41.1645,105.7267 48.1695,165.2567 C50.5755,185.7057 53.9905,209.3287 57.6815,232.9137 C55.2895,254.5717 52.2895,285.3087 50.6815,296.6167 C49.9385,295.1737 49.4465,293.8187 49.3495,292.7127 C45.3905,247.9897 41.9695,195.1897 38.8205,151.8927 C34.9895,99.2267 35.6555,58.4037 37.3355,58.0698518 Z M139.1987,129.0326 C158.6617,173.3266 163.9607,239.2916 160.4417,222.7846 C156.9227,206.2786 139.1987,129.0326 139.1987,129.0326 Z" id="Combined-Shape" fill="#4E5565"></path>
    </g>
</svg>