<?xml version="1.0" encoding="UTF-8"?>
<svg width="145px" height="532px" viewBox="0 0 145 532" version="1.1" xmlns="http://www.w3.org/2000/svg" xmlns:xlink="http://www.w3.org/1999/xlink">
    <!-- Generator: Sketch 61.1 (89650) - https://sketch.com -->
    <title>12/buccal/rootcanal-treatment</title>
    <desc>Created with Sketch.</desc>
    <g id="12/buccal/rootcanal-treatment" stroke="none" stroke-width="1" fill="none" fill-rule="evenodd" opacity="0.699999988">
        <path d="M77.1789,498.9923 C81.4269,499.3353 86.1759,499.1933 94.6299,498.8143 C96.3679,467.5903 88.5639,394.7413 82.8559,376.5583 C81.4839,372.1853 79.7729,367.0453 78.1829,361.5973 C72.3369,341.5603 61.9389,311.7123 56.9659,273.5223 C54.8039,256.9173 57.9169,222.9053 58.2359,203.0113 C58.6519,177.1403 37.8689,111.9823 35.3469,112.000296 C33.1809,112.0153 41.5649,140.7443 49.3749,178.2613 C55.6029,208.1783 46.2729,247.0543 46.1309,278.0443 C46.0069,305.0423 46.4289,319.4333 49.5719,344.7243 C51.3729,359.2233 49.2799,371.8803 49.4119,380.0983 C49.4396259,381.791752 49.1180261,406.809239 49.5719,433.749023 C49.952899,456.363303 51.078307,480.188237 51.4799,494.1153 C54.6529,493.8593 63.3929,497.5343 67.6969,497.9773 C71.6089,498.3803 74.2069,498.7523 77.1789,498.9923 Z" id="Fill-1" fill="#4A90E2"></path>
    </g>
</svg>