<?xml version="1.0" encoding="UTF-8"?>
<svg width="142px" height="532px" viewBox="0 0 142 532" version="1.1" xmlns="http://www.w3.org/2000/svg" xmlns:xlink="http://www.w3.org/1999/xlink">
    <!-- Generator: Sketch 61.1 (89650) - https://sketch.com -->
    <title>15/buccal/rootcanal-treatment</title>
    <desc>Created with Sketch.</desc>
    <g id="15/buccal/rootcanal-treatment" stroke="none" stroke-width="1" fill="none" fill-rule="evenodd" opacity="0.7">
        <path d="M58.2365362,99.6095351 C56.7382813,83.6573867 52.689847,44.5156693 53.9824219,43.5958633 C62.6816406,37.4054336 80.6737576,37.1515273 88.2636719,40.4708633 C89.6772619,41.0890758 88.442066,104.926618 88.2636719,114.835121 C87.7497711,143.378591 87.3151454,140.070995 80.6737576,221.307458 C76.5917442,271.238036 71.7162279,341.477196 64.8163357,397.485512 C58.3597714,449.895214 49.7894015,489.814217 48.0792268,489.814217 C46.2992664,489.814217 53.5647229,442.321669 58.2365362,382.562908 C63.0020164,321.606022 64.8163357,226.338957 64.8163357,198.791141 C64.8163357,171.243324 60.9007819,127.976165 58.2365362,99.6095351 Z" id="Path" fill="#4A90E2" transform="translate(68.368862, 264.083576) scale(1, -1) translate(-68.368862, -264.083576) "></path>
    </g>
</svg>