<?xml version="1.0" encoding="UTF-8"?>
<svg width="196px" height="532px" viewBox="0 0 196 532" version="1.1" xmlns="http://www.w3.org/2000/svg" xmlns:xlink="http://www.w3.org/1999/xlink">
    <!-- Generator: Sketch 61.1 (89650) - https://sketch.com -->
    <title>47/lingual/rootcanal-treatment</title>
    <desc>Created with Sketch.</desc>
    <g id="47/lingual/rootcanal-treatment" stroke="none" stroke-width="1" fill="none" fill-rule="evenodd" opacity="0.699999988">
        <path d="M161.296841,78.8000031 C155.071841,79.4020031 152.301841,81.9990031 149.408841,83.9140031 C149.444841,83.8900031 149.482841,83.8680031 149.518841,83.8430031 C147.670841,85.0780031 145.789841,86.0460031 142.942841,86.0460031 C140.765841,86.0460031 140.889841,86.0200031 136.370841,86.0200031 C125.384841,86.0200031 114.363841,97.3950031 109.559841,97.7700031 C109.071841,97.8070031 108.647841,97.7350031 108.294841,97.5230031 C106.524841,96.4620031 103.700841,94.6960031 100.605841,92.7610031 L100.564841,92.7360031 C96.9568409,90.4800031 93.0378409,88.0290031 90.1668409,86.3070031 C83.1038409,82.0710031 80.4678409,80.3660031 77.3208409,80.3660031 C68.1598409,80.3660031 67.0148409,84.3750031 64.0558409,85.5290031 C63.0898409,85.9050031 62.1418409,86.1240031 61.1278409,86.3450031 C58.4458409,86.9330031 55.2878409,87.5460031 50.0128409,91.1790031 C49.2248409,90.4880031 48.4358409,89.8760031 47.6488409,89.3230031 C43.1088409,119.094003 41.5718409,154.965003 42.9578409,167.500003 C48.4128409,216.850003 32.6978409,269.670003 26.2588409,312.115003 C18.8308409,361.070003 10.1478409,437.063003 11.6768409,437.298003 C13.2668409,437.542003 35.9028409,344.239003 44.9338409,297.490003 C51.0788409,265.670003 64.5958409,239.456003 75.5398409,239.641003 C97.9468409,240.021003 101.546841,299.312003 102.567841,313.338003 C106.612841,368.931003 65.6858409,453.588003 67.2718409,454.233524 C68.6098409,454.773003 123.695841,367.803003 124.535841,305.585003 C125.134841,261.169003 116.039841,227.042003 134.216841,179.375003 C139.749841,164.863003 158.817841,118.705003 161.296841,78.8000031" id="Fill-1" fill="#4A90E2"></path>
    </g>
</svg>