<?xml version="1.0" encoding="UTF-8"?>
<svg width="145px" height="532px" viewBox="0 0 145 532" version="1.1" xmlns="http://www.w3.org/2000/svg" xmlns:xlink="http://www.w3.org/1999/xlink">
    <!-- Generator: Sketch 61.1 (89650) - https://sketch.com -->
    <title>12/lingual/rootcanal-treatment</title>
    <desc>Created with Sketch.</desc>
    <g id="12/lingual/rootcanal-treatment" stroke="none" stroke-width="1" fill="none" fill-rule="evenodd" opacity="0.699999988">
        <path d="M94.3265,498.032875 C94.7365139,484.282743 93.7782002,460.092196 91.2490234,436.249023 C87.7577302,403.335742 82.2486806,371.255315 82.0115,369.754454 C81.3035,365.263475 79.5065,359.548124 78.0255,353.555958 C73.1695,333.906958 65.1555,304.329411 62.0645,267.174304 C60.7195,251.019363 65.4995,218.287483 66.7955,199.071127 C68.4825,174.080379 50.9245,110.103289 48.4035,110.000483 C46.2395,109.911648 53.2025,138.082861 59.1605,174.723053 C63.9115,203.940548 52.6835,241.079201 51.0195,271.030351 C49.5695,297.124487 49.2845,311.0562 51.1815,335.653988 C52.3045,350.224504 49.1175,362.972495 49.0345,370.871392 C49.017564,372.463122 47.9120665,404.351132 48.4035,436.249023 C48.7535602,458.970682 50.57647,481.208559 51.1805,494.717875 C53.3155,494.488487 58.0345,495.698341 61.9925,496.71365 C64.5025,497.357293 66.7225,497.873175 67.7325,498.032875 C71.9695,498.703619 76.3835,499.824428 94.3265,498.032875 Z" id="Fill-1" fill="#4A90E2"></path>
    </g>
</svg>