<?xml version="1.0" encoding="UTF-8"?>
<svg width="183px" height="532px" viewBox="0 0 183 532" version="1.1" xmlns="http://www.w3.org/2000/svg" xmlns:xlink="http://www.w3.org/1999/xlink">
    <!-- Generator: Sketch 61.1 (89650) - https://sketch.com -->
    <title>18/lingual/pulp-black</title>
    <desc>Created with Sketch.</desc>
    <g id="18/lingual/pulp-black" stroke="none" stroke-width="1" fill="none" fill-rule="evenodd" opacity="0.699999988">
        <path d="M58.069682,221.674027 C47.132682,178.215027 38.926682,104.678027 37.603682,105.228027 C32.317682,107.421027 41.257682,193.301027 47.641682,233.018027 C54.383682,274.957027 75.351682,318.737027 48.576682,384.293027 C40.453682,404.183027 75.826682,384.612027 88.980682,383.488027 C101.197682,382.444027 140.622682,404.482027 126.751682,376.965027 C104.132682,332.095027 110.463682,291.173027 114.852682,247.375027 C120.999682,186.021027 93.056682,90.6390274 91.813682,91 C90.339682,91.4310274 107.315682,189.642027 101.814682,236.800027 C100.327682,249.551027 91.620682,354.994027 58.069682,221.674027 M69.480682,125.303027 C68.571682,124.983027 67.341682,124.287027 67.341682,124.287027 C66.462682,112.016027 65.885682,105.197027 66.579682,105.227922 C67.070682,105.249027 69.331682,113.412027 71.779682,124.715027 C71.779682,124.715027 70.389682,125.624027 69.480682,125.303027" id="Fill-1" fill="#4E5565"></path>
    </g>
</svg>