<?xml version="1.0" encoding="UTF-8"?>
<svg width="196px" height="532px" viewBox="0 0 196 532" version="1.1" xmlns="http://www.w3.org/2000/svg" xmlns:xlink="http://www.w3.org/1999/xlink">
    <!-- Generator: Sketch 61.1 (89650) - https://sketch.com -->
    <title>47/buccal/pulp-black</title>
    <desc>Created with Sketch.</desc>
    <g id="47/buccal/pulp-black" stroke="none" stroke-width="1" fill="none" fill-rule="evenodd" opacity="0.699999988">
        <path d="M125.910841,298.161015 C125.070841,360.379015 73.0338409,456.092015 71.6948409,455.552307 C70.1098409,454.907015 107.986841,361.507015 103.940841,305.914015 C102.921841,291.888015 97.4468409,244.805015 75.0408409,244.425015 C64.0958409,244.240015 50.5798409,270.454015 44.4328409,302.275015 C35.4038409,349.024015 12.7658409,442.327015 11.1768409,442.082015 C9.64784087,441.847015 18.3308409,365.854015 25.7588409,316.899015 C32.1978409,274.454015 47.9128409,221.635015 42.4578409,172.284015 C38.0458409,132.362015 68.8128409,155.282015 87.7138409,158.027015 C105.965841,160.678015 148.393841,140.577015 133.716841,184.160015 C116.817841,234.335015 126.509841,253.745015 125.910841,298.161015" id="Fill-1" fill="#4E5565"></path>
    </g>
</svg>