<?xml version="1.0" encoding="UTF-8"?>
<svg width="142px" height="532px" viewBox="0 0 142 532" version="1.1" xmlns="http://www.w3.org/2000/svg" xmlns:xlink="http://www.w3.org/1999/xlink">
    <!-- Generator: Sketch 61.1 (89650) - https://sketch.com -->
    <title>45/buccal/pulp-black</title>
    <desc>Created with Sketch.</desc>
    <g id="45/buccal/pulp-black" stroke="none" stroke-width="1" fill="none" fill-rule="evenodd" opacity="0.699999988">
        <path d="M55.7789,142.1456 C56.4169,130.4426 74.5079,122.1466 75.8919,141.8086 C77.8539,169.6686 72.1719,221.9176 68.2829,305.8826 C63.6559,405.7816 31.7979,516.8446 28.2619,516.960708 C24.6689,517.0786 59.2739,420.0476 56.8939,294.6066 C55.8779,241.0206 55.2289,167.8136 55.7789,142.1456" id="Fill-1" fill="#4E5565"></path>
        <path d="M55.7789,142.1456 C56.4169,130.4426 74.5079,122.1466 75.8919,141.8086 C77.8539,169.6686 72.1719,221.9176 68.2829,305.8826 C63.6559,405.7816 31.7979,516.8446 28.2619,516.960708 C24.6689,517.0786 59.2739,420.0476 56.8939,294.6066 C55.8779,241.0206 55.2289,167.8136 55.7789,142.1456" id="Fill-1" fill="#4E5565"></path>
    </g>
</svg>