<?xml version="1.0" encoding="UTF-8"?>
<svg width="145px" height="532px" viewBox="0 0 145 532" version="1.1" xmlns="http://www.w3.org/2000/svg" xmlns:xlink="http://www.w3.org/1999/xlink">
    <!-- Generator: Sketch 61.1 (89650) - https://sketch.com -->
    <title>12/lingual/pulp-black</title>
    <desc>Created with Sketch.</desc>
    <g id="12/lingual/pulp-black" stroke="none" stroke-width="1" fill="none" fill-rule="evenodd" opacity="0.699999988">
        <path d="M51.2888,388.069 C57.0408,392.689 61.7298,388.59 66.0628,388.683 C71.7328,388.805 77.6458,392.237 81.2868,387.114 C84.0868,383.174 80.5838,373.333 78.0258,362.637 C73.1698,342.337 65.1558,311.777 62.0638,273.389 C60.7198,256.698 65.4988,222.88 66.7958,203.026 C68.4818,177.206 50.9238,111.107 48.4038,110.999787 C46.2398,110.909 53.2028,140.015 59.1608,177.871 C63.9118,208.057 52.6838,246.428 51.0198,277.374 C49.5698,304.333 49.2848,318.728 51.1818,344.142 C52.7918,365.731 45.5368,383.449 51.2888,388.069" id="Fill-1" fill="#4E5565"></path>
    </g>
</svg>