<?xml version="1.0" encoding="UTF-8"?>
<svg width="212px" height="532px" viewBox="0 0 212 532" version="1.1" xmlns="http://www.w3.org/2000/svg" xmlns:xlink="http://www.w3.org/1999/xlink">
    <!-- Generator: Sketch 61.1 (89650) - https://sketch.com -->
    <title>16/lingual/rootcanal-treatment</title>
    <desc>Created with Sketch.</desc>
    <g id="16/lingual/rootcanal-treatment" stroke="none" stroke-width="1" fill="none" fill-rule="evenodd" opacity="0.699999988">
        <path d="M99.343,22.9997 C103.799,22.9997 134.735,318.7367 167.438,406.4047 C170.908,415.7057 178.308,461.1417 178.988,498.1037 C172.275,503.1387 164.551,507.5347 158.334,507.0127 C157.592,506.9507 151.373,511.7537 140.893,512.4317 C133.837,512.8897 107.014,498.8857 99.96,492.1407 C92.908,485.3947 90.482,482.5647 86.292,484.4307 C83.682,485.5927 72.209,490.4487 59.839,491.8127 C63.473,458.2507 72.604,417.0347 74.724,410.0227 C115.88,273.8917 94.299,22.9997 99.343,22.9997 Z M37.3355,58.0693518 C39.0785,57.7262 41.1645,105.7262 48.1695,165.2562 C50.5755,185.7052 53.9905,209.3282 57.6815,232.9132 C55.2895,254.5712 52.2895,285.3082 50.6815,296.6162 C49.9385,295.1732 49.4465,293.8182 49.3495,292.7122 C45.3905,247.9892 41.9695,195.1892 38.8205,151.8922 C34.9895,99.2262 35.6555,58.4032 37.3355,58.0693518 Z M139.1983,129.0316 C158.6623,173.3266 163.9603,239.2916 160.4413,222.7846 C156.9233,206.2776 139.1983,129.0316 139.1983,129.0316 Z" id="Combined-Shape" fill="#4A90E2"></path>
    </g>
</svg>