<?xml version="1.0" encoding="UTF-8"?>
<svg width="212px" height="532px" viewBox="0 0 212 532" version="1.1" xmlns="http://www.w3.org/2000/svg" xmlns:xlink="http://www.w3.org/1999/xlink">
    <!-- Generator: Sketch 61.1 (89650) - https://sketch.com -->
    <title>16/buccal/pulp-black</title>
    <desc>Created with Sketch.</desc>
    <g id="16/buccal/pulp-black" stroke="none" stroke-width="1" fill="none" fill-rule="evenodd" opacity="0.699999988">
        <path d="M122.8512,47.4272576 C124.4032,46.9886 158.1542,154.8026 148.8322,235.2236 C142.1772,292.6326 118.2932,339.5276 154.9402,412.3516 C174.2192,450.6636 124.5002,421.6396 101.4182,420.9126 C76.0622,420.1136 28.4742,450.6766 47.2992,413.7616 C85.8742,338.1176 54.5132,263.7346 47.2992,208.4426 C40.4672,156.0806 43.9012,51.4586 45.6122,51.4526 C47.3912,51.4466 53.6862,136.6706 60.1692,195.1566 C64.8132,237.0466 90.7582,302.7256 102.8562,302.7256 C121.3962,302.7256 129.4222,239.9856 131.8102,221.8366 C139.9372,160.0466 121.0092,47.9506 122.8512,47.4272576 Z M99.7199,21.9995437 C101.4889,21.8111 99.3269,69.8071 101.0509,129.7231 C102.1919,169.4071 106.0279,221.1711 109.3469,261.6251 C109.6479,265.2901 105.2499,273.7281 102.1559,273.2861 C98.6559,272.7861 90.9739,261.8521 90.9749,256.7861 C90.9789,211.8891 92.2319,158.9931 92.9169,115.5871 C93.7509,62.7881 98.0179,22.1831 99.7199,21.9995437 Z" id="Combined-Shape" fill="#4E5565"></path>
    </g>
</svg>