<?xml version="1.0" encoding="UTF-8"?>
<svg width="196px" height="532px" viewBox="0 0 196 532" version="1.1" xmlns="http://www.w3.org/2000/svg" xmlns:xlink="http://www.w3.org/1999/xlink">
    <!-- Generator: Sketch 61.1 (89650) - https://sketch.com -->
    <title>17/lingual/pulp-black</title>
    <desc>Created with Sketch.</desc>
    <g id="17/lingual/pulp-black" stroke="none" stroke-width="1" fill="none" fill-rule="evenodd" opacity="0.699999988">
        <path d="M85.4498016,79 C89.2918016,79 107.993802,343.38 136.194802,418.979 C145.280802,443.335 112.014802,424.02 98.3648016,424.02 C80.8148016,424.02 49.5518016,441.187 56.2438016,422.099 C98.7288016,300.936 81.1008016,79 85.4498016,79 Z M39.2490234,104 C40.9760234,103.994 49.4333016,196.0104 55.7293016,247.0594 L55.7293016,247.0594 L52.4990234,276.5 C51.3670234,271.538 49.0373016,264.6914 48.2593016,259.3344 C43.8373016,228.8644 40.8338755,177.086267 39.2490234,104 Z M110.499023,100.249074 C111.760023,99.929 136.645602,183.163 137.812602,245.627 L137.812602,245.627 L120.192602,156.709 C117.409602,134.224 109.780023,100.433 110.499023,100.249074 Z" id="Combined-Shape" fill="#4E5565"></path>
    </g>
</svg>