<?xml version="1.0" encoding="UTF-8"?>
<svg width="183px" height="532px" viewBox="0 0 183 532" version="1.1" xmlns="http://www.w3.org/2000/svg" xmlns:xlink="http://www.w3.org/1999/xlink">
    <!-- Generator: Sketch 61.1 (89650) - https://sketch.com -->
    <title>18/lingual/rootcanal-treatment</title>
    <desc>Created with Sketch.</desc>
    <g id="18/lingual/rootcanal-treatment" stroke="none" stroke-width="1" fill="none" fill-rule="evenodd" opacity="0.699999988">
        <path d="M91.8146724,92 C93.0566724,91.6385536 121.000672,187.145759 114.852672,248.580297 C110.463672,292.435789 104.133672,333.411506 126.752672,378.340406 C132.232672,389.225676 138.483672,434.978656 141.418672,467.589407 C140.297672,467.879788 139.173672,468.042001 138.051672,468.042001 C121.311672,468.042001 112.877672,457.495174 107.453672,457.495174 C100.651672,457.495174 98.1376724,459.346601 91.8106724,461.94701 C85.4846724,464.547419 80.6796724,473.402027 66.1836724,473.402027 C61.2806724,473.402027 51.9716724,472.257527 42.1576724,446.607902 C42.0516724,446.329537 41.2236724,446.200367 39.9776724,446.147298 C42.7706724,418.522082 46.3846724,391.054073 48.5776724,385.678025 C75.3516724,320.035972 54.3846724,276.198503 47.6426724,234.204451 C41.2576724,194.435315 32.3176724,108.442583 37.6036724,106.246704 C38.9266724,105.695982 47.1336724,179.329512 58.0706724,222.84556 C91.6216724,356.340565 100.328672,250.759153 101.815672,237.991415 C107.316672,190.771512 90.3396724,92.4315932 91.8146724,92 Z M66.5804724,106.246405 C67.0714724,106.267531 69.3324724,114.441247 71.7804724,125.759084 C71.7804724,125.759084 70.3904724,126.669277 69.4814724,126.347856 C68.5724724,126.027436 67.3424724,125.330522 67.3424724,125.330522 C66.4624724,113.043414 65.8864724,106.216465 66.5804724,106.246405 Z" id="Combined-Shape" fill="#4A90E2"></path>
    </g>
</svg>