<?xml version="1.0" encoding="UTF-8"?>
<svg width="142px" height="532px" viewBox="0 0 142 532" version="1.1" xmlns="http://www.w3.org/2000/svg" xmlns:xlink="http://www.w3.org/1999/xlink">
    <!-- Generator: Sketch 61.1 (89650) - https://sketch.com -->
    <title>15/lingual/rootcanal-treatment</title>
    <desc>Created with Sketch.</desc>
    <g id="15/lingual/rootcanal-treatment" stroke="none" stroke-width="1" fill="none" fill-rule="evenodd" opacity="0.7">
        <path d="M62.4323007,110.075275 C61.3613281,100.634518 55.3396706,45.0164727 56.7495117,43.6879687 C63.2495117,37.5629687 77.2495117,37.3129687 90.84375,43.6879687 C92.8860534,44.6457041 91.0126207,106.536233 90.84375,115.839594 C90.3298492,144.151222 91.51091,145.035027 84.8695222,225.611652 C80.7875087,275.136672 75.9119924,344.805318 69.0121003,400.358709 C62.555536,452.342717 53.985166,491.93748 52.2749914,491.93748 C50.495031,491.93748 57.7604875,444.830687 62.4323007,385.557314 C67.197781,325.095546 69.0121003,230.602282 69.0121003,203.278221 C69.0121003,175.954161 64.9925653,132.644324 62.4323007,110.075275 Z" id="Path" fill="#4A90E2" transform="translate(71.895073, 265.468740) scale(1, -1) translate(-71.895073, -265.468740) "></path>
    </g>
</svg>