<?xml version="1.0" encoding="UTF-8"?>
<svg width="196px" height="532px" viewBox="0 0 196 532" version="1.1" xmlns="http://www.w3.org/2000/svg" xmlns:xlink="http://www.w3.org/1999/xlink">
    <!-- Generator: Sketch 61.1 (89650) - https://sketch.com -->
    <title>17/buccal/rootcanal-treatment</title>
    <desc>Created with Sketch.</desc>
    <g id="17/buccal/rootcanal-treatment" stroke="none" stroke-width="1" fill="none" fill-rule="evenodd" opacity="0.699999988">
        <path d="M109.9445,92.7300087 C111.3135,92.3522 146.0465,182.4812 137.8285,251.6402 C131.9635,301.0112 108.1445,347.1982 140.4465,409.8242 C146.3255,421.2222 152.5425,448.0112 154.9105,475.0812 L154.9105,475.0812 L154.8685,475.0952 C150.8125,476.7542 145.2605,481.7262 134.6965,486.0442 C134.3595,486.1822 134.0315,486.3212 133.6835,486.4582 C129.3395,488.1612 126.6915,491.3132 114.9895,491.3132 C107.7395,491.3132 99.1695,485.8272 94.5385,483.1372 C93.5545,482.5662 92.1285,481.7382 90.4885,480.7902 C84.4015,477.2702 75.3275,472.0802 74.6715,472.0802 C73.4375,472.0802 66.4095,474.6362 60.6965,475.9782 C60.2455,476.0852 59.7995,476.1852 59.3685,476.2742 C54.0755,477.3662 51.9095,479.2902 49.0295,480.6162 C47.2165,481.4502 45.1205,482.0502 41.7805,482.0502 C38.2085,482.0502 36.0325,480.0632 34.0005,477.6352 C35.5705,449.2752 40.5075,420.7182 45.5675,411.0362 C79.5695,345.9852 51.9255,282.0192 45.5675,234.4702 C39.5465,189.4412 42.2205,96.0092 43.7285,96.0032 C45.2975,95.9982 51.1965,172.7492 56.9125,223.0452 C61.0055,259.0692 79.6105,315.7142 94.5375,315.5512 C110.8785,315.3712 120.7205,255.7352 122.8245,240.1282 C129.9885,186.9912 108.3215,93.1792 109.9445,92.7300087 Z M81.4231,79.9997094 C82.8751,80.0969 87.6401,112.5809 89.8301,154.9609 C91.6291,189.7999 98.6531,242.4529 99.9201,278.5099 C100.0051,280.9039 97.6371,284.1849 92.8191,288.3509 C91.7361,288.5349 84.5601,279.6639 84.7131,276.7109 C86.4001,244.1229 83.4561,198.4599 83.3131,166.5549 C83.0981,118.3829 79.9141,79.9009 81.4231,79.9997094 Z" id="Combined-Shape" fill="#4A90E2"></path>
    </g>
</svg>