<?xml version="1.0" encoding="UTF-8"?>
<svg width="145px" height="532px" viewBox="0 0 145 532" version="1.1" xmlns="http://www.w3.org/2000/svg" xmlns:xlink="http://www.w3.org/1999/xlink">
    <!-- Generator: Sketch 61.1 (89650) - https://sketch.com -->
    <title>12/buccal/pulp-black</title>
    <desc>Created with Sketch.</desc>
    <g id="12/buccal/pulp-black" stroke="none" stroke-width="1" fill="none" fill-rule="evenodd" opacity="0.699999988">
        <path d="M51.8365,387.593 C56.2585,391.585 62.2895,387.601 66.6235,387.481 C72.2915,387.324 78.3225,391.637 81.8505,386.436 C86.0765,380.204 81.2635,371.155 78.1835,360.597 C72.3365,340.56 61.9395,310.713 56.9655,272.523 C54.8035,255.918 57.9165,221.906 58.2365,202.012 C58.6525,176.14 37.8695,110.983 35.3465,111.000996 C33.1805,111.015 41.5645,139.744 49.3745,177.262 C55.6025,207.179 46.2735,246.054 46.1305,277.045 C46.0065,304.043 46.4295,318.434 49.5715,343.724 C52.2405,365.208 46.3595,382.649 51.8365,387.593" id="Fill-1" fill="#4E5565"></path>
    </g>
</svg>