<?xml version="1.0" encoding="UTF-8"?>
<svg width="183px" height="532px" viewBox="0 0 183 532" version="1.1" xmlns="http://www.w3.org/2000/svg" xmlns:xlink="http://www.w3.org/1999/xlink">
    <!-- Generator: Sketch 61.1 (89650) - https://sketch.com -->
    <title>18/buccal/pulp-black</title>
    <desc>Created with Sketch.</desc>
    <g id="18/buccal/pulp-black" stroke="none" stroke-width="1" fill="none" fill-rule="evenodd" opacity="0.699999988">
        <path d="M94.2495117,90.124261 C92.7665117,90.522 118.6974,207.9055 112.1514,254.9285 C110.3814,267.6435 101.9934,297.1225 98.6344,289.2775 C94.9374,280.6405 87.7684,233.9645 86.2824,205.1985 C84.3734,168.2475 71.8895117,94.584 70.6245117,94.5 C69.3085117,94.414 74.5604,139.8255 74.7474,181.8255 C74.8574,206.4085 80.2114,285.6405 75.3544,290.8005 C70.4974,295.9605 57.2284,258.2455 54.4574,234.6235 C49.2354,190.1155 42.4294,102.2225 40.9964,102.2275 C39.6184,102.2325 38.7044,205.8775 45.0684,245.5975 C58.7374,330.8985 75.6274,345.3625 49.5014,394.0465 C38.8174,413.9545 79.2614,398.2825 92.4634,398.2825 C109.1704,398.2825 143.5714,411.5135 131.7544,391.7585 C102.0764,342.1435 118.5404,308.3305 123.8994,264.6415 C131.4064,203.4385 95.5005117,89.79 94.2495117,90.124261 Z" id="Fill-1" fill="#4E5565"></path>
    </g>
</svg>