<?xml version="1.0" encoding="UTF-8"?>
<svg width="212px" height="532px" viewBox="0 0 212 532" version="1.1" xmlns="http://www.w3.org/2000/svg" xmlns:xlink="http://www.w3.org/1999/xlink">
    <!-- Generator: Sketch 61.1 (89650) - https://sketch.com -->
    <title>16/buccal/rootcanal-treatment</title>
    <desc>Created with Sketch.</desc>
    <g id="16/buccal/rootcanal-treatment" stroke="none" stroke-width="1" fill="none" fill-rule="evenodd" opacity="0.699999988">
        <path d="M122.4893,47.4270576 C124.0413,46.9884 157.7923,154.8024 148.4703,235.2234 C141.8153,292.6324 117.9313,339.5274 154.5783,412.3514 C160.3713,423.8644 170.3013,468.4654 172.9253,503.1194 C171.2243,504.1104 169.3873,505.0804 167.3983,506.0024 C162.8143,508.1274 156.1053,510.5684 145.7093,509.3984 C137.6813,508.4954 127.1103,504.3674 113.5203,498.2154 C101.1003,492.5934 98.4703,488.5964 94.0083,490.5824 C89.5473,492.5704 54.6493,500.7664 37.7273,491.9564 C34.8773,490.4724 32.2733,488.2434 30.0003,485.9454 C34.6743,454.6564 43.1533,421.1804 46.9373,413.7614 C85.5123,338.1174 54.1513,263.7344 46.9373,208.4424 C40.1053,156.0804 43.5393,51.4584 45.2503,51.4524 C47.0293,51.4464 53.3243,136.6704 59.8073,195.1564 C64.4523,237.0464 90.3963,302.7264 102.4943,302.7264 C121.0343,302.7264 129.0603,239.9854 131.4483,221.8364 C139.5763,160.0464 120.6473,47.9504 122.4893,47.4270576 Z M99.3581,21.9993437 C101.1271,21.8109 98.9651,69.8069 100.6891,129.7229 C101.8301,169.4069 105.6661,221.1709 108.9851,261.6249 C109.2861,265.2899 104.8881,273.7279 101.7941,273.2859 C98.2941,272.7859 90.6121,261.8519 90.6131,256.7859 C90.6171,211.8889 91.8701,158.9929 92.5551,115.5869 C93.3891,62.7879 97.6561,22.1829 99.3581,21.9993437 Z" id="Combined-Shape" fill="#4A90E2"></path>
    </g>
</svg>