<?xml version="1.0" encoding="UTF-8"?>
<svg width="212px" height="532px" viewBox="0 0 212 532" version="1.1" xmlns="http://www.w3.org/2000/svg" xmlns:xlink="http://www.w3.org/1999/xlink">
    <!-- Generator: Sketch 61.1 (89650) - https://sketch.com -->
    <title>46/buccal/rootcanal-treatment</title>
    <desc>Created with Sketch.</desc>
    <g id="46/buccal/rootcanal-treatment" stroke="none" stroke-width="1" fill="none" fill-rule="evenodd" opacity="0.699999988">
        <path d="M170.478053,157.887 C173.555053,141.676 168.530053,89.932 162.365053,62.5 C156.405053,64.827 150.099053,67.947 144.830053,68.631 C144.392053,68.687 143.940053,68.785 143.481053,68.905 C134.907053,71.135 122.964053,83.572 116.980053,79.858 C114.699053,78.441 112.148053,76.79 109.503053,75.083 C108.959053,74.732 107.498053,73.791 107.060053,73.51 L106.922053,73.422 C98.5810527,68.066 89.9830527,62.785 86.0950527,62.768 C82.5600527,62.752 79.5030527,62.768 75.6650527,62.768 C73.8170527,62.768 71.7180527,63.126 69.4810527,63.739 C58.1930527,66.829 43.2850527,76.55 38.2630527,81.202 C37.8370527,80.938 37.4180527,80.692 37,80.449 C36.9180527,106.544 41.7610527,147.291 45.1460527,159.719 C62.2140527,222.396 59.2080527,305.217 58.8860527,361.217 C58.5140527,425.806 53.7810527,526.136 55.8870527,526.151 C58.0790527,526.168 78.5840527,398.902 81.5500527,336.859 C83.5690527,294.628 90.1300527,259.388 104.917053,257.569 C135.192053,253.845 148.034053,316.034 152.170053,333.948 C168.568053,404.948 149.820053,510.245 152.083053,510.777 C153.995053,511.225 190.705053,399.72 179.586053,319.249 C171.649053,261.804 157.582053,225.833 170.478053,157.887" id="Fill-1" fill="#4A90E2"></path>
    </g>
</svg>