<?xml version="1.0" encoding="UTF-8"?>
<svg width="196px" height="532px" viewBox="0 0 196 532" version="1.1" xmlns="http://www.w3.org/2000/svg" xmlns:xlink="http://www.w3.org/1999/xlink">
    <!-- Generator: Sketch 61.1 (89650) - https://sketch.com -->
    <title>47/buccal/rootcanal-treatment</title>
    <desc>Created with Sketch.</desc>
    <g id="47/buccal/rootcanal-treatment" stroke="none" stroke-width="1" fill="none" fill-rule="evenodd" opacity="0.699999988">
        <path d="M159.271607,80.329 C155.672607,79.548 151.997607,79.5 147.332607,79.5 C140.234607,79.5 136.789607,80.089 133.100607,81.584 C130.106607,82.797 126.951607,84.605 121.550607,87.185 C117.349607,89.191 108.974607,97.092 104.720607,93.245 C103.257607,91.923 101.569607,90.565 99.7226075,89.241 L99.6616075,89.204 C92.5166075,84.076 83.0846075,79.5 75.2876075,79.5 C71.0936075,79.5 65.1246075,80.9 59.1006075,82.908 C54.2616075,84.522 49.3886075,86.527 45.3716075,88.524 C44.0886075,87.61 42.8316075,86.856 41.5986075,86.231 C36.8386075,110.652 40.8626075,157.373 42.4586075,171.808 C47.9146075,221.159 32.1986075,273.978 25.7586075,316.423 C18.3326075,365.378 9.64860747,441.371 11.1766075,441.606 C12.7666075,441.85 35.4036075,348.548 44.4336075,301.799 C50.5796075,269.978 64.0956075,243.764 75.0406075,243.949 C97.4476075,244.329 102.921607,291.412 103.941607,305.438 C107.987607,361.031 70.1106075,454.431 71.6956075,455.076292 C73.0346075,455.616 125.071607,359.903 125.911607,297.685 C126.509607,253.269 116.818607,233.859 133.716607,183.683 C138.985607,168.041 156.004607,113.718 159.271607,80.329" id="Fill-1" fill="#4A90E2"></path>
    </g>
</svg>