<?xml version="1.0" encoding="UTF-8"?>
<svg width="196px" height="532px" viewBox="0 0 196 532" version="1.1" xmlns="http://www.w3.org/2000/svg" xmlns:xlink="http://www.w3.org/1999/xlink">
    <!-- Generator: Sketch 61.1 (89650) - https://sketch.com -->
    <title>47/lingual/pulp-black</title>
    <desc>Created with Sketch.</desc>
    <g id="47/lingual/pulp-black" stroke="none" stroke-width="1" fill="none" fill-rule="evenodd" opacity="0.699999988">
        <path d="M127.0364,306.3693 C126.1964,368.5873 71.1104,455.5573 69.7714,455.017821 C68.1854,454.3723 109.1124,369.7153 105.0674,314.1223 C104.0474,300.0973 100.4474,240.8053 78.0404,240.4263 C67.0964,240.2403 53.5794,266.4543 47.4334,298.2753 C38.4034,345.0243 15.7664,438.3273 14.1774,438.0823 C12.6474,437.8483 21.3314,361.8543 28.7594,312.8993 C35.1984,270.4543 50.9134,217.6353 45.4584,168.2843 C41.0454,128.3623 71.8134,151.2833 90.7144,154.0273 C108.9654,156.6783 153.1014,137.1903 136.7174,180.1603 C118.5404,227.8263 127.6354,261.9533 127.0364,306.3693" id="Fill-1" fill="#4E5565"></path>
    </g>
</svg>