<?xml version="1.0" encoding="UTF-8"?>
<svg width="183px" height="532px" viewBox="0 0 183 532" version="1.1" xmlns="http://www.w3.org/2000/svg" xmlns:xlink="http://www.w3.org/1999/xlink">
    <!-- Generator: Sketch 61.1 (89650) - https://sketch.com -->
    <title>48/buccal/rootcanal-treatment</title>
    <desc>Created with Sketch.</desc>
    <g id="48/buccal/rootcanal-treatment" stroke="none" stroke-width="1" fill="none" fill-rule="evenodd" opacity="0.699999988">
        <path d="M135.878,163.415674 C137.69,153.199674 142.186,109.314674 140.731,86.1816739 C137.772,85.3556739 134.79,85 131.753,85 C130.659,85 129.612,85.0506739 128.597,85.1336739 C114.397,86.2956739 107.58,95.2796739 99.456,103.769674 C97.57,105.740674 93.759,105.971674 92.308,105.321674 C76.942,98.4406739 77.98,102.600674 74.776,100.146674 C66.009,93.4336739 60.69,91.7486739 54.597,91.3246739 C52.642,91.1886739 50.607,91.1806739 48.352,91.1806739 C44.468,91.1806739 41.059,91.4946739 38,92.2066739 C39.609,114.964674 47.804,158.030674 50.639,166.518674 C68.07,218.719674 66.174,256.954674 67.088,293.980674 C68.142,336.685674 62.151,400.208674 64.646,400.422674 C68.92,400.789674 82.481,341.841674 85.401,300.944674 C87.394,273.056674 94.444,254.845674 101.612,254.845674 C110.701,254.845674 118.718,279.832674 120.737,291.796674 C128.597,338.345674 118.309,407.016674 121.55,407.547674 C126.993,408.439674 149.013,314.787674 140.367,261.805674 C134.195,223.983674 128.253,206.419674 135.878,163.415674" id="Page-1" fill="#4A90E2"></path>
    </g>
</svg>