<?xml version="1.0" encoding="UTF-8"?>
<svg width="196px" height="532px" viewBox="0 0 196 532" version="1.1" xmlns="http://www.w3.org/2000/svg" xmlns:xlink="http://www.w3.org/1999/xlink">
    <!-- Generator: Sketch 61.1 (89650) - https://sketch.com -->
    <title>17/buccal/pulp-black</title>
    <desc>Created with Sketch.</desc>
    <g id="17/buccal/pulp-black" stroke="none" stroke-width="1" fill="none" fill-rule="evenodd" opacity="0.699999988">
        <path d="M110.1663,92.7300087 C111.5353,92.3522 146.2673,182.4812 138.0503,251.6402 C132.1853,301.0112 108.3663,347.1982 140.6683,409.8242 C157.6623,442.7702 113.8373,417.8112 93.4923,417.1862 C71.1423,416.4992 29.1953,442.7822 45.7893,411.0362 C79.7913,345.9852 52.1473,282.0192 45.7893,234.4702 C39.7683,189.4412 42.4423,96.0092 43.9503,96.0032 C45.5193,95.9982 51.4183,172.7492 57.1333,223.0442 C61.2273,259.0692 79.8323,315.7142 94.7593,315.5512 C111.1003,315.3712 120.9423,255.7352 123.0463,240.1282 C130.2103,186.9912 108.5433,93.1792 110.1663,92.7300087 Z M81.6444,80.0007055 C83.0964,80.0969 87.8624,112.5809 90.0514,154.9609 C91.8514,189.7999 98.8754,242.4529 100.1424,278.5099 C100.2264,280.9039 97.8594,284.1849 93.0414,288.3509 C91.9574,288.5349 84.7824,279.6639 84.9354,276.7109 C86.6214,244.1229 83.6784,198.4599 83.5354,166.5549 C83.3194,118.3829 80.1364,79.9009 81.6444,80.0007055 Z" id="Combined-Shape" fill="#4E5565"></path>
    </g>
</svg>