<?xml version="1.0" encoding="UTF-8"?>
<svg width="183px" height="532px" viewBox="0 0 183 532" version="1.1" xmlns="http://www.w3.org/2000/svg" xmlns:xlink="http://www.w3.org/1999/xlink">
    <!-- Generator: Sketch 61.1 (89650) - https://sketch.com -->
    <title>18/buccal/rootcanal-treatment</title>
    <desc>Created with Sketch.</desc>
    <g id="18/buccal/rootcanal-treatment" stroke="none" stroke-width="1" fill="none" fill-rule="evenodd" opacity="0.699999988">
        <path d="M38.0001,449.934751 C42.1991,449.541751 46.3931,448.963751 47.9001,448.224751 C49.1701,447.601751 50.8441,451.992751 53.8771,457.257751 C58.0031,464.416751 64.6501,473.193751 76.2671,473.193751 C85.6941,473.193751 90.7201,466.971751 95.1311,463.036751 C97.1571,461.226751 99.0711,459.886751 101.2291,459.886751 C102.6931,459.895751 118.2861,474.999751 135.2721,474.999751 C137.5691,474.999751 139.8531,474.584751 142.1091,473.839751 C142.1091,461.125 143.024235,443.962984 141.374512,430.5 C139.019718,411.283114 133.156666,397.10626 130.8551,393.258751 C101.1761,343.643751 117.6401,309.830751 122.9991,266.141751 C130.5071,204.938751 95.2495117,90.165 93.9995117,90.4992683 C92.5155117,90.897 117.7971,209.404751 111.2511,256.428751 C109.4821,269.143751 101.0931,298.622751 97.7351,290.776751 C94.0381,282.140751 86.8681,235.464751 85.3821,206.697751 C83.4731,169.747751 70.5155117,93.5847513 69.2495117,93.5007513 C67.9335117,93.4137513 73.6601,141.324751 73.8471,183.324751 C73.9571,207.907751 79.3111,287.140751 74.4551,292.300751 C69.5981,297.460751 56.3281,259.744751 53.5571,236.123751 C48.3351,191.614751 42.0565117,101.245 40.6245117,101.25 C39.2455117,101.255 37.8041,207.377751 44.1681,247.097751 C57.8371,332.398751 74.7261,346.861751 48.6011,395.546751 C40.9995117,411.125 41.1531,426.583751 38.0001,449.934751 Z" id="Fill-1" fill="#4A90E2"></path>
    </g>
</svg>