<?xml version="1.0" encoding="UTF-8"?>
<svg width="212px" height="532px" viewBox="0 0 212 532" version="1.1" xmlns="http://www.w3.org/2000/svg" xmlns:xlink="http://www.w3.org/1999/xlink">
    <!-- Generator: Sketch 61.1 (89650) - https://sketch.com -->
    <title>46/buccal/pulp-black</title>
    <desc>Created with Sketch.</desc>
    <g id="46/buccal/pulp-black" stroke="none" stroke-width="1" fill="none" fill-rule="evenodd" opacity="0.699999988">
        <path d="M178.97138,319.157 C190.08938,399.629 153.37938,511.134 151.46838,510.685 C149.20438,510.154 167.95238,404.856 151.55538,333.856 C147.41838,315.943 134.57538,253.754 104.30238,257.477 C89.51538,259.296 82.95338,294.536 80.93538,336.767 C77.96938,398.81 57.46338,526.076 55.27238,526.059 C53.16538,526.044 57.89938,425.715 58.27138,361.125 C58.59338,305.125 61.59938,222.305 44.53138,159.627 C30.72338,108.924 76.70338,132.725 102.71738,132.714 C127.83738,132.703 181.065,98.778 169.86338,157.795 C156.96638,225.741 171.03438,261.712 178.97138,319.157" id="Page-1" fill="#4E5565"></path>
    </g>
</svg>