<?xml version="1.0" encoding="UTF-8"?>
<svg width="196px" height="532px" viewBox="0 0 196 532" version="1.1" xmlns="http://www.w3.org/2000/svg" xmlns:xlink="http://www.w3.org/1999/xlink">
    <!-- Generator: Sketch 61.1 (89650) - https://sketch.com -->
    <title>17/lingual/rootcanal-treatment</title>
    <desc>Created with Sketch.</desc>
    <g id="17/lingual/rootcanal-treatment" stroke="none" stroke-width="1" fill="none" fill-rule="evenodd" opacity="0.699999988">
        <path d="M86.4501499,79.5 C90.2921499,79.5 108.99415,336.385214 137.19515,409.841094 C141.91715,422.142201 152.061512,478.48244 151.249512,478.964379 C150.437512,479.446318 139.427512,487.381572 135.374512,488.875 C132.886512,489.790296 130.57515,490.8263 128.37615,490.8263 C121.12815,490.8263 107.96215,484.550403 103.32915,481.760792 C103.03415,481.582008 102.71815,481.383791 102.38815,481.170999 C102.26315,481.090352 102.12415,480.998045 101.99515,480.913512 C101.78215,480.774566 101.57115,480.637563 101.34715,480.487928 C101.16315,480.364529 100.96815,480.231412 100.77715,480.103154 C100.59515,479.980726 100.41915,479.861213 100.23215,479.734899 C99.9051499,479.511419 99.5681499,479.281137 99.1071499,478.964379 C98.6711499,478.664139 98.2221499,478.357097 97.4841499,477.851838 C97.1631499,477.633216 96.8411499,477.413623 96.5131499,477.192087 L96.5131499,477.192087 L96.0681499,476.89379 C95.7821499,476.702374 95.4971499,476.511931 95.2101499,476.322459 C95.0461499,476.213634 94.8801499,476.106752 94.7161499,475.99987 C94.4451499,475.82303 94.1771499,475.648132 93.9051499,475.47615 C90.5621499,473.341432 87.2781499,471.56914 85.1571499,471.56914 C81.0171499,471.56914 71.0771499,474.880528 61.4091499,477.956776 C56.0291499,479.666883 50.7381499,481.303144 46.5721499,482.258277 C48.6631499,455.15406 53.7871499,422.454101 57.2441499,412.872646 C99.7291499,295.14444 82.1011499,79.5 86.4501499,79.5 Z M38.6247559,103.8125 C40.3527559,103.80667 50.4337499,195.194395 56.7287499,244.796231 L56.7287499,244.796231 L52.1517499,271.74207 C51.0197499,266.920735 50.0377499,261.927418 49.2597499,256.722281 C42.6267499,212.313923 36.9637559,103.81833 38.6247559,103.8125 Z M109.624512,100.749094 C110.885512,100.4381 135.64585,180.71052 136.81285,241.403757 L136.81285,241.403757 L119.19285,155.006452 C116.40985,133.158869 108.906512,100.927812 109.624512,100.749094 Z" id="Combined-Shape" fill="#4A90E2"></path>
    </g>
</svg>